<svg width="24" height="20" viewBox="0 0 24 20" fill="none" xmlns="http://www.w3.org/2000/svg">
<path d="M23.6666 3.33333H20.2499C19.8333 1.41667 18.1666 0 16.1666 0C14.1666 0 12.4999 1.41667 12.0833 3.33333H0.333252V5H12.0833C12.4999 6.91667 14.1666 8.33333 16.1666 8.33333C18.1666 8.33333 19.8333 6.91667 20.2499 5H23.6666V3.33333ZM16.1666 6.66667C14.7499 6.66667 13.6666 5.58333 13.6666 4.16667C13.6666 2.75 14.7499 1.66667 16.1666 1.66667C17.5833 1.66667 18.6666 2.75 18.6666 4.16667C18.6666 5.58333 17.5833 6.66667 16.1666 6.66667Z" fill="#C4C4C4"/>
<path d="M0.333252 16.6667H3.74992C4.16659 18.5833 5.83325 20 7.83325 20C9.83325 20 11.4999 18.5833 11.9166 16.6667H23.6666V15H11.9166C11.4999 13.0833 9.83325 11.6667 7.83325 11.6667C5.83325 11.6667 4.16659 13.0833 3.74992 15H0.333252V16.6667ZM7.83325 13.3333C9.24992 13.3333 10.3333 14.4167 10.3333 15.8333C10.3333 17.25 9.24992 18.3333 7.83325 18.3333C6.41659 18.3333 5.33325 17.25 5.33325 15.8333C5.33325 14.4167 6.41659 13.3333 7.83325 13.3333Z" fill="#C4C4C4"/>
</svg>
