<svg width="22" height="18" viewBox="0 0 22 18" fill="none" xmlns="http://www.w3.org/2000/svg">
<path d="M10.119 3.2356L10.9635 4.56705L11.8079 3.2356C12.6706 1.87543 14.1955 1 15.9468 1C18.6805 1 20.9269 3.24914 20.9269 6C20.9269 7.20012 20.3734 8.49332 19.4065 9.81617C18.4472 11.1287 17.1464 12.3806 15.8107 13.4771C14.4799 14.5695 13.1441 15.4837 12.1383 16.1259C11.6572 16.4331 11.2537 16.6767 10.9653 16.8463C10.6768 16.6754 10.2728 16.4299 9.79083 16.1203C8.78473 15.4741 7.44852 14.5551 6.11728 13.4592C4.78111 12.3593 3.47971 11.1054 2.51991 9.79443C1.55204 8.47242 1 7.18598 1 6C1 3.24914 3.24645 1 5.98007 1C7.73142 1 9.2563 1.87543 10.119 3.2356Z" stroke="black" stroke-width="2"/>
</svg>
