<?xml version="1.0" encoding="utf-8"?>
<!-- Generator: Adobe Illustrator 22.0.1, SVG Export Plug-In . SVG Version: 6.00 Build 0)  -->
<svg version="1.1" id="Слой_1" xmlns="http://www.w3.org/2000/svg" xmlns:xlink="http://www.w3.org/1999/xlink" x="0px" y="0px"
	 viewBox="0 0 18 18" style="enable-background:new 0 0 18 18;" xml:space="preserve">
<style type="text/css">
	.st0{fill:#FFFFFF;}
</style>
<g>
	<path class="st0" d="M9,18L9,18c0,0-0.1,0-0.1,0l-0.3,0c-0.2,0-0.6,0-1,0c-0.8,0-1.9-0.1-3.1-0.2c-1.3-0.2-2.3-0.4-3.1-0.7
		c-0.4-0.2-0.8-0.4-1-0.6c0,0-0.1-0.1-0.1-0.1c0,0,0,0,0,0c0,0-0.1-0.1-0.1-0.1C0,16-0.1,15.7,0,15.4c0.2-1.2,1.1-2.4,2.7-3.5
		c1.8-1.1,4-1.8,6.2-1.8s4.4,0.7,6.2,1.8c1.6,1,2.6,2.3,2.7,3.5c0.1,0.3,0,0.6-0.2,0.9c0,0,0,0,0,0.1c0,0,0,0,0,0
		c0,0-0.1,0.1-0.1,0.1c-0.2,0.2-0.6,0.4-1,0.6c-0.8,0.3-1.8,0.5-3.1,0.7c-1.2,0.1-2.3,0.2-3.1,0.2c-0.4,0-0.8,0-1,0L9,18z M2.2,15.2
		c0.6,0.2,1.5,0.4,2.6,0.5c1.1,0.1,2.2,0.2,2.9,0.2c0.4,0,0.7,0,1,0L9,16l0.3,0c0.2,0,0.6,0,1,0c0.7,0,1.8-0.1,2.9-0.2
		c1.1-0.1,2-0.3,2.6-0.5c-0.2-0.4-0.7-1-1.7-1.6c-1.5-0.9-3.3-1.5-5.1-1.5s-3.7,0.5-5.1,1.5C2.9,14.2,2.4,14.8,2.2,15.2z M0,16L0,16
		L0,16z M9,9C6.5,9,4.5,7,4.5,4.5S6.5,0,9,0s4.5,2,4.5,4.5S11.4,9,9,9z M9,2C7.6,2,6.5,3.1,6.5,4.5S7.6,7,9,7s2.5-1.1,2.5-2.5
		S10.3,2,9,2z"/>
</g>
</svg>
