<svg width="20" height="18" viewBox="0 0 20 18" fill="none" xmlns="http://www.w3.org/2000/svg">
<path d="M15.2657 9.9V16.2H2.70759V3.6H7.21058C7.25543 2.961 7.40793 2.358 7.64115 1.8H2.70759C1.72088 1.8 0.913574 2.61 0.913574 3.6V16.2C0.913574 17.19 1.72088 18 2.70759 18H15.2657C16.2524 18 17.0598 17.19 17.0598 16.2V11.7L15.2657 9.9ZM13.9202 14.4H4.05311L6.51989 11.223L8.27803 13.347L10.7448 10.161L13.9202 14.4ZM16.4318 6.201C16.8265 5.571 17.0598 4.842 17.0598 4.05C17.0598 1.809 15.2568 0 13.0232 0C10.7897 0 8.98666 1.809 8.98666 4.05C8.98666 6.291 10.7897 8.1 13.0142 8.1C13.8036 8.1 14.5392 7.866 15.1581 7.47L17.9568 10.278L19.2305 9L16.4318 6.201ZM13.0232 6.3C12.4285 6.3 11.8581 6.06295 11.4375 5.64099C11.0169 5.21903 10.7807 4.64674 10.7807 4.05C10.7807 3.45326 11.0169 2.88097 11.4375 2.45901C11.8581 2.03705 12.4285 1.8 13.0232 1.8C13.618 1.8 14.1884 2.03705 14.6089 2.45901C15.0295 2.88097 15.2657 3.45326 15.2657 4.05C15.2657 4.64674 15.0295 5.21903 14.6089 5.64099C14.1884 6.06295 13.618 6.3 13.0232 6.3Z" fill="#434D54"/>
</svg>
