<svg width="21" height="19" viewBox="0 0 21 19" fill="none" xmlns="http://www.w3.org/2000/svg">
<path fill-rule="evenodd" clip-rule="evenodd" d="M17.2857 14.4211H13.6667L10.9524 17.1053H10.0476L7.33336 14.4211H3.71431C3.23439 14.4211 2.77413 14.2325 2.43478 13.8969C2.09543 13.5613 1.90479 13.1062 1.90479 12.6316V3.68421C1.90479 3.20961 2.09543 2.75448 2.43478 2.41889C2.77413 2.0833 3.23439 1.89474 3.71431 1.89474H17.2857C17.7657 1.89474 18.2259 2.0833 18.5653 2.41889C18.9046 2.75448 19.0953 3.20961 19.0953 3.68421V12.6316C19.0953 13.1062 18.9046 13.5613 18.5653 13.8969C18.2259 14.2325 17.7657 14.4211 17.2857 14.4211Z" stroke="#465057" stroke-width="2"/>
</svg>
