<svg width="15" height="18" viewBox="0 0 15 18" fill="none" xmlns="http://www.w3.org/2000/svg">
<path d="M4.53125 1.62H4.375C4.46094 1.62 4.53125 1.539 4.53125 1.44V1.62H10.4688V1.44C10.4688 1.539 10.5391 1.62 10.625 1.62H10.4688V3.24H11.875V1.44C11.875 0.64575 11.3145 0 10.625 0H4.375C3.68555 0 3.125 0.64575 3.125 1.44V3.24H4.53125V1.62ZM14.375 3.24H0.625C0.279297 3.24 0 3.56175 0 3.96V4.68C0 4.779 0.0703125 4.86 0.15625 4.86H1.33594L1.81836 16.6275C1.84961 17.3948 2.40039 18 3.06641 18H11.9336C12.6016 18 13.1504 17.397 13.1816 16.6275L13.6641 4.86H14.8438C14.9297 4.86 15 4.779 15 4.68V3.96C15 3.56175 14.7207 3.24 14.375 3.24ZM11.7832 16.38H3.2168L2.74414 4.86H12.2559L11.7832 16.38Z" fill="#434D54"/>
</svg>
