<?xml version="1.0" encoding="utf-8"?>
<!-- Generator: Adobe Illustrator 22.0.1, SVG Export Plug-In . SVG Version: 6.00 Build 0)  -->
<svg version="1.1" id="Слой_1" xmlns="http://www.w3.org/2000/svg" xmlns:xlink="http://www.w3.org/1999/xlink" x="0px" y="0px"
	 viewBox="0 0 512 371.4" style="enable-background:new 0 0 512 371.4;" xml:space="preserve">
<path d="M507.6,141l-80.3-80.3c-2.8-2.8-6.6-4.4-10.6-4.4h-65.3v-1.1c0-30.4-24.7-55.2-55.2-55.2h-241C24.7,0,0,24.7,0,55.2V256
	c0,30.4,24.7,55.2,55.2,55.2h10.6c7,34.3,37.4,60.3,73.7,60.3c36.4,0,66.8-25.9,73.7-60.3h85.5c7,34.3,37.4,60.3,73.7,60.3
	s66.8-25.9,73.7-60.3H497c8.3,0,15-6.7,15-15V151.6C512,147.6,510.4,143.8,507.6,141z M410.5,86.2l50.3,50.3H351.3V86.2H410.5z
	 M30,256V55.2C30,41.3,41.3,30,55.2,30h241c13.9,0,25.2,11.3,25.2,25.2V241c-11.3,10.5-19.4,24.4-22.6,40.1h-85.5
	c-7-34.3-37.4-60.3-73.7-60.3s-66.8,25.9-73.7,60.3H55.2C41.3,281.2,30,269.9,30,256z M139.5,341.4c-24.9,0-45.2-20.3-45.2-45.3
	c0-24.9,20.3-45.3,45.2-45.3c25,0,45.3,20.3,45.3,45.3C184.8,321.1,164.5,341.4,139.5,341.4z M372.5,341.4
	c-25,0-45.3-20.3-45.3-45.3c0-24.9,20.3-45.3,45.3-45.3c24.9,0,45.3,20.3,45.3,45.3C417.7,321.1,397.4,341.4,372.5,341.4z
	 M446.2,281.2c-7-34.3-37.4-60.3-73.7-60.3c-7.3,0-14.4,1.1-21.2,3.1v-57.4H482v114.6L446.2,281.2L446.2,281.2z"/>
</svg>
