<svg width="15" height="16" viewBox="0 0 15 16" fill="none" xmlns="http://www.w3.org/2000/svg">
<path d="M14.824 13.9178L10.6522 9.70691C11.4686 8.68349 11.9608 7.38663 11.9608 5.97649C11.9608 2.67575 9.28504 0 5.9804 0C2.67575 0 0 2.67965 0 5.9804C0 9.28114 2.67575 11.9569 5.9804 11.9569C7.41007 11.9569 8.71864 11.4569 9.74988 10.621L13.8944 14.8045C14.0194 14.9373 14.1912 15.0037 14.3592 15.0037C14.5194 15.0037 14.6795 14.9451 14.8006 14.8279C15.0584 14.5819 15.0662 14.1756 14.824 13.9178ZM5.9804 10.6717C4.7265 10.6717 3.54683 10.1835 2.66012 9.29676C1.77342 8.41005 1.28514 7.23038 1.28514 5.9804C1.28514 4.7265 1.77342 3.54683 2.66012 2.66403C3.54683 1.77732 4.7265 1.28905 5.9804 1.28905C7.23429 1.28905 8.41396 1.77732 9.30067 2.66403C10.1874 3.55074 10.6756 4.73041 10.6756 5.9804C10.6756 7.23429 10.1874 8.41396 9.30067 9.29676C8.41396 10.1835 7.23429 10.6717 5.9804 10.6717Z" fill="black"/>
</svg>
