<?xml version="1.0" encoding="utf-8"?>
<!-- Generator: Adobe Illustrator 22.0.1, SVG Export Plug-In . SVG Version: 6.00 Build 0)  -->
<svg version="1.1" id="Слой_1" xmlns="http://www.w3.org/2000/svg" xmlns:xlink="http://www.w3.org/1999/xlink" x="0px" y="0px"
	 viewBox="0 0 21 17" style="enable-background:new 0 0 21 17;" xml:space="preserve">
<style type="text/css">
	.st0{fill:#434D54;}
</style>
<g>
	<path class="st0" d="M20,17h-9c-0.6,0-1-0.4-1-1s0.4-1,1-1h9c0.6,0,1,0.4,1,1S20.6,17,20,17z"/>
</g>
<g>
	<path class="st0" d="M1,17c-0.3,0-0.5-0.1-0.7-0.3c-0.3-0.2-0.4-0.6-0.3-0.9l0.8-3.5c0-0.2,0.1-0.3,0.2-0.5l10.2-11
		c0.8-0.8,2-1.1,3-0.6c0.3,0.1,0.6,0.4,0.9,0.6c0.2,0.3,0.4,0.6,0.6,0.9C15.9,2.1,16,2.5,16,2.9s-0.1,0.7-0.2,1.1
		c-0.1,0.3-0.3,0.7-0.6,0.9L5,15.8c-0.1,0.1-0.3,0.2-0.5,0.3L1.3,17C1.2,17,1.1,17,1,17z M2.7,13l-0.4,1.6l1.4-0.4l10-10.7
		c0.1-0.1,0.1-0.2,0.2-0.3C14,3.1,14,3,14,2.9s0-0.2-0.1-0.4c0-0.1-0.1-0.2-0.2-0.3c-0.1-0.1-0.2-0.1-0.2-0.2
		c-0.3-0.1-0.6,0-0.8,0.2l0,0L2.7,13z M12,1.5L12,1.5L12,1.5z"/>
</g>
</svg>
