<svg width="9" height="13" viewBox="0 0 9 13" fill="none" xmlns="http://www.w3.org/2000/svg">
<path d="M1.86207 12.6985H3.10345V10.4576H6.82759V8.96364H3.10345V7.4697H5.89655C7.60779 7.4697 9 5.79424 9 3.73485C9 1.67545 7.60779 0 5.89655 0H2.48276C2.31814 0 2.16027 0.0786985 2.04386 0.218783C1.92746 0.358867 1.86207 0.548861 1.86207 0.74697V5.97576H0V7.4697H1.86207V8.96364H0V10.4576H1.86207V12.6985ZM3.10345 1.49394H5.89655C6.92317 1.49394 7.75862 2.49936 7.75862 3.73485C7.75862 4.97034 6.92317 5.97576 5.89655 5.97576H3.10345V1.49394Z" fill="white"/>
</svg>
