<svg id="Слой_1" data-name="Слой 1" xmlns="http://www.w3.org/2000/svg" xmlns:xlink="http://www.w3.org/1999/xlink" viewBox="0 0 512 384"><defs><style>.cls-1{fill:none;}.cls-2{clip-path:url(#clip-path);}</style><clipPath id="clip-path" transform="translate(0 0)"><rect class="cls-1" width="512" height="384"/></clipPath></defs><title>icon-laptop</title><g class="cls-2"><path d="M511.79,329.6a9.19,9.19,0,0,0-.39-1.86,10.81,10.81,0,0,0-.89-2.19c-.15-.26-.17-.56-.32-.79l-40.86-61.29V42.67A42.71,42.71,0,0,0,426.67,0H85.33A42.71,42.71,0,0,0,42.67,42.67V263.45L1.79,324.76a7.25,7.25,0,0,0-.36.87,9.3,9.3,0,0,0-.83,2,9.55,9.55,0,0,0-.41,2c0,.34-.19.62-.19,1v10.66A42.72,42.72,0,0,0,42.67,384H469.33A42.72,42.72,0,0,0,512,341.33V330.67a8.81,8.81,0,0,0-.21-1.07M64,42.67A21.37,21.37,0,0,1,85.33,21.33H426.67A21.37,21.37,0,0,1,448,42.67V256H64ZM59,277.33h393.9L481.36,320h-172a10.58,10.58,0,0,0-7.51,3.12l-7.55,7.55h-76.5l-7.55-7.55a10.74,10.74,0,0,0-7.55-3.12H30.59Zm410.3,85.34H42.67a21.37,21.37,0,0,1-21.34-21.34H198.25l7.51,7.56a10.77,10.77,0,0,0,7.55,3.11h85.33a10.69,10.69,0,0,0,7.56-3.11l7.55-7.56H490.67a21.37,21.37,0,0,1-21.34,21.34" transform="translate(0 0)"/></g></svg>