<?xml version="1.0" encoding="utf-8"?>
<!-- Generator: Adobe Illustrator 23.0.0, SVG Export Plug-In . SVG Version: 6.00 Build 0)  -->
<svg version="1.1" id="Capa_1" xmlns="http://www.w3.org/2000/svg" xmlns:xlink="http://www.w3.org/1999/xlink" x="0px" y="0px"
	 viewBox="0 0 512 512" style="enable-background:new 0 0 512 512;" xml:space="preserve">
<g>
	<g>
		<path d="M361.5,140.1H50.7l43.5-43.7c5.8-5.9,5.8-15.4,0-21.2c-5.9-5.8-15.4-5.8-21.2,0L4.4,144.1c-3,3-4.4,6.9-4.4,10.8
			c0,0.1,0,0.1,0,0.2c0,5.2,2.6,9.8,6.7,12.5L73,234.2c5.8,5.9,15.3,5.9,21.2,0c5.9-5.8,5.9-15.3,0-21.2l-42.7-42.9h310
			c66.4,0,120.5,54.1,120.5,120.5s-54.1,120.5-120.5,120.5H115c-8.3,0-15,6.7-15,15s6.7,15,15,15h246.5c83,0,150.5-67.5,150.5-150.5
			S444.5,140.1,361.5,140.1z"/>
	</g>
</g>
</svg>
