<svg width="15" height="15" viewBox="0 0 15 15" fill="none" xmlns="http://www.w3.org/2000/svg">
    <path d="M13.32 10.4402C12.3477 9.66519 11.361 9.19572 10.4006 9.96958L9.82721 10.4373C9.40765 10.7768 8.62757 12.3632 5.61152 9.12957C2.5961 5.90007 4.39053 5.39723 4.81071 5.06064L5.38729 4.59234C6.34261 3.81672 5.98209 2.84032 5.29308 1.83523L4.87729 1.22644C4.18514 0.223698 3.43145 -0.434847 2.47362 0.339602L1.95608 0.761071C1.53275 1.04849 0.349445 1.98275 0.0624109 3.7576C-0.283034 5.88719 0.806689 8.32585 3.30332 11.0016C5.7968 13.6785 8.23816 15.0231 10.5508 14.9997C12.4727 14.9804 13.6334 14.0192 13.9964 13.6697L14.5158 13.2477C15.4712 12.4738 14.8776 11.6859 13.9047 10.9091L13.32 10.4402Z"
          fill="#434D54"/>
</svg>
