<svg width="18" height="18" viewBox="0 0 18 18" fill="none" xmlns="http://www.w3.org/2000/svg">
<path d="M15 12.4898C14.2875 12.4898 13.63 12.7194 13.115 13.1028L7.935 9.66122C8.02174 9.22401 8.02174 8.77599 7.935 8.33878L13.115 4.89719C13.63 5.28061 14.2875 5.5102 15 5.5102C16.655 5.5102 18 4.275 18 2.7551C18 1.2352 16.655 0 15 0C13.345 0 12 1.2352 12 2.7551C12 3.02143 12.04 3.27628 12.1175 3.51964L7.1975 6.79133C6.4675 5.90281 5.3075 5.32653 4 5.32653C1.79 5.32653 0 6.97041 0 9C0 11.0296 1.79 12.6735 4 12.6735C5.3075 12.6735 6.4675 12.0972 7.1975 11.2087L12.1175 14.4804C12.04 14.7237 12 14.9809 12 15.2449C12 16.7648 13.345 18 15 18C16.655 18 18 16.7648 18 15.2449C18 13.725 16.655 12.4898 15 12.4898ZM15 1.56122C15.7175 1.56122 16.3 2.09617 16.3 2.7551C16.3 3.41403 15.7175 3.94898 15 3.94898C14.2825 3.94898 13.7 3.41403 13.7 2.7551C13.7 2.09617 14.2825 1.56122 15 1.56122ZM4 11.0204C2.7875 11.0204 1.8 10.1135 1.8 9C1.8 7.88648 2.7875 6.97959 4 6.97959C5.2125 6.97959 6.2 7.88648 6.2 9C6.2 10.1135 5.2125 11.0204 4 11.0204ZM15 16.4388C14.2825 16.4388 13.7 15.9038 13.7 15.2449C13.7 14.586 14.2825 14.051 15 14.051C15.7175 14.051 16.3 14.586 16.3 15.2449C16.3 15.9038 15.7175 16.4388 15 16.4388Z" fill="#434D54"/>
</svg>
