<svg width="15" height="15" viewBox="0 0 15 15" fill="none" xmlns="http://www.w3.org/2000/svg">
<path d="M14.9925 4.94266L14.3634 8.70059C14.2859 9.11571 13.9683 9.36812 13.602 9.37286H4.43125L4.24917 10.4416H12.9895C13.4497 10.4781 13.7619 10.8176 13.7675 11.2518C13.7341 11.7301 13.4081 12.0561 12.9895 12.062H3.32216C2.79932 12.013 2.48756 11.579 2.54414 11.0967L2.95797 8.75227L2.32894 2.16727L0.541149 1.58121C0.104261 1.40057 -0.0740513 0.989 0.0279862 0.564154C0.197649 0.121384 0.604186 -0.0809125 1.00465 0.0297704L3.28905 0.788254C3.5968 0.908387 3.77384 1.17072 3.81876 1.47779L3.95119 2.78789L14.3138 3.99456C14.7899 4.10196 15.0484 4.49469 14.9925 4.94266ZM5.6909 13.7632C5.6909 14.4462 5.15915 15 4.50317 15C3.84721 15 3.31546 14.4462 3.31546 13.7632C3.31546 13.0801 3.84722 12.5263 4.50317 12.5263C5.15914 12.5263 5.6909 13.0801 5.6909 13.7632ZM12.7816 13.7632C12.7816 14.4462 12.2498 15 11.5938 15C10.9379 15 10.4061 14.4462 10.4061 13.7632C10.4061 13.0801 10.9379 12.5263 11.5938 12.5263C12.2498 12.5263 12.7816 13.0801 12.7816 13.7632Z" fill="#434D54"/>
</svg>
