<?xml version="1.0" encoding="utf-8"?>
<!-- Generator: Adobe Illustrator 22.0.1, SVG Export Plug-In . SVG Version: 6.00 Build 0)  -->
<svg version="1.1" id="Слой_1" xmlns="http://www.w3.org/2000/svg" xmlns:xlink="http://www.w3.org/1999/xlink" x="0px" y="0px"
	 viewBox="0 0 16 19" style="enable-background:new 0 0 16 19;" xml:space="preserve">
<style type="text/css">
	.st0{fill:#434D54;}
</style>
<g>
	<path class="st0" d="M8,19c-0.2,0-0.4-0.1-0.6-0.2C7.1,18.6,0,13.8,0,8c0-2.1,0.8-4.1,2.3-5.6S5.8,0,8,0c2.1,0,4.1,0.8,5.6,2.3
		c1.5,1.5,2.3,3.5,2.3,5.6c0,5.9-7.1,10.7-7.4,10.9C8.3,18.9,8.1,19,8,19z M8,2C6.4,2,4.9,2.6,3.7,3.7C2.6,4.9,2,6.4,2,8
		c0,4,4.4,7.6,6,8.8c1.6-1.2,6-4.9,6-8.8c0-1.6-0.6-3.1-1.7-4.2C11.1,2.6,9.5,2,8,2z"/>
</g>
<g>
	<path class="st0" d="M8,11.3c-1.8,0-3.3-1.5-3.3-3.3S6.1,4.6,8,4.6s3.3,1.5,3.3,3.3S9.8,11.3,8,11.3z M8,6.6C7.2,6.6,6.6,7.2,6.6,8
		c0,0.7,0.6,1.3,1.3,1.3c0.7,0,1.3-0.6,1.3-1.3C9.3,7.2,8.7,6.6,8,6.6z"/>
</g>
</svg>
