<svg width="10" height="7" viewBox="0 0 10 7" fill="none" xmlns="http://www.w3.org/2000/svg">
<path d="M3.94311 7C3.84461 7.0002 3.74704 6.98041 3.656 6.94174C3.56496 6.90307 3.48224 6.84629 3.41259 6.77467L0.229458 3.50046C0.157741 3.42933 0.100518 3.34422 0.0611276 3.2501C0.0217373 3.15599 0.000968625 3.05474 3.30807e-05 2.95228C-0.000902464 2.84982 0.0180141 2.7482 0.0556789 2.65333C0.0933436 2.55847 0.149002 2.47227 0.219408 2.39977C0.289813 2.32726 0.373554 2.2699 0.465746 2.23104C0.557938 2.19217 0.656734 2.17257 0.756369 2.17339C0.856005 2.17421 0.954484 2.19542 1.04606 2.2358C1.13764 2.27617 1.22048 2.3349 1.28975 2.40855L3.94236 5.13641L8.71856 0.226257C8.85927 0.0814595 9.05014 7.24066e-05 9.2492 4.82895e-08C9.44825 -7.23101e-05 9.63918 0.0811758 9.77998 0.225871C9.92079 0.370566 9.99993 0.566855 10 0.771556C10.0001 0.976258 9.92106 1.1726 9.78036 1.3174L4.47364 6.77467C4.40398 6.84629 4.32127 6.90307 4.23022 6.94174C4.13918 6.98041 4.04161 7.0002 3.94311 7Z" fill="white"/>
</svg>
