<svg width="22" height="18" viewBox="0 0 22 18" fill="none" xmlns="http://www.w3.org/2000/svg">
<path d="M12.3688 0C9.98981 0 7.70823 0.948211 6.02601 2.63604C4.34379 4.32387 3.39872 6.61305 3.39872 9H0.408691L4.28577 12.89L4.35554 13.03L8.38211 9H5.39208C5.39208 5.13 8.51168 2 12.3688 2C16.226 2 19.3456 5.13 19.3456 9C19.3456 12.87 16.226 16 12.3688 16C10.4452 16 8.70105 15.21 7.44524 13.94L6.02995 15.36C6.8606 16.198 7.84838 16.8627 8.93633 17.3158C10.0243 17.769 11.1909 18.0015 12.3688 18C14.7478 18 17.0294 17.0518 18.7116 15.364C20.3939 13.6761 21.3389 11.3869 21.3389 9C21.3389 6.61305 20.3939 4.32387 18.7116 2.63604C17.0294 0.948211 14.7478 3.55683e-08 12.3688 0ZM11.3721 5V10L15.608 12.52L16.3755 11.24L12.8672 9.15V5H11.3721Z" fill="#434D54"/>
</svg>
