<svg xmlns="http://www.w3.org/2000/svg" style="display: none;">



    <symbol id="icon-phone" viewBox="0 0 15 15">
        <path d="M13.32 10.4402C12.3477 9.66519 11.361 9.19572 10.4006 9.96958L9.82721 10.4373C9.40765 10.7768 8.62757 12.3632 5.61152 9.12957C2.5961 5.90007 4.39053 5.39723 4.81071 5.06064L5.38729 4.59234C6.34261 3.81672 5.98209 2.84032 5.29308 1.83523L4.87729 1.22644C4.18514 0.223698 3.43145 -0.434847 2.47362 0.339602L1.95608 0.761071C1.53275 1.04849 0.349445 1.98275 0.0624109 3.7576C-0.283034 5.88719 0.806689 8.32585 3.30332 11.0016C5.7968 13.6785 8.23816 15.0231 10.5508 14.9997C12.4727 14.9804 13.6334 14.0192 13.9964 13.6697L14.5158 13.2477C15.4712 12.4738 14.8776 11.6859 13.9047 10.9091L13.32 10.4402Z"/>
    </symbol>

    <symbol id="icon-user" viewBox="0 0 15 15">
        <path d="M7.5 0C9.57187 0 11.25 1.67812 11.25 3.75C11.25 5.82188 9.57187 7.5 7.5 7.5C5.42812 7.5 3.75 5.82188 3.75 3.75C3.75 1.67812 5.42812 0 7.5 0ZM7.5 15C7.5 15 15 15 15 13.125C15 10.875 11.3438 8.4375 7.5 8.4375C3.65625 8.4375 0 10.875 0 13.125C0 15 7.5 15 7.5 15Z"/>

    </symbol>

    <symbol id="icon-user-outline" viewBox="0 0 18 18">
        <path d="M9,18L9,18c0,0-0.1,0-0.1,0l-0.3,0c-0.2,0-0.6,0-1,0c-0.8,0-1.9-0.1-3.1-0.2c-1.3-0.2-2.3-0.4-3.1-0.7
		c-0.4-0.2-0.8-0.4-1-0.6c0,0-0.1-0.1-0.1-0.1c0,0,0,0,0,0c0,0-0.1-0.1-0.1-0.1C0,16-0.1,15.7,0,15.4c0.2-1.2,1.1-2.4,2.7-3.5
		c1.8-1.1,4-1.8,6.2-1.8s4.4,0.7,6.2,1.8c1.6,1,2.6,2.3,2.7,3.5c0.1,0.3,0,0.6-0.2,0.9c0,0,0,0,0,0.1c0,0,0,0,0,0
		c0,0-0.1,0.1-0.1,0.1c-0.2,0.2-0.6,0.4-1,0.6c-0.8,0.3-1.8,0.5-3.1,0.7c-1.2,0.1-2.3,0.2-3.1,0.2c-0.4,0-0.8,0-1,0L9,18z M2.2,15.2
		c0.6,0.2,1.5,0.4,2.6,0.5c1.1,0.1,2.2,0.2,2.9,0.2c0.4,0,0.7,0,1,0L9,16l0.3,0c0.2,0,0.6,0,1,0c0.7,0,1.8-0.1,2.9-0.2
		c1.1-0.1,2-0.3,2.6-0.5c-0.2-0.4-0.7-1-1.7-1.6c-1.5-0.9-3.3-1.5-5.1-1.5s-3.7,0.5-5.1,1.5C2.9,14.2,2.4,14.8,2.2,15.2z M0,16L0,16
		L0,16z M9,9C6.5,9,4.5,7,4.5,4.5S6.5,0,9,0s4.5,2,4.5,4.5S11.4,9,9,9z M9,2C7.6,2,6.5,3.1,6.5,4.5S7.6,7,9,7s2.5-1.1,2.5-2.5
		S10.3,2,9,2z"/>
    </symbol>

    <symbol id="icon-basket" viewBox="0 0 15 15">
        <path d="M14.9925 4.94266L14.3634 8.70059C14.2859 9.11571 13.9683 9.36812 13.602 9.37286H4.43125L4.24917 10.4416H12.9895C13.4497 10.4781 13.7619 10.8176 13.7675 11.2518C13.7341 11.7301 13.4081 12.0561 12.9895 12.062H3.32216C2.79932 12.013 2.48756 11.579 2.54414 11.0967L2.95797 8.75227L2.32894 2.16727L0.541149 1.58121C0.104261 1.40057 -0.0740513 0.989 0.0279862 0.564154C0.197649 0.121384 0.604186 -0.0809125 1.00465 0.0297704L3.28905 0.788254C3.5968 0.908387 3.77384 1.17072 3.81876 1.47779L3.95119 2.78789L14.3138 3.99456C14.7899 4.10196 15.0484 4.49469 14.9925 4.94266ZM5.6909 13.7632C5.6909 14.4462 5.15915 15 4.50317 15C3.84721 15 3.31546 14.4462 3.31546 13.7632C3.31546 13.0801 3.84722 12.5263 4.50317 12.5263C5.15914 12.5263 5.6909 13.0801 5.6909 13.7632ZM12.7816 13.7632C12.7816 14.4462 12.2498 15 11.5938 15C10.9379 15 10.4061 14.4462 10.4061 13.7632C10.4061 13.0801 10.9379 12.5263 11.5938 12.5263C12.2498 12.5263 12.7816 13.0801 12.7816 13.7632Z"/>
    </symbol>

    <symbol id="icon-search" viewBox="0 0 15 15">
        <path d="M14.824 13.9178L10.6522 9.70691C11.4686 8.68349 11.9608 7.38663 11.9608 5.97649C11.9608 2.67575 9.28504 0 5.9804 0C2.67575 0 0 2.67965 0 5.9804C0 9.28114 2.67575 11.9569 5.9804 11.9569C7.41007 11.9569 8.71864 11.4569 9.74988 10.621L13.8944 14.8045C14.0194 14.9373 14.1912 15.0037 14.3592 15.0037C14.5194 15.0037 14.6795 14.9451 14.8006 14.8279C15.0584 14.5819 15.0662 14.1756 14.824 13.9178ZM5.9804 10.6717C4.7265 10.6717 3.54683 10.1835 2.66012 9.29676C1.77342 8.41005 1.28514 7.23038 1.28514 5.9804C1.28514 4.7265 1.77342 3.54683 2.66012 2.66403C3.54683 1.77732 4.7265 1.28905 5.9804 1.28905C7.23429 1.28905 8.41396 1.77732 9.30067 2.66403C10.1874 3.55074 10.6756 4.73041 10.6756 5.9804C10.6756 7.23429 10.1874 8.41396 9.30067 9.29676C8.41396 10.1835 7.23429 10.6717 5.9804 10.6717Z"/>

    </symbol>

    <symbol id="icon-hamburger" viewBox="0 0 20 15">
        <path d="M0 1.5C0 0.671573 0.671573 0 1.5 0H18.5C19.3284 0 20 0.671573 20 1.5C20 2.32843 19.3284 3 18.5 3H1.5C0.671573 3 0 2.32843 0 1.5Z"/>
        <path d="M0 7.5C0 6.67157 0.671573 6 1.5 6H18.5C19.3284 6 20 6.67157 20 7.5C20 8.32843 19.3284 9 18.5 9H1.5C0.671573 9 0 8.32843 0 7.5Z"/>
        <path d="M0 13.5C0 12.6716 0.671573 12 1.5 12H18.5C19.3284 12 20 12.6716 20 13.5C20 14.3284 19.3284 15 18.5 15H1.5C0.671573 15 0 14.3284 0 13.5Z"/>
    </symbol>

    <symbol id="icon-arrow-left" viewBox="0 0 7 11">
        <path d="M7 1.2925L2.67341 5.5L7 9.7075L5.66802 11L0 5.5L5.66802 0L7 1.2925Z"/>
    </symbol>

    <symbol id="icon-arrow-bottom" viewBox="0 0 12 8">
        <path d="M1.41 0L6 4.58L10.59 0L12 1.41L6 7.41L0 1.41L1.41 0Z"/>
    </symbol>

    <symbol id="icon-arrow-right-double" viewBox="0 0 18 11">
        <path d="M11 1.2925L15.3266 5.5L11 9.7075L12.332 11L18 5.5L12.332 0L11 1.2925Z"/>
        <path d="M0 1.2925L4.32659 5.5L0 9.7075L1.33198 11L7 5.5L1.33198 0L0 1.2925Z"/>
    </symbol>

    <symbol id="icon-arrow-up" viewBox="0 0 12 8">
        <path d="M10.59 7.41016L6 2.83016L1.41 7.41016L0 6.00016L6 0.000156403L12 6.00016L10.59 7.41016Z"/>
    </symbol>

    <symbol id="icon-heart" viewBox="0 0 22 18">
        <path d="M10.119 3.2356L10.9635 4.56705L11.8079 3.2356C12.6706 1.87543 14.1955 1 15.9468 1C18.6805 1 20.9269 3.24914 20.9269 6C20.9269 7.20012 20.3734 8.49332 19.4065 9.81617C18.4472 11.1287 17.1464 12.3806 15.8107 13.4771C14.4799 14.5695 13.1441 15.4837 12.1383 16.1259C11.6572 16.4331 11.2537 16.6767 10.9653 16.8463C10.6768 16.6754 10.2728 16.4299 9.79083 16.1203C8.78473 15.4741 7.44852 14.5551 6.11728 13.4592C4.78111 12.3593 3.47971 11.1054 2.51991 9.79443C1.55204 8.47242 1 7.18598 1 6C1 3.24914 3.24645 1 5.98007 1C7.73142 1 9.2563 1.87543 10.119 3.2356Z"/>
    </symbol>

    <symbol id="icon-triangle" viewBox="0 0 9 6">
        <path d="M8.57143 0L4.25357 5.54067L0 0H8.57143Z"/>
    </symbol>

    <symbol id="icon-plus" viewBox="0 0 16 15">
        <path d="M7.69824 8.05957H14.5093V8.81006H7.69824V15.9326H6.91943V8.81006H0.377441V8.05957H6.91943V0.922852H7.69824V8.05957Z"/>
    </symbol>

    <symbol id="icon-minus" viewBox="0 0 7 1">
        <path d="M6.71436 0.95166H0.059082V0.187012H6.71436V0.95166Z"/>
    </symbol>

    <symbol id="icon-plus-catalog" viewBox="0 0 14 14">
        <path d="M7.4635 6.50778H13.4635V7.50778H7.4635V13.5078H6.4635V7.50778H0.463501V6.50778H6.4635V0.505798H7.4635V6.50778Z"/>
    </symbol>

    <symbol id="icon-minus-catalog" viewBox="0 0 14 2">
        <path d="M7.4635 0.506805H13.4635V1.50681H7.4635H6.4635H0.463501V0.506805H6.4635H7.4635Z"/>
    </symbol>


    <symbol id="icon-catalog" viewBox="0 0 18 18">
        <path d="M15.2657 9.9V16.2H2.70759V3.6H7.21058C7.25543 2.961 7.40793 2.358 7.64115 1.8H2.70759C1.72088 1.8 0.913574 2.61 0.913574 3.6V16.2C0.913574 17.19 1.72088 18 2.70759 18H15.2657C16.2524 18 17.0598 17.19 17.0598 16.2V11.7L15.2657 9.9ZM13.9202 14.4H4.05311L6.51989 11.223L8.27803 13.347L10.7448 10.161L13.9202 14.4ZM16.4318 6.201C16.8265 5.571 17.0598 4.842 17.0598 4.05C17.0598 1.809 15.2568 0 13.0232 0C10.7897 0 8.98666 1.809 8.98666 4.05C8.98666 6.291 10.7897 8.1 13.0142 8.1C13.8036 8.1 14.5392 7.866 15.1581 7.47L17.9568 10.278L19.2305 9L16.4318 6.201ZM13.0232 6.3C12.4285 6.3 11.8581 6.06295 11.4375 5.64099C11.0169 5.21903 10.7807 4.64674 10.7807 4.05C10.7807 3.45326 11.0169 2.88097 11.4375 2.45901C11.8581 2.03705 12.4285 1.8 13.0232 1.8C13.618 1.8 14.1884 2.03705 14.6089 2.45901C15.0295 2.88097 15.2657 3.45326 15.2657 4.05C15.2657 4.64674 15.0295 5.21903 14.6089 5.64099C14.1884 6.06295 13.618 6.3 13.0232 6.3Z" />
    </symbol>

    <symbol id="icon-time" viewBox="0 0 20 18">
        <path d="M12.3688 0C9.98981 0 7.70823 0.948211 6.02601 2.63604C4.34379 4.32387 3.39872 6.61305 3.39872 9H0.408691L4.28577 12.89L4.35554 13.03L8.38211 9H5.39208C5.39208 5.13 8.51168 2 12.3688 2C16.226 2 19.3456 5.13 19.3456 9C19.3456 12.87 16.226 16 12.3688 16C10.4452 16 8.70105 15.21 7.44524 13.94L6.02995 15.36C6.8606 16.198 7.84838 16.8627 8.93633 17.3158C10.0243 17.769 11.1909 18.0015 12.3688 18C14.7478 18 17.0294 17.0518 18.7116 15.364C20.3939 13.6761 21.3389 11.3869 21.3389 9C21.3389 6.61305 20.3939 4.32387 18.7116 2.63604C17.0294 0.948211 14.7478 3.55683e-08 12.3688 0ZM11.3721 5V10L15.608 12.52L16.3755 11.24L12.8672 9.15V5H11.3721Z"/>
    </symbol>

    <symbol id="icon-point" viewBox="0 0 12 15">
        <path d="M5.6543 0C2.53152 0 0 2.53151 0 5.6543C0 6.69864 0.204412 7.77726 0.791012 8.55469L5.6543 15L10.5176 8.55469C11.0504 7.84856 11.3086 6.60024 11.3086 5.6543C11.3086 2.53151 8.77707 0 5.6543 0ZM5.6543 3.27484C6.96825 3.27484 8.03375 4.34035 8.03375 5.65429C8.03375 6.96825 6.96825 8.03375 5.6543 8.03375C4.34035 8.03375 3.27485 6.96825 3.27485 5.6543C3.27485 4.34035 4.34035 3.27484 5.6543 3.27484Z"/>

    </symbol>

    <symbol id="icon-close" viewBox="0 0 12 11">
        <path d="M12 1.2925L7.67341 5.5L12 9.7075L10.668 11L5 5.5L10.668 0L12 1.2925Z"/>
        <path d="M0 1.2925L4.32659 5.5L0 9.7075L1.33198 11L7 5.5L1.33198 0L0 1.2925Z"/>
    </symbol>

    <symbol id="icon-share" viewBox="0 0 18 18">
        <path d="M15 12.4898C14.2875 12.4898 13.63 12.7194 13.115 13.1028L7.935 9.66122C8.02174 9.22401 8.02174 8.77599 7.935 8.33878L13.115 4.89719C13.63 5.28061 14.2875 5.5102 15 5.5102C16.655 5.5102 18 4.275 18 2.7551C18 1.2352 16.655 0 15 0C13.345 0 12 1.2352 12 2.7551C12 3.02143 12.04 3.27628 12.1175 3.51964L7.1975 6.79133C6.4675 5.90281 5.3075 5.32653 4 5.32653C1.79 5.32653 0 6.97041 0 9C0 11.0296 1.79 12.6735 4 12.6735C5.3075 12.6735 6.4675 12.0972 7.1975 11.2087L12.1175 14.4804C12.04 14.7237 12 14.9809 12 15.2449C12 16.7648 13.345 18 15 18C16.655 18 18 16.7648 18 15.2449C18 13.725 16.655 12.4898 15 12.4898ZM15 1.56122C15.7175 1.56122 16.3 2.09617 16.3 2.7551C16.3 3.41403 15.7175 3.94898 15 3.94898C14.2825 3.94898 13.7 3.41403 13.7 2.7551C13.7 2.09617 14.2825 1.56122 15 1.56122ZM4 11.0204C2.7875 11.0204 1.8 10.1135 1.8 9C1.8 7.88648 2.7875 6.97959 4 6.97959C5.2125 6.97959 6.2 7.88648 6.2 9C6.2 10.1135 5.2125 11.0204 4 11.0204ZM15 16.4388C14.2825 16.4388 13.7 15.9038 13.7 15.2449C13.7 14.586 14.2825 14.051 15 14.051C15.7175 14.051 16.3 14.586 16.3 15.2449C16.3 15.9038 15.7175 16.4388 15 16.4388Z"/>
    </symbol>

    <symbol id="icon-trash-bin" viewBox="0 0 15 18">
        <path d="M4.53125 1.62H4.375C4.46094 1.62 4.53125 1.539 4.53125 1.44V1.62H10.4688V1.44C10.4688 1.539 10.5391 1.62 10.625 1.62H10.4688V3.24H11.875V1.44C11.875 0.64575 11.3145 0 10.625 0H4.375C3.68555 0 3.125 0.64575 3.125 1.44V3.24H4.53125V1.62ZM14.375 3.24H0.625C0.279297 3.24 0 3.56175 0 3.96V4.68C0 4.779 0.0703125 4.86 0.15625 4.86H1.33594L1.81836 16.6275C1.84961 17.3948 2.40039 18 3.06641 18H11.9336C12.6016 18 13.1504 17.397 13.1816 16.6275L13.6641 4.86H14.8438C14.9297 4.86 15 4.779 15 4.68V3.96C15 3.56175 14.7207 3.24 14.375 3.24ZM11.7832 16.38H3.2168L2.74414 4.86H12.2559L11.7832 16.38Z"/>
    </symbol>

    <symbol id="icon-card" viewBox="0 0 16 12">
        <path d="M14.25 0H1.58333C0.704583 0 0.00791666 0.6675 0.00791666 1.5L0 10.5C0 11.3325 0.704583 12 1.58333 12H14.25C15.1288 12 15.8333 11.3325 15.8333 10.5V1.5C15.8333 0.6675 15.1288 0 14.25 0ZM14.25 10.5H1.58333V6H14.25V10.5ZM14.25 3H1.58333V1.5H14.25V3Z"/>
    </symbol>

    <symbol id="icon-pencil" viewBox="0 0 21 17">
        <path d="M20,17h-9c-0.6,0-1-0.4-1-1s0.4-1,1-1h9c0.6,0,1,0.4,1,1S20.6,17,20,17z"/>
        <path d="M1,17c-0.3,0-0.5-0.1-0.7-0.3c-0.3-0.2-0.4-0.6-0.3-0.9l0.8-3.5c0-0.2,0.1-0.3,0.2-0.5l10.2-11
		c0.8-0.8,2-1.1,3-0.6c0.3,0.1,0.6,0.4,0.9,0.6c0.2,0.3,0.4,0.6,0.6,0.9C15.9,2.1,16,2.5,16,2.9s-0.1,0.7-0.2,1.1
		c-0.1,0.3-0.3,0.7-0.6,0.9L5,15.8c-0.1,0.1-0.3,0.2-0.5,0.3L1.3,17C1.2,17,1.1,17,1,17z M2.7,13l-0.4,1.6l1.4-0.4l10-10.7
		c0.1-0.1,0.1-0.2,0.2-0.3C14,3.1,14,3,14,2.9s0-0.2-0.1-0.4c0-0.1-0.1-0.2-0.2-0.3c-0.1-0.1-0.2-0.1-0.2-0.2
		c-0.3-0.1-0.6,0-0.8,0.2l0,0L2.7,13z M12,1.5L12,1.5L12,1.5z"/>

    </symbol>

    <symbol id="icon-point-outline" viewBox="0 0 16 19">
        <path d="M8,19c-0.2,0-0.4-0.1-0.6-0.2C7.1,18.6,0,13.8,0,8c0-2.1,0.8-4.1,2.3-5.6S5.8,0,8,0c2.1,0,4.1,0.8,5.6,2.3
		c1.5,1.5,2.3,3.5,2.3,5.6c0,5.9-7.1,10.7-7.4,10.9C8.3,18.9,8.1,19,8,19z M8,2C6.4,2,4.9,2.6,3.7,3.7C2.6,4.9,2,6.4,2,8
		c0,4,4.4,7.6,6,8.8c1.6-1.2,6-4.9,6-8.8c0-1.6-0.6-3.1-1.7-4.2C11.1,2.6,9.5,2,8,2z"/>
        <path d="M8,11.3c-1.8,0-3.3-1.5-3.3-3.3S6.1,4.6,8,4.6s3.3,1.5,3.3,3.3S9.8,11.3,8,11.3z M8,6.6C7.2,6.6,6.6,7.2,6.6,8
		c0,0.7,0.6,1.3,1.3,1.3c0.7,0,1.3-0.6,1.3-1.3C9.3,7.2,8.7,6.6,8,6.6z"/>

    </symbol>

    <symbol id="icon-exit" viewBox="0 0 18 18">
        <path d="M7.79 13.29C8.18 13.68 8.81 13.68 9.2 13.29L12.79 9.7C12.8827 9.60749 12.9563 9.4976 13.0064 9.37662C13.0566 9.25565 13.0824 9.12597 13.0824 8.995C13.0824 8.86403 13.0566 8.73435 13.0064 8.61338C12.9563 8.4924 12.8827 8.38251 12.79 8.29L9.2 4.7C9.01302 4.51302 8.75943 4.40798 8.495 4.40798C8.23057 4.40798 7.97698 4.51302 7.79 4.7C7.60302 4.88698 7.49798 5.14057 7.49798 5.405C7.49798 5.66943 7.60302 5.92302 7.79 6.11L9.67 8H1C0.45 8 0 8.45 0 9C0 9.55 0.45 10 1 10H9.67L7.79 11.88C7.4 12.27 7.41 12.91 7.79 13.29ZM16 0H2C1.46957 0 0.960859 0.210714 0.585786 0.585786C0.210714 0.960859 0 1.46957 0 2V5C0 5.55 0.45 6 1 6C1.55 6 2 5.55 2 5V3C2 2.45 2.45 2 3 2H15C15.55 2 16 2.45 16 3V15C16 15.55 15.55 16 15 16H3C2.45 16 2 15.55 2 15V13C2 12.45 1.55 12 1 12C0.45 12 0 12.45 0 13V16C0 17.1 0.9 18 2 18H16C17.1 18 18 17.1 18 16V2C18 0.9 17.1 0 16 0Z"/>

    </symbol>


    <symbol id="icon-small-car" viewBox="0 0 20 15">
        <path d="M17 5.00001H16.68L15.43 1.88001C15.2068 1.32527 14.8228 0.849898 14.3275 0.514916C13.8321 0.179935 13.248 0.000628704 12.65 1.22978e-05H6.65C5.95529 -0.00197605 5.28142 0.237203 4.74342 0.676725C4.20541 1.11625 3.83662 1.72886 3.7 2.41001L3.18 5.00001H3C2.20435 5.00001 1.44129 5.31608 0.87868 5.87869C0.316071 6.4413 0 7.20436 0 8.00001V11C0 11.2652 0.105357 11.5196 0.292893 11.7071C0.48043 11.8947 0.734784 12 1 12H2C2 12.7957 2.31607 13.5587 2.87868 14.1213C3.44129 14.6839 4.20435 15 5 15C5.79565 15 6.55871 14.6839 7.12132 14.1213C7.68393 13.5587 8 12.7957 8 12H12C12 12.7957 12.3161 13.5587 12.8787 14.1213C13.4413 14.6839 14.2044 15 15 15C15.7956 15 16.5587 14.6839 17.1213 14.1213C17.6839 13.5587 18 12.7957 18 12H19C19.2652 12 19.5196 11.8947 19.7071 11.7071C19.8946 11.5196 20 11.2652 20 11V8.00001C20 7.20436 19.6839 6.4413 19.1213 5.87869C18.5587 5.31608 17.7956 5.00001 17 5.00001ZM11 2.00001H12.65C12.8486 2.00181 13.0421 2.06269 13.206 2.17488C13.3698 2.28708 13.4965 2.44552 13.57 2.63001L14.52 5.00001H11V2.00001ZM5.66 2.80001C5.70675 2.57074 5.83242 2.36511 6.01514 2.21894C6.19786 2.07277 6.42605 1.99529 6.66 2.00001H9V5.00001H5.22L5.66 2.80001ZM5 13C4.80222 13 4.60888 12.9414 4.44443 12.8315C4.27998 12.7216 4.15181 12.5654 4.07612 12.3827C4.00043 12.2 3.98063 11.9989 4.01921 11.8049C4.0578 11.6109 4.15304 11.4328 4.29289 11.2929C4.43275 11.1531 4.61093 11.0578 4.80491 11.0192C4.99889 10.9806 5.19996 11.0004 5.38268 11.0761C5.56541 11.1518 5.72159 11.28 5.83147 11.4444C5.94135 11.6089 6 11.8022 6 12C6 12.2652 5.89464 12.5196 5.70711 12.7071C5.51957 12.8947 5.26522 13 5 13ZM15 13C14.8022 13 14.6089 12.9414 14.4444 12.8315C14.28 12.7216 14.1518 12.5654 14.0761 12.3827C14.0004 12.2 13.9806 11.9989 14.0192 11.8049C14.0578 11.6109 14.153 11.4328 14.2929 11.2929C14.4327 11.1531 14.6109 11.0578 14.8049 11.0192C14.9989 10.9806 15.2 11.0004 15.3827 11.0761C15.5654 11.1518 15.7216 11.28 15.8315 11.4444C15.9414 11.6089 16 11.8022 16 12C16 12.2652 15.8946 12.5196 15.7071 12.7071C15.5196 12.8947 15.2652 13 15 13ZM18 10H17.22C16.9388 9.69066 16.5961 9.44348 16.2138 9.27434C15.8315 9.1052 15.418 9.01783 15 9.01783C14.582 9.01783 14.1685 9.1052 13.7862 9.27434C13.4039 9.44348 13.0612 9.69066 12.78 10H7.22C6.93882 9.69066 6.59609 9.44348 6.21378 9.27434C5.83148 9.1052 5.41805 9.01783 5 9.01783C4.58195 9.01783 4.16852 9.1052 3.78622 9.27434C3.40391 9.44348 3.06118 9.69066 2.78 10H2V8.00001C2 7.7348 2.10536 7.48044 2.29289 7.29291C2.48043 7.10537 2.73478 7.00001 3 7.00001H17C17.2652 7.00001 17.5196 7.10537 17.7071 7.29291C17.8946 7.48044 18 7.7348 18 8.00001V10Z"/>
    </symbol>

    <symbol id="icon-big-car" viewBox="0 0 512 371.4">
        <path d="M507.6,141l-80.3-80.3c-2.8-2.8-6.6-4.4-10.6-4.4h-65.3v-1.1c0-30.4-24.7-55.2-55.2-55.2h-241C24.7,0,0,24.7,0,55.2V256
	c0,30.4,24.7,55.2,55.2,55.2h10.6c7,34.3,37.4,60.3,73.7,60.3c36.4,0,66.8-25.9,73.7-60.3h85.5c7,34.3,37.4,60.3,73.7,60.3
	s66.8-25.9,73.7-60.3H497c8.3,0,15-6.7,15-15V151.6C512,147.6,510.4,143.8,507.6,141z M410.5,86.2l50.3,50.3H351.3V86.2H410.5z
	 M30,256V55.2C30,41.3,41.3,30,55.2,30h241c13.9,0,25.2,11.3,25.2,25.2V241c-11.3,10.5-19.4,24.4-22.6,40.1h-85.5
	c-7-34.3-37.4-60.3-73.7-60.3s-66.8,25.9-73.7,60.3H55.2C41.3,281.2,30,269.9,30,256z M139.5,341.4c-24.9,0-45.2-20.3-45.2-45.3
	c0-24.9,20.3-45.3,45.2-45.3c25,0,45.3,20.3,45.3,45.3C184.8,321.1,164.5,341.4,139.5,341.4z M372.5,341.4
	c-25,0-45.3-20.3-45.3-45.3c0-24.9,20.3-45.3,45.3-45.3c24.9,0,45.3,20.3,45.3,45.3C417.7,321.1,397.4,341.4,372.5,341.4z
	 M446.2,281.2c-7-34.3-37.4-60.3-73.7-60.3c-7.3,0-14.4,1.1-21.2,3.1v-57.4H482v114.6L446.2,281.2L446.2,281.2z"/>

    </symbol>


    <symbol id="icon-rouble" viewBox="0 0 9 13">
        <path d="M1.86207 12.6985H3.10345V10.4576H6.82759V8.96364H3.10345V7.4697H5.89655C7.60779 7.4697 9 5.79424 9 3.73485C9 1.67545 7.60779 0 5.89655 0H2.48276C2.31814 0 2.16027 0.0786985 2.04386 0.218783C1.92746 0.358867 1.86207 0.548861 1.86207 0.74697V5.97576H0V7.4697H1.86207V8.96364H0V10.4576H1.86207V12.6985ZM3.10345 1.49394H5.89655C6.92317 1.49394 7.75862 2.49936 7.75862 3.73485C7.75862 4.97034 6.92317 5.97576 5.89655 5.97576H3.10345V1.49394Z"/>
    </symbol>

    <symbol id="icon-undo" viewBox="0 0 512 512">
        <path d="M361.5,140.1H50.7l43.5-43.7c5.8-5.9,5.8-15.4,0-21.2c-5.9-5.8-15.4-5.8-21.2,0L4.4,144.1c-3,3-4.4,6.9-4.4,10.8c0,0.1,0,0.1,0,0.2c0,5.2,2.6,9.8,6.7,12.5L73,234.2c5.8,5.9,15.3,5.9,21.2,0c5.9-5.8,5.9-15.3,0-21.2l-42.7-42.9h310c66.4,0,120.5,54.1,120.5,120.5s-54.1,120.5-120.5,120.5H115c-8.3,0-15,6.7-15,15s6.7,15,15,15h246.5c83,0,150.5-67.5,150.5-150.5S444.5,140.1,361.5,140.1z"/>
    </symbol>

    <symbol id="icon-laptop" viewBox="0 0 512 384">
        <path d="M511.79,329.6a9.19,9.19,0,0,0-.39-1.86,10.81,10.81,0,0,0-.89-2.19c-.15-.26-.17-.56-.32-.79l-40.86-61.29V42.67A42.71,42.71,0,0,0,426.67,0H85.33A42.71,42.71,0,0,0,42.67,42.67V263.45L1.79,324.76a7.25,7.25,0,0,0-.36.87,9.3,9.3,0,0,0-.83,2,9.55,9.55,0,0,0-.41,2c0,.34-.19.62-.19,1v10.66A42.72,42.72,0,0,0,42.67,384H469.33A42.72,42.72,0,0,0,512,341.33V330.67a8.81,8.81,0,0,0-.21-1.07M64,42.67A21.37,21.37,0,0,1,85.33,21.33H426.67A21.37,21.37,0,0,1,448,42.67V256H64ZM59,277.33h393.9L481.36,320h-172a10.58,10.58,0,0,0-7.51,3.12l-7.55,7.55h-76.5l-7.55-7.55a10.74,10.74,0,0,0-7.55-3.12H30.59Zm410.3,85.34H42.67a21.37,21.37,0,0,1-21.34-21.34H198.25l7.51,7.56a10.77,10.77,0,0,0,7.55,3.11h85.33a10.69,10.69,0,0,0,7.56-3.11l7.55-7.56H490.67a21.37,21.37,0,0,1-21.34,21.34"/>
    </symbol>
    <symbol id="icon-filter" viewBox="0 0 24 20">
        <path d="M23.6666 3.33333H20.2499C19.8333 1.41667 18.1666 0 16.1666 0C14.1666 0 12.4999 1.41667 12.0833 3.33333H0.333252V5H12.0833C12.4999 6.91667 14.1666 8.33333 16.1666 8.33333C18.1666 8.33333 19.8333 6.91667 20.2499 5H23.6666V3.33333ZM16.1666 6.66667C14.7499 6.66667 13.6666 5.58333 13.6666 4.16667C13.6666 2.75 14.7499 1.66667 16.1666 1.66667C17.5833 1.66667 18.6666 2.75 18.6666 4.16667C18.6666 5.58333 17.5833 6.66667 16.1666 6.66667Z"/>
        <path d="M0.333252 16.6667H3.74992C4.16659 18.5833 5.83325 20 7.83325 20C9.83325 20 11.4999 18.5833 11.9166 16.6667H23.6666V15H11.9166C11.4999 13.0833 9.83325 11.6667 7.83325 11.6667C5.83325 11.6667 4.16659 13.0833 3.74992 15H0.333252V16.6667ZM7.83325 13.3333C9.24992 13.3333 10.3333 14.4167 10.3333 15.8333C10.3333 17.25 9.24992 18.3333 7.83325 18.3333C6.41659 18.3333 5.33325 17.25 5.33325 15.8333C5.33325 14.4167 6.41659 13.3333 7.83325 13.3333Z"/>
    </symbol>
    <symbol id="icon-check" viewBox="0 0 29 25">
        <path d="M-0.000,7.000 L12.000,25.000 L29.000,-0.000 L12.000,12.000 L-0.000,7.000 Z"></path>
    </symbol>
    <symbol id="icon-subscribe" viewBox="0 0 21 19">
        <path d="M17.2857 14.4211H13.6667L10.9524 17.1053H10.0476L7.33336 14.4211H3.71431C3.23439 14.4211 2.77413 14.2325 2.43478 13.8969C2.09543 13.5613 1.90479 13.1062 1.90479 12.6316V3.68421C1.90479 3.20961 2.09543 2.75448 2.43478 2.41889C2.77413 2.0833 3.23439 1.89474 3.71431 1.89474H17.2857C17.7657 1.89474 18.2259 2.0833 18.5653 2.41889C18.9046 2.75448 19.0953 3.20961 19.0953 3.68421V12.6316C19.0953 13.1062 18.9046 13.5613 18.5653 13.8969C18.2259 14.2325 17.7657 14.4211 17.2857 14.4211Z"/>
    </symbol>

    <symbol id="icon-address-trash" viewBox="0 0 21 23">
        <path d="M20.3436 3.31003H15.5583V2.52981C15.5583 1.13487 14.4234 0 13.0285 0H8.47954C7.08459 0 5.94973 1.13487 5.94973 2.52981V3.31003H1.16436C0.809718 3.31003 0.526001 3.59375 0.526001 3.9484C0.526001 4.30304 0.809718 4.58676 1.16436 4.58676H2.31815V19.5859C2.31815 21.4679 3.85022 23 5.73221 23H15.7758C17.6578 23 19.1899 21.4679 19.1899 19.5859V4.58676H20.3436C20.6983 4.58676 20.982 4.30304 20.982 3.9484C20.982 3.59375 20.6983 3.31003 20.3436 3.31003ZM7.22645 2.52981C7.22645 1.83943 7.78916 1.27673 8.47954 1.27673H13.0285C13.7188 1.27673 14.2816 1.83943 14.2816 2.52981V3.31003H7.22645V2.52981ZM17.9131 19.5859C17.9131 20.7634 16.9532 21.7233 15.7758 21.7233H5.73221C4.55478 21.7233 3.59487 20.7634 3.59487 19.5859V4.58676H17.9179V19.5859H17.9131Z"/>
        <path d="M10.754 19.4346C11.1086 19.4346 11.3923 19.1509 11.3923 18.7962V7.51373C11.3923 7.15908 11.1086 6.87537 10.754 6.87537C10.3993 6.87537 10.1156 7.15908 10.1156 7.51373V18.7915C10.1156 19.1461 10.3993 19.4346 10.754 19.4346Z" fill="black"/>
        <path d="M6.58807 18.73C6.94272 18.73 7.22643 18.4463 7.22643 18.0917V8.21356C7.22643 7.85891 6.94272 7.5752 6.58807 7.5752C6.23342 7.5752 5.94971 7.85891 5.94971 8.21356V18.0917C5.94971 18.4463 6.23815 18.73 6.58807 18.73Z" fill="black"/>
        <path d="M14.9199 18.73C15.2745 18.73 15.5582 18.4463 15.5582 18.0917V8.21356C15.5582 7.85891 15.2745 7.5752 14.9199 7.5752C14.5652 7.5752 14.2815 7.85891 14.2815 8.21356V18.0917C14.2815 18.4463 14.5652 18.73 14.9199 18.73Z" fill="black"/>
    </symbol>
    <symbol id="icon-address-pencil" viewBox="0 0 23 24">
        <path d="M19.9119 1.64621C18.702 0.43629 16.7433 0.43629 15.5334 1.64621L14.4375 2.74703L2.7747 14.4098L2.74991 14.4346C2.74495 14.4396 2.74495 14.4495 2.73503 14.4495C2.72015 14.4693 2.70528 14.4842 2.6904 14.5041C2.6904 14.509 2.68544 14.509 2.68544 14.5189C2.67057 14.5388 2.66561 14.5487 2.65569 14.5685C2.65073 14.5735 2.65073 14.5784 2.64577 14.5884C2.64081 14.6082 2.6309 14.6181 2.62594 14.6379C2.62594 14.6429 2.62098 14.6429 2.62098 14.6528L0.03255 22.4379C-0.0418302 22.6611 0.0127153 22.9041 0.18131 23.0677C0.300319 23.1817 0.458996 23.2462 0.622633 23.2462C0.692054 23.2462 0.756517 23.2363 0.82098 23.2165L8.59619 20.6231C8.60114 20.6231 8.60115 20.6231 8.61106 20.6181C8.6309 20.6132 8.65073 20.6032 8.66561 20.5933C8.67057 20.5933 8.67553 20.5884 8.68048 20.5884C8.70032 20.5735 8.72511 20.5636 8.73999 20.5487C8.75982 20.5388 8.77966 20.5189 8.79453 20.5041C8.79949 20.4991 8.80445 20.4991 8.80445 20.4892C8.80941 20.4842 8.82429 20.4793 8.82924 20.4644L21.5929 7.70075C22.8028 6.49084 22.8028 4.53216 21.5929 3.32224L19.9119 1.64621ZM8.39784 19.1603L4.08875 14.8512L14.8739 4.06108L19.183 8.37018L8.39784 19.1603ZM3.47883 15.9966L7.24247 19.7603L1.58957 21.6446L3.47883 15.9966ZM20.7202 6.83298L20.0656 7.49745L15.7565 3.18836L16.421 2.52389C17.1449 1.79993 18.3202 1.79993 19.0441 2.52389L20.7301 4.20984C21.4441 4.93381 21.4441 6.10406 20.7202 6.83298Z"/>
    </symbol>
    <symbol id="icon-repeat" viewBox="0 0 19 20">
        <path d="M9.05955 0C7.83599 0 6.6645 0.240807 5.54507 0.722421C4.42564 1.20404 3.46241 1.84836 2.65539 2.65539C1.84836 3.46241 1.20404 4.42564 0.722421 5.54507C0.240807 6.6645 0 7.83599 0 9.05955C0 10.5955 0.364465 12.0306 1.09339 13.3648C1.82232 14.699 2.81809 15.7859 4.0807 16.6254C5.34331 17.465 6.7426 17.9499 8.27855 18.0801L6.48226 18.9977C6.36512 19.0498 6.28376 19.1344 6.2382 19.2515C6.19265 19.3687 6.20241 19.4858 6.26749 19.603L6.32607 19.7592C6.39115 19.8763 6.48552 19.9512 6.60918 19.9837C6.73283 20.0163 6.85324 20 6.97039 19.9349L9.9577 18.412V18.3924H9.97722L10.1725 18.2948C10.2115 18.2688 10.2441 18.2428 10.2701 18.2167C10.2961 18.1907 10.3189 18.1614 10.3384 18.1289C10.358 18.0963 10.3742 18.0605 10.3872 18.0215C10.4133 17.9043 10.3938 17.7872 10.3287 17.67L10.2115 17.4748L8.35665 14.5851C8.29157 14.481 8.1972 14.4094 8.07354 14.3703C7.94989 14.3313 7.82948 14.3443 7.71233 14.4094L7.57566 14.507C7.47153 14.5721 7.4097 14.6697 7.39017 14.7999C7.37065 14.93 7.39993 15.0472 7.47803 15.1513L8.5519 16.85C7.21119 16.7589 5.98113 16.3554 4.8617 15.6394C3.74227 14.9235 2.8604 13.9831 2.21608 12.8181C1.57175 11.6531 1.24959 10.4003 1.24959 9.05955C1.24959 8.00521 1.45786 6.99642 1.87439 6.03319C2.29092 5.06996 2.84738 4.2369 3.54377 3.53401C4.24016 2.83111 5.06996 2.27465 6.03319 1.86463C6.99642 1.4546 8.00521 1.24959 9.05955 1.24959C10.4784 1.24959 11.7898 1.59779 12.9938 2.29417C14.1979 2.99056 15.1481 3.94077 15.8445 5.14481C16.5408 6.34884 16.889 7.65376 16.889 9.05955C16.889 10.2961 16.6157 11.4611 16.069 12.5545C15.5223 13.6479 14.7543 14.5656 13.765 15.3075C13.6739 15.3726 13.6089 15.4572 13.5698 15.5613C13.5308 15.6655 13.5177 15.7729 13.5308 15.8835C13.5438 15.9941 13.5828 16.095 13.6479 16.1861C13.752 16.3163 13.8887 16.3944 14.0579 16.4204C14.2271 16.4465 14.3833 16.4074 14.5265 16.3033C15.672 15.4442 16.5604 14.3801 17.1917 13.111C17.823 11.8418 18.1386 10.4914 18.1386 9.05955C18.1386 6.78165 17.3837 4.79011 15.8737 3.08493C14.4289 1.44484 12.6326 0.455581 10.4849 0.117149C10.0033 0.0390498 9.52815 0 9.05955 0Z"/>
    </symbol>
    <symbol id="icon-fav" viewBox="0 0 22 18">
        <path d="M15.9468 0C13.8538 0 12.01 1.05 10.9635 2.7C9.91694 1.05 8.07309 0 5.98007 0C2.69103 0 0 2.7 0 6C0 11.95 10.9635 18 10.9635 18C10.9635 18 21.9269 12 21.9269 6C21.9269 2.7 19.2359 0 15.9468 0Z"/>
    </symbol>
    <symbol id="icon-star-full" viewBox="0 0 1792 1792">
        <path d="M1728 647q0 22-26 48l-363 354 86 500q1 7 1 20 0 21-10.5 35.5t-30.5 14.5q-19 0-40-12l-449-236-449 236q-22 12-40 12-21 0-31.5-14.5t-10.5-35.5q0-6 2-20l86-500-364-354q-25-27-25-48 0-37 56-46l502-73 225-455q19-41 49-41t49 41l225 455 502 73q56 9 56 46z"></path>
    </symbol>
    <symbol id="icon-star-half" viewBox="0 0 1792 1792">
        <path d="M1250 957l257-250-356-52-66-10-30-60-159-322v963l59 31 318 168-60-355-12-66zm452-262l-363 354 86 500q5 33-6 51.5t-34 18.5q-17 0-40-12l-449-236-449 236q-23 12-40 12-23 0-34-18.5t-6-51.5l86-500-364-354q-32-32-23-59.5t54-34.5l502-73 225-455q20-41 49-41 28 0 49 41l225 455 502 73q45 7 54 34.5t-24 59.5z"></path>
    </symbol>
    <symbol id="icon-star-empty" viewBox="0 0 1792 1792">
        <path d="M1201 1004l306-297-422-62-189-382-189 382-422 62 306 297-73 421 378-199 377 199zm527-357q0 22-26 48l-363 354 86 500q1 7 1 20 0 50-41 50-19 0-40-12l-449-236-449 236q-22 12-40 12-21 0-31.5-14.5t-10.5-35.5q0-6 2-20l86-500-364-354q-25-27-25-48 0-37 56-46l502-73 225-455q19-41 49-41t49 41l225 455 502 73q56 9 56 46z"></path>
    </symbol>
    <symbol id="icon-card-item" viewBox="0 0 14 9">
        <path d="M12,9H2A2,2,0,0,1,0,7V2A2,2,0,0,1,2,0H12a2,2,0,0,1,2,2V7A2,2,0,0,1,12,9Zm1-6.986a1,1,0,0,0-1-1H2a1,1,0,0,0-1,1V3H13V2.014ZM1,5V7A1,1,0,0,0,2,8H12a1,1,0,0,0,1-1V5H1Z"></path>
    </symbol>
    <symbol id="icon-fast-delivery" viewBox="0 0 512 512">
        <g>
            <g>
                <path d="M128.562,223.671l-17.447-17.231l-0.281-43.191c-0.027-4.126-3.38-7.451-7.499-7.451c-0.017,0-0.033,0-0.05,0
                            c-4.143,0.027-7.478,3.407-7.451,7.549l0.302,46.296c0.013,1.988,0.815,3.891,2.229,5.287l19.656,19.412
                            c1.461,1.444,3.365,2.165,5.27,2.165c1.935,0,3.869-0.744,5.336-2.23C131.538,231.33,131.508,226.581,128.562,223.671z"/>
            </g>
        </g>
        <g>
            <g>
                <path d="M330.671,281.574c-0.007-0.063-0.02-0.124-0.029-0.187c-0.027-0.206-0.059-0.409-0.103-0.609
                            c-0.016-0.071-0.036-0.14-0.054-0.21c-0.047-0.189-0.099-0.376-0.16-0.559c-0.025-0.074-0.053-0.146-0.08-0.22
                            c-0.065-0.175-0.134-0.347-0.211-0.516c-0.035-0.076-0.072-0.151-0.109-0.227c-0.08-0.16-0.165-0.316-0.255-0.469
                            c-0.045-0.077-0.091-0.154-0.139-0.229c-0.095-0.148-0.196-0.291-0.301-0.432c-0.053-0.071-0.104-0.143-0.159-0.213
                            c-0.122-0.152-0.252-0.297-0.385-0.439c-0.046-0.049-0.088-0.101-0.135-0.149c-0.186-0.189-0.382-0.368-0.588-0.536
                            c-0.003-0.002-0.005-0.005-0.008-0.007l-45.716-37.273c-3.212-2.619-7.935-2.136-10.552,1.073
                            c-2.618,3.21-2.137,7.935,1.073,10.552l29.387,23.96h-97.148c-4.141,0-7.498,3.357-7.498,7.5s3.357,7.5,7.5,7.5h97.148
                            l-29.387,23.959c-3.21,2.617-3.691,7.341-1.073,10.552c1.482,1.818,3.641,2.761,5.817,2.761c1.666,0,3.343-0.552,4.734-1.688
                            l45.716-37.272c0.003-0.002,0.005-0.005,0.008-0.007c0.206-0.168,0.401-0.348,0.588-0.536c0.047-0.048,0.089-0.099,0.135-0.148
                            c0.133-0.142,0.263-0.287,0.385-0.44c0.055-0.069,0.106-0.141,0.158-0.212c0.105-0.141,0.206-0.284,0.301-0.432
                            c0.048-0.075,0.094-0.152,0.139-0.229c0.09-0.153,0.175-0.309,0.255-0.468c0.037-0.075,0.074-0.151,0.109-0.227
                            c0.077-0.168,0.146-0.34,0.211-0.515c0.027-0.073,0.056-0.146,0.08-0.22c0.061-0.183,0.113-0.371,0.16-0.56
                            c0.018-0.07,0.038-0.139,0.054-0.21c0.044-0.2,0.076-0.404,0.103-0.609c0.008-0.063,0.022-0.124,0.029-0.187
                            c0.029-0.267,0.045-0.537,0.045-0.811C330.716,282.111,330.699,281.84,330.671,281.574z"/>
            </g>
        </g>
        <g>
            <g>
                <path d="M176.563,135.963c-3.491-3.458-7.188-6.632-11.056-9.523l10.686-12.952c2.636-3.194,2.183-7.922-1.013-10.558
                            c-3.194-2.637-7.923-2.184-10.558,1.013l-11.847,14.36c-12.777-6.9-26.906-11.03-41.641-12.076v-6.762h15.086
                            c7.667,0,13.905-6.238,13.905-13.906V73.704c0-7.668-6.238-13.906-13.905-13.906H80.445c-7.668,0-13.906,6.238-13.906,13.906
                            v11.855c0,7.668,6.238,13.906,13.906,13.906h15.69v6.768c-14.906,1.06-29.183,5.265-42.06,12.295l-12.032-14.585
                            c-2.637-3.196-7.363-3.649-10.558-1.013s-3.648,7.363-1.013,10.558l10.914,13.229c-3.994,3.013-7.799,6.332-11.383,9.95
                            c-19.481,19.668-30.135,45.744-30.002,73.426c0.133,27.682,11.038,53.654,30.705,73.134
                            c19.547,19.359,45.421,30.002,72.912,30.002c0.172,0,0.344,0,0.514-0.001c27.682-0.133,53.654-11.038,73.134-30.705
                            c19.481-19.668,30.135-45.744,30.002-73.426C207.135,181.416,196.23,155.443,176.563,135.963z M81.539,84.465v-9.667h43.587v9.667
                            H81.539z M166.61,271.966c-16.66,16.821-38.874,26.148-62.549,26.261c-0.147,0.001-0.292,0.001-0.439,0.001
                            c-23.51-0.001-45.642-9.103-62.359-25.659c-16.822-16.66-26.148-38.874-26.262-62.549C14.888,186.345,24,164.043,40.66,147.222
                            c16.66-16.821,38.874-26.148,62.549-26.261c0.146-0.001,0.291-0.001,0.438-0.001c23.512,0,45.643,9.103,62.361,25.66
                            c16.821,16.66,26.148,38.873,26.261,62.548C192.382,232.843,183.27,255.145,166.61,271.966z"/>
            </g>
        </g>
        <g>
            <g>
                <path d="M103.639,130.033c-0.128,0-0.258,0-0.387,0.001c-21.251,0.103-41.191,8.475-56.146,23.573
                            c-14.955,15.1-23.135,35.119-23.032,56.37c0.102,21.251,8.474,41.191,23.572,56.146c15.007,14.862,34.871,23.033,55.977,23.033
                            c0.132,0,0.263,0,0.394-0.001c21.251-0.103,41.191-8.474,56.146-23.573c14.955-15.099,23.135-35.118,23.032-56.369
                            C182.984,165.473,147.334,130.033,103.639,130.033z M149.506,255.026c-12.136,12.253-28.316,19.046-45.561,19.129
                            c-0.107,0.001-0.212,0.001-0.319,0.001c-17.125-0.001-33.246-6.631-45.423-18.69c-12.252-12.136-19.046-28.316-19.128-45.561
                            c-0.083-17.245,6.555-33.489,18.69-45.742c12.136-12.253,28.316-19.046,45.561-19.129c0.106-0.001,0.207-0.001,0.313-0.001
                            c35.453,0,64.386,28.76,64.557,64.252C168.279,226.529,161.641,242.774,149.506,255.026z"/>
            </g>
        </g>
        <g>
            <g>
                <path d="M140.572,379.632c-5.988-2.27-12.534-1.865-18.437,1.138c-5.661,2.88-10.059,7.844-12.383,13.978
                            c-4.894,12.919,0.968,27.158,13.066,31.742c2.557,0.969,5.215,1.45,7.882,1.45c3.579,0,7.173-0.867,10.555-2.588
                            c5.661-2.88,10.059-7.844,12.383-13.978C158.533,398.457,152.671,384.216,140.572,379.632z M139.611,406.06
                            c-0.998,2.636-2.83,4.739-5.157,5.923c-2.087,1.062-4.332,1.233-6.32,0.479c-4.364-1.653-6.317-7.217-4.354-12.4
                            c0.998-2.636,2.83-4.739,5.157-5.923c1.23-0.626,2.516-0.942,3.771-0.942c0.874,0,1.733,0.153,2.55,0.463
                            C139.622,395.313,141.575,400.876,139.611,406.06z"/>
            </g>
        </g>
        <g>
            <g>
                <path d="M429.516,379.632c-12.096-4.581-25.925,2.197-30.819,15.115c-4.894,12.919,0.968,27.158,13.066,31.742
                            c2.557,0.969,5.215,1.45,7.882,1.45c3.579,0,7.173-0.867,10.555-2.588c5.661-2.88,10.059-7.844,12.383-13.978
                            C447.477,398.457,441.615,384.216,429.516,379.632z M428.555,406.06c-0.998,2.636-2.83,4.739-5.157,5.923
                            c-2.088,1.062-4.331,1.233-6.32,0.479c-4.364-1.653-6.317-7.217-4.354-12.4c1.588-4.19,5.256-6.87,8.909-6.87
                            c0.866,0,1.731,0.15,2.568,0.468C428.566,395.313,430.519,400.876,428.555,406.06z"/>
            </g>
        </g>
        <g>
            <g>
                <path d="M507.214,273.695c-0.001-0.001-0.001-0.001-0.002-0.002c-10.985-12.441-22.326-25.411-34.668-39.649
                            c-3.675-4.242-9.157-6.679-15.042-6.687l-63.041-0.085c1.915-11.859,3.766-23.664,5.467-35.226
                            c0.688-4.817-0.676-9.606-3.739-13.14c-3.069-3.538-7.625-5.568-12.501-5.57c-52.495-0.016-80.507-0.034-124.988-0.063
                            l-28.319-0.019c-0.002,0-0.003,0-0.005,0c-4.14,0-7.497,3.354-7.5,7.495c-0.003,4.143,3.354,7.502,7.495,7.505l28.319,0.019
                            c44.483,0.028,72.495,0.047,124.993,0.063c0.534,0,0.951,0.142,1.173,0.397c0.279,0.322,0.275,0.827,0.228,1.162
                            c-3.641,24.754-7.973,50.709-12.21,75.96c-6.182,36.446-12.503,73.828-17.273,110.283c-0.02,0.147-0.041,0.296-0.06,0.443
                            c-2.322-0.001-4.646-0.001-6.972-0.002c-2.944-0.001-5.886-0.002-8.834-0.004c-3.782-0.002-7.568-0.006-11.354-0.009
                            c-2.329-0.002-4.656-0.004-6.986-0.006c-4.399-0.005-8.799-0.01-13.199-0.016c-1.732-0.002-3.463-0.004-5.195-0.007
                            c-5.126-0.007-10.249-0.015-15.369-0.024c-1.045-0.002-2.092-0.003-3.137-0.005c-12.043-0.02-24.06-0.044-36.021-0.069
                            c-0.509-0.001-1.021-0.002-1.529-0.003c-12.484-0.026-24.904-0.054-37.22-0.081l-37.972-0.083
                            c-3.733-6.673-8.94-12.128-15.25-15.999c-0.2-0.123-0.399-0.248-0.602-0.368c-0.338-0.2-0.68-0.392-1.023-0.583
                            c-0.294-0.163-0.589-0.323-0.887-0.479c-0.297-0.155-0.594-0.31-0.895-0.458c-0.383-0.19-0.771-0.371-1.161-0.549
                            c-0.24-0.11-0.477-0.223-0.719-0.329c-0.645-0.281-1.296-0.551-1.957-0.801c-0.678-0.257-1.361-0.494-2.049-0.715
                            c-0.376-0.121-0.755-0.226-1.134-0.337c-0.296-0.086-0.59-0.178-0.887-0.257c-0.522-0.141-1.046-0.264-1.572-0.384
                            c-0.139-0.032-0.278-0.067-0.417-0.097c-0.63-0.138-1.262-0.258-1.896-0.367c-0.02-0.003-0.039-0.007-0.059-0.01
                            c-6.797-1.157-13.784-0.651-20.539,1.497c-0.018,0.006-0.037,0.011-0.055,0.017c-0.539,0.172-1.076,0.359-1.611,0.552
                            c-0.207,0.074-0.415,0.147-0.622,0.225c-0.417,0.157-0.833,0.323-1.248,0.492c-0.176,0.071-0.353,0.135-0.528,0.208
                            c-0.171,0.072-0.338,0.152-0.508,0.225c-0.252,0.11-0.504,0.221-0.755,0.335c-0.502,0.229-0.999,0.468-1.493,0.714
                            c-0.117,0.058-0.236,0.109-0.352,0.169c-0.031,0.016-0.061,0.034-0.091,0.049c-0.612,0.313-1.218,0.64-1.817,0.98
                            c-0.251,0.142-0.496,0.292-0.744,0.438c-0.333,0.197-0.665,0.394-0.994,0.599c-0.337,0.209-0.669,0.423-1.001,0.64
                            c-0.197,0.129-0.392,0.261-0.587,0.393c-5.486,3.705-10.211,8.484-13.927,14.087l-7.927-0.009
                            c-5.912-0.008-11.824-0.016-17.735-0.02c1.389-8.568,3.694-22.803,6.425-39.678c0.662-4.089-2.116-7.94-6.205-8.602
                            c-4.103-0.673-7.94,2.117-8.602,6.205c-4.492,27.758-7.834,48.371-7.834,48.371c-0.003,0.018-0.003,0.036-0.006,0.055
                            c-0.003,0.019-0.008,0.037-0.011,0.056l-1.499,10.202c-0.817,5.56,0.82,11.188,4.491,15.439c3.67,4.25,8.995,6.689,14.611,6.69
                            l16.173,0.008c0.578,3.126,1.451,6.197,2.625,9.172c4.729,11.98,13.697,20.989,25.255,25.368
                            c4.936,1.87,10.023,2.757,15.072,2.757c19.09,0,37.626-12.685,45.285-32.899c0.541-1.427,1.012-2.869,1.427-4.318
                            c52.861,0.059,111.602,0.138,163.172,0.206l20.299,0.027c0.006,0,0.012,0.001,0.019,0.001c4.828-0.008,9.675,0.007,14.512,0.015
                            l1.342,0.002c0.578,3.012,1.428,5.971,2.561,8.841c4.729,11.98,13.697,20.989,25.255,25.368c4.911,1.86,10.026,2.785,15.167,2.785
                            c6.955,0,13.956-1.693,20.558-5.051c11.24-5.719,19.988-15.618,24.633-27.876c0.496-1.31,0.929-2.633,1.319-3.962h0.406
                            c2.98,0.005,5.962,0.01,8.943,0.01c10.614-0.002,20.187-8.131,21.795-18.515c5.543-36.05,11.338-74.043,15.914-107.471
                            C512.591,283.592,510.915,277.891,507.214,273.695z M87.423,391.329c-0.085,0.3-0.159,0.602-0.238,0.902
                            c-0.117,0.443-0.235,0.885-0.34,1.33c-0.089,0.377-0.167,0.755-0.248,1.132c-0.076,0.355-0.154,0.71-0.222,1.065
                            c-0.092,0.473-0.171,0.947-0.25,1.421c-0.04,0.244-0.082,0.487-0.118,0.731c-0.088,0.583-0.163,1.166-0.231,1.749
                            c-0.008,0.072-0.021,0.144-0.029,0.216l-15.662-0.008c-1.718-0.001-2.781-0.937-3.263-1.493c-0.482-0.56-1.255-1.751-1.005-3.456
                            l0.557-3.787c6.683,0.004,13.367,0.008,20.051,0.017l1.044,0.001C87.453,391.21,87.44,391.27,87.423,391.329z M162.497,406.28
                            c-0.007,0.041-0.007,0.083-0.013,0.124c-0.413,2.542-1.08,5.074-2.021,7.557c-6.754,17.824-25.151,27.44-41.016,21.429
                            c-7.558-2.863-13.459-8.847-16.617-16.848c-1.405-3.562-2.194-7.332-2.374-11.172c0-0.094,0.007-0.188,0.003-0.282
                            c-0.074-1.893-0.003-3.781,0.209-5.655c0.001-0.012,0.003-0.024,0.004-0.035c0.064-0.56,0.144-1.118,0.234-1.676
                            c0.018-0.113,0.036-0.226,0.056-0.339c0.078-0.457,0.167-0.913,0.262-1.369c0.037-0.175,0.071-0.351,0.111-0.526
                            c0.09-0.403,0.191-0.804,0.294-1.205c0.053-0.203,0.101-0.407,0.157-0.611c0.109-0.398,0.231-0.795,0.354-1.191
                            c0.06-0.193,0.114-0.387,0.177-0.579c0.19-0.582,0.392-1.162,0.611-1.738c0.004-0.009,0.008-0.019,0.011-0.028
                            c0.284-0.747,0.598-1.484,0.926-2.212c0.07-0.155,0.14-0.309,0.211-0.463c0.346-0.741,0.709-1.473,1.098-2.184
                            c0.03-0.054,0.062-0.107,0.092-0.161c6.949-12.572,20.169-19.533,32.624-17.894c0.247,0.034,0.495,0.06,0.742,0.101
                            c0.316,0.05,0.63,0.112,0.944,0.174c0.606,0.122,1.21,0.253,1.809,0.415c0.143,0.038,0.285,0.084,0.428,0.125
                            c0.716,0.207,1.428,0.432,2.13,0.698c0.46,0.174,0.913,0.361,1.36,0.558c0.28,0.124,0.554,0.259,0.83,0.392
                            c0.158,0.076,0.319,0.147,0.476,0.226c0.378,0.191,0.75,0.394,1.119,0.602c0.045,0.026,0.092,0.049,0.137,0.074
                            c5.399,3.093,9.698,7.989,12.328,14.13C162.77,392.738,163.567,399.503,162.497,406.28z M352.681,400.181l-13.57-0.019
                            c-50.905-0.067-108.816-0.146-161.143-0.204c-0.028-2.917-0.299-5.818-0.824-8.673l32.547,0.071
                            c22.188,0.049,44.718,0.099,67.351,0.14c1.815,0.003,3.628,0.007,5.444,0.01c3.497,0.006,6.996,0.011,10.496,0.017
                            c2.952,0.005,5.903,0.009,8.856,0.014c2.72,0.004,5.439,0.007,8.16,0.011c3.75,0.005,7.497,0.01,11.246,0.013
                            c2.225,0.002,4.448,0.004,6.673,0.006c4.151,0.004,8.299,0.007,12.445,0.01c1.998,0.001,3.993,0.002,5.99,0.003
                            c2.439,0.001,4.882,0.003,7.317,0.004C353.328,394.457,352.998,397.323,352.681,400.181z M451.395,406.577
                            c-0.005,0.03-0.005,0.06-0.01,0.09c-0.416,2.453-1.069,4.896-1.977,7.294c-3.318,8.76-9.501,15.799-17.407,19.82
                            c-7.667,3.9-16.05,4.472-23.608,1.608c-7.558-2.863-13.459-8.847-16.617-16.848c-1.386-3.513-2.17-7.229-2.364-11.014
                            c-0.001-0.054,0.003-0.108,0.001-0.162c-0.089-1.897-0.03-3.791,0.17-5.673c0.01-0.095,0.023-0.189,0.034-0.284
                            c0.056-0.487,0.122-0.973,0.198-1.458c0.03-0.19,0.061-0.379,0.093-0.568c0.067-0.394,0.142-0.788,0.222-1.181
                            c0.048-0.234,0.095-0.467,0.147-0.701c0.08-0.361,0.17-0.72,0.261-1.079c0.062-0.243,0.121-0.487,0.188-0.73
                            c0.104-0.379,0.219-0.757,0.336-1.135c0.066-0.213,0.126-0.427,0.195-0.639c0.192-0.587,0.395-1.172,0.616-1.755
                            c3.318-8.76,9.501-15.8,17.407-19.821c0.521-0.265,1.047-0.512,1.574-0.747c0.17-0.076,0.342-0.143,0.513-0.216
                            c0.36-0.153,0.72-0.302,1.082-0.44c0.202-0.077,0.404-0.148,0.606-0.221c0.337-0.121,0.674-0.237,1.013-0.346
                            c0.209-0.067,0.419-0.132,0.629-0.194c0.339-0.101,0.679-0.194,1.019-0.283c0.205-0.053,0.409-0.107,0.614-0.156
                            c0.364-0.087,0.729-0.163,1.094-0.235c0.179-0.036,0.358-0.075,0.537-0.108c0.481-0.086,0.963-0.16,1.445-0.222
                            c0.062-0.008,0.123-0.02,0.185-0.027c0.548-0.067,1.096-0.116,1.644-0.151c0.148-0.009,0.296-0.011,0.443-0.018
                            c0.397-0.019,0.794-0.034,1.191-0.037c0.138-0.001,0.276,0.004,0.415,0.005c0.744,0.006,1.486,0.034,2.225,0.1
                            c0.02,0.002,0.041,0.002,0.061,0.004c0.748,0.068,1.491,0.174,2.231,0.303c0.134,0.023,0.267,0.045,0.401,0.07
                            c0.714,0.135,1.424,0.297,2.129,0.489c0.129,0.035,0.258,0.075,0.387,0.112c0.729,0.21,1.455,0.44,2.171,0.711
                            c0.437,0.166,0.867,0.344,1.293,0.53c0.261,0.115,0.517,0.238,0.773,0.361c0.143,0.068,0.287,0.134,0.429,0.204
                            C447.177,377.723,453.838,391.867,451.395,406.577z M496.95,287.313c-4.56,33.305-10.343,71.228-15.876,107.208
                            c-0.47,3.036-3.793,5.802-6.971,5.802c-2.394,0-4.789-0.003-7.183-0.007c-0.016-6.247-1.168-12.426-3.463-18.241
                            c-4.231-10.72-11.863-19.05-21.701-23.823c-0.289-0.141-0.58-0.278-0.873-0.413c-0.271-0.124-0.541-0.25-0.815-0.368
                            c-0.615-0.267-1.235-0.525-1.866-0.764c-10.113-3.832-21.091-3.695-31.368,0.313c-1.468,0.572-2.922,1.224-4.357,1.954
                            c-11.24,5.718-19.988,15.618-24.633,27.876c-0.366,0.966-0.693,1.94-1.001,2.917c-0.09,0.284-0.174,0.568-0.259,0.852
                            c-0.236,0.792-0.453,1.586-0.651,2.383c-0.052,0.21-0.111,0.418-0.161,0.628c-0.233,0.988-0.434,1.98-0.609,2.973
                            c-0.037,0.208-0.067,0.417-0.101,0.626c-0.149,0.909-0.275,1.819-0.376,2.73c-0.009,0.084-0.026,0.166-0.034,0.25l-0.709-0.001
                            c-2.053-0.004-4.107-0.007-6.162-0.009c0.583-5.089,1.197-10.224,1.541-13.085c0.123-0.992,0.241-1.98,0.367-2.974
                            c4.647-36.357,11.078-74.693,17.304-111.783c0.208-1.24,0.418-2.491,0.626-3.734c0.071-0.417,0.142-0.836,0.212-1.253
                            c1.432-8.441,2.852-16.816,4.239-25.097l65.411,0.088c1.561,0.002,2.884,0.538,3.727,1.511
                            c12.372,14.273,23.741,27.275,34.757,39.75C496.796,284.56,497.145,285.875,496.95,287.313z"/>
            </g>
        </g>
        <g>
            <g>
                <path d="M483.347,287.497c-9.038-10.301-17.984-20.569-26.585-30.521c-2.354-2.721-5.837-4.284-9.558-4.289l-35.708-0.049
                            c-0.005,0-0.011,0-0.016,0c-6.841,0-13.051,5.256-14.141,11.97l-1.077,6.614c-2.433,14.944-4.949,30.399-7.349,45.618
                            c0,0.001-0.001,0.002-0.001,0.004c-0.571,3.638,0.435,7.285,2.761,10.008c2.361,2.764,5.884,4.352,9.666,4.354l67.633,0.05
                            c0.003,0,0.006,0,0.009,0c6.954,0,13.173-5.315,14.158-12.105c1.258-8.662,1.884-12.991,3.122-21.649
                            C486.783,293.851,485.722,290.204,483.347,287.497z M468.403,316.256l-64.203-0.048c2.252-14.223,4.596-28.62,6.868-42.576
                            l0.976-5.993l34.148,0.047c8.128,9.398,16.553,19.069,25.066,28.776C470.156,304.16,469.536,308.451,468.403,316.256z"/>
            </g>
        </g>
    </symbol>
    <symbol id="icon-history-check" viewBox="0 -46 417.81333 417">
        <path d="m159.988281 318.582031c-3.988281 4.011719-9.429687 6.25-15.082031 6.25s-11.09375-2.238281-15.082031-6.25l-120.449219-120.46875c-12.5-12.5-12.5-32.769531 0-45.246093l15.082031-15.085938c12.503907-12.5 32.75-12.5 45.25 0l75.199219 75.203125 203.199219-203.203125c12.503906-12.5 32.769531-12.5 45.25 0l15.082031 15.085938c12.5 12.5 12.5 32.765624 0 45.246093zm0 0"/>
    </symbol>
    <symbol id="icon-history-arrow" viewBox="0 0 444.52 444.52">
        <g>
            <g>
                <path d="M435.532,0.456L4.978,119.19c-6.518,1.799-6.652,5.135-0.3,7.454l222.383,81.249c6.353,2.319,13.305,9.376,15.532,15.759
                            l75.46,216.14c2.228,6.383,5.489,6.273,7.289-0.245L444.075,8.999C445.875,2.487,442.044-1.344,435.532,0.456z"/>
            </g>
        </g>
    </symbol>
    <symbol id="icon-history-close" viewBox="0 0 365.696 365.696">
        <path d="m243.1875 182.859375 113.132812-113.132813c12.5-12.5 12.5-32.765624 0-45.246093l-15.082031-15.082031c-12.503906-12.503907-32.769531-12.503907-45.25 0l-113.128906 113.128906-113.132813-113.152344c-12.5-12.5-32.765624-12.5-45.246093 0l-15.105469 15.082031c-12.5 12.503907-12.5 32.769531 0 45.25l113.152344 113.152344-113.128906 113.128906c-12.503907 12.503907-12.503907 32.769531 0 45.25l15.082031 15.082031c12.5 12.5 32.765625 12.5 45.246093 0l113.132813-113.132812 113.128906 113.132812c12.503907 12.5 32.769531 12.5 45.25 0l15.082031-15.082031c12.5-12.503906 12.5-32.769531 0-45.25zm0 0"/>
    </symbol>
    <symbol id="icon-header-clock" viewBox="0 0 512 512">
        <path d="m256 0c-141.164062 0-256 114.835938-256 256s114.835938 256 256 256 256-114.835938 256-256-114.835938-256-256-256zm121.75 388.414062c-4.160156 4.160157-9.621094 6.253907-15.082031 6.253907-5.460938 0-10.925781-2.09375-15.082031-6.253907l-106.667969-106.664062c-4.011719-3.988281-6.25-9.410156-6.25-15.082031v-138.667969c0-11.796875 9.554687-21.332031 21.332031-21.332031s21.332031 9.535156 21.332031 21.332031v129.835938l100.417969 100.414062c8.339844 8.34375 8.339844 21.824219 0 30.164062zm0 0"/>
    </symbol>
</svg>