<svg xmlns="http://www.w3.org/2000/svg" style="display: none;">



    <symbol id="icon-phone" viewBox="0 0 15 15">
        <path d="M13.32 10.4402C12.3477 9.66519 11.361 9.19572 10.4006 9.96958L9.82721 10.4373C9.40765 10.7768 8.62757 12.3632 5.61152 9.12957C2.5961 5.90007 4.39053 5.39723 4.81071 5.06064L5.38729 4.59234C6.34261 3.81672 5.98209 2.84032 5.29308 1.83523L4.87729 1.22644C4.18514 0.223698 3.43145 -0.434847 2.47362 0.339602L1.95608 0.761071C1.53275 1.04849 0.349445 1.98275 0.0624109 3.7576C-0.283034 5.88719 0.806689 8.32585 3.30332 11.0016C5.7968 13.6785 8.23816 15.0231 10.5508 14.9997C12.4727 14.9804 13.6334 14.0192 13.9964 13.6697L14.5158 13.2477C15.4712 12.4738 14.8776 11.6859 13.9047 10.9091L13.32 10.4402Z"/>
    </symbol>

    <symbol id="icon-user" viewBox="0 0 15 15">
        <path d="M7.5 0C9.57187 0 11.25 1.67812 11.25 3.75C11.25 5.82188 9.57187 7.5 7.5 7.5C5.42812 7.5 3.75 5.82188 3.75 3.75C3.75 1.67812 5.42812 0 7.5 0ZM7.5 15C7.5 15 15 15 15 13.125C15 10.875 11.3438 8.4375 7.5 8.4375C3.65625 8.4375 0 10.875 0 13.125C0 15 7.5 15 7.5 15Z"/>

    </symbol>

    <symbol id="icon-user-outline" viewBox="0 0 18 18">
        <path d="M9,18L9,18c0,0-0.1,0-0.1,0l-0.3,0c-0.2,0-0.6,0-1,0c-0.8,0-1.9-0.1-3.1-0.2c-1.3-0.2-2.3-0.4-3.1-0.7
		c-0.4-0.2-0.8-0.4-1-0.6c0,0-0.1-0.1-0.1-0.1c0,0,0,0,0,0c0,0-0.1-0.1-0.1-0.1C0,16-0.1,15.7,0,15.4c0.2-1.2,1.1-2.4,2.7-3.5
		c1.8-1.1,4-1.8,6.2-1.8s4.4,0.7,6.2,1.8c1.6,1,2.6,2.3,2.7,3.5c0.1,0.3,0,0.6-0.2,0.9c0,0,0,0,0,0.1c0,0,0,0,0,0
		c0,0-0.1,0.1-0.1,0.1c-0.2,0.2-0.6,0.4-1,0.6c-0.8,0.3-1.8,0.5-3.1,0.7c-1.2,0.1-2.3,0.2-3.1,0.2c-0.4,0-0.8,0-1,0L9,18z M2.2,15.2
		c0.6,0.2,1.5,0.4,2.6,0.5c1.1,0.1,2.2,0.2,2.9,0.2c0.4,0,0.7,0,1,0L9,16l0.3,0c0.2,0,0.6,0,1,0c0.7,0,1.8-0.1,2.9-0.2
		c1.1-0.1,2-0.3,2.6-0.5c-0.2-0.4-0.7-1-1.7-1.6c-1.5-0.9-3.3-1.5-5.1-1.5s-3.7,0.5-5.1,1.5C2.9,14.2,2.4,14.8,2.2,15.2z M0,16L0,16
		L0,16z M9,9C6.5,9,4.5,7,4.5,4.5S6.5,0,9,0s4.5,2,4.5,4.5S11.4,9,9,9z M9,2C7.6,2,6.5,3.1,6.5,4.5S7.6,7,9,7s2.5-1.1,2.5-2.5
		S10.3,2,9,2z"/>
    </symbol>

    <symbol id="icon-basket" viewBox="0 0 15 15">
        <path d="M14.9925 4.94266L14.3634 8.70059C14.2859 9.11571 13.9683 9.36812 13.602 9.37286H4.43125L4.24917 10.4416H12.9895C13.4497 10.4781 13.7619 10.8176 13.7675 11.2518C13.7341 11.7301 13.4081 12.0561 12.9895 12.062H3.32216C2.79932 12.013 2.48756 11.579 2.54414 11.0967L2.95797 8.75227L2.32894 2.16727L0.541149 1.58121C0.104261 1.40057 -0.0740513 0.989 0.0279862 0.564154C0.197649 0.121384 0.604186 -0.0809125 1.00465 0.0297704L3.28905 0.788254C3.5968 0.908387 3.77384 1.17072 3.81876 1.47779L3.95119 2.78789L14.3138 3.99456C14.7899 4.10196 15.0484 4.49469 14.9925 4.94266ZM5.6909 13.7632C5.6909 14.4462 5.15915 15 4.50317 15C3.84721 15 3.31546 14.4462 3.31546 13.7632C3.31546 13.0801 3.84722 12.5263 4.50317 12.5263C5.15914 12.5263 5.6909 13.0801 5.6909 13.7632ZM12.7816 13.7632C12.7816 14.4462 12.2498 15 11.5938 15C10.9379 15 10.4061 14.4462 10.4061 13.7632C10.4061 13.0801 10.9379 12.5263 11.5938 12.5263C12.2498 12.5263 12.7816 13.0801 12.7816 13.7632Z"/>
    </symbol>

    <symbol id="icon-search" viewBox="0 0 15 15">
        <path d="M14.824 13.9178L10.6522 9.70691C11.4686 8.68349 11.9608 7.38663 11.9608 5.97649C11.9608 2.67575 9.28504 0 5.9804 0C2.67575 0 0 2.67965 0 5.9804C0 9.28114 2.67575 11.9569 5.9804 11.9569C7.41007 11.9569 8.71864 11.4569 9.74988 10.621L13.8944 14.8045C14.0194 14.9373 14.1912 15.0037 14.3592 15.0037C14.5194 15.0037 14.6795 14.9451 14.8006 14.8279C15.0584 14.5819 15.0662 14.1756 14.824 13.9178ZM5.9804 10.6717C4.7265 10.6717 3.54683 10.1835 2.66012 9.29676C1.77342 8.41005 1.28514 7.23038 1.28514 5.9804C1.28514 4.7265 1.77342 3.54683 2.66012 2.66403C3.54683 1.77732 4.7265 1.28905 5.9804 1.28905C7.23429 1.28905 8.41396 1.77732 9.30067 2.66403C10.1874 3.55074 10.6756 4.73041 10.6756 5.9804C10.6756 7.23429 10.1874 8.41396 9.30067 9.29676C8.41396 10.1835 7.23429 10.6717 5.9804 10.6717Z"/>

    </symbol>

    <symbol id="icon-hamburger" viewBox="0 0 20 15">
        <path d="M0 1.5C0 0.671573 0.671573 0 1.5 0H18.5C19.3284 0 20 0.671573 20 1.5C20 2.32843 19.3284 3 18.5 3H1.5C0.671573 3 0 2.32843 0 1.5Z"/>
        <path d="M0 7.5C0 6.67157 0.671573 6 1.5 6H18.5C19.3284 6 20 6.67157 20 7.5C20 8.32843 19.3284 9 18.5 9H1.5C0.671573 9 0 8.32843 0 7.5Z"/>
        <path d="M0 13.5C0 12.6716 0.671573 12 1.5 12H18.5C19.3284 12 20 12.6716 20 13.5C20 14.3284 19.3284 15 18.5 15H1.5C0.671573 15 0 14.3284 0 13.5Z"/>
    </symbol>

    <symbol id="icon-arrow-left" viewBox="0 0 7 11">
        <path d="M7 1.2925L2.67341 5.5L7 9.7075L5.66802 11L0 5.5L5.66802 0L7 1.2925Z"/>
    </symbol>

    <symbol id="icon-arrow-bottom" viewBox="0 0 12 8">
        <path d="M1.41 0L6 4.58L10.59 0L12 1.41L6 7.41L0 1.41L1.41 0Z"/>
    </symbol>

    <symbol id="icon-arrow-right-double" viewBox="0 0 18 11">
        <path d="M11 1.2925L15.3266 5.5L11 9.7075L12.332 11L18 5.5L12.332 0L11 1.2925Z"/>
        <path d="M0 1.2925L4.32659 5.5L0 9.7075L1.33198 11L7 5.5L1.33198 0L0 1.2925Z"/>
    </symbol>

    <symbol id="icon-arrow-up" viewBox="0 0 12 8">
        <path d="M10.59 7.41016L6 2.83016L1.41 7.41016L0 6.00016L6 0.000156403L12 6.00016L10.59 7.41016Z"/>
    </symbol>

    <symbol id="icon-heart" viewBox="0 0 22 18">
        <path d="M10.119 3.2356L10.9635 4.56705L11.8079 3.2356C12.6706 1.87543 14.1955 1 15.9468 1C18.6805 1 20.9269 3.24914 20.9269 6C20.9269 7.20012 20.3734 8.49332 19.4065 9.81617C18.4472 11.1287 17.1464 12.3806 15.8107 13.4771C14.4799 14.5695 13.1441 15.4837 12.1383 16.1259C11.6572 16.4331 11.2537 16.6767 10.9653 16.8463C10.6768 16.6754 10.2728 16.4299 9.79083 16.1203C8.78473 15.4741 7.44852 14.5551 6.11728 13.4592C4.78111 12.3593 3.47971 11.1054 2.51991 9.79443C1.55204 8.47242 1 7.18598 1 6C1 3.24914 3.24645 1 5.98007 1C7.73142 1 9.2563 1.87543 10.119 3.2356Z"/>
    </symbol>

    <symbol id="icon-triangle" viewBox="0 0 9 6">
        <path d="M8.57143 0L4.25357 5.54067L0 0H8.57143Z"/>
    </symbol>

    <symbol id="icon-plus" viewBox="0 0 16 15">
        <path d="M7.69824 8.05957H14.5093V8.81006H7.69824V15.9326H6.91943V8.81006H0.377441V8.05957H6.91943V0.922852H7.69824V8.05957Z"/>
    </symbol>

    <symbol id="icon-minus" viewBox="0 0 7 1">
        <path d="M6.71436 0.95166H0.059082V0.187012H6.71436V0.95166Z"/>
    </symbol>

    <symbol id="icon-catalog" viewBox="0 0 18 18">
        <path d="M15.2657 9.9V16.2H2.70759V3.6H7.21058C7.25543 2.961 7.40793 2.358 7.64115 1.8H2.70759C1.72088 1.8 0.913574 2.61 0.913574 3.6V16.2C0.913574 17.19 1.72088 18 2.70759 18H15.2657C16.2524 18 17.0598 17.19 17.0598 16.2V11.7L15.2657 9.9ZM13.9202 14.4H4.05311L6.51989 11.223L8.27803 13.347L10.7448 10.161L13.9202 14.4ZM16.4318 6.201C16.8265 5.571 17.0598 4.842 17.0598 4.05C17.0598 1.809 15.2568 0 13.0232 0C10.7897 0 8.98666 1.809 8.98666 4.05C8.98666 6.291 10.7897 8.1 13.0142 8.1C13.8036 8.1 14.5392 7.866 15.1581 7.47L17.9568 10.278L19.2305 9L16.4318 6.201ZM13.0232 6.3C12.4285 6.3 11.8581 6.06295 11.4375 5.64099C11.0169 5.21903 10.7807 4.64674 10.7807 4.05C10.7807 3.45326 11.0169 2.88097 11.4375 2.45901C11.8581 2.03705 12.4285 1.8 13.0232 1.8C13.618 1.8 14.1884 2.03705 14.6089 2.45901C15.0295 2.88097 15.2657 3.45326 15.2657 4.05C15.2657 4.64674 15.0295 5.21903 14.6089 5.64099C14.1884 6.06295 13.618 6.3 13.0232 6.3Z" />
    </symbol>

    <symbol id="icon-time" viewBox="0 0 20 18">
        <path d="M12.3688 0C9.98981 0 7.70823 0.948211 6.02601 2.63604C4.34379 4.32387 3.39872 6.61305 3.39872 9H0.408691L4.28577 12.89L4.35554 13.03L8.38211 9H5.39208C5.39208 5.13 8.51168 2 12.3688 2C16.226 2 19.3456 5.13 19.3456 9C19.3456 12.87 16.226 16 12.3688 16C10.4452 16 8.70105 15.21 7.44524 13.94L6.02995 15.36C6.8606 16.198 7.84838 16.8627 8.93633 17.3158C10.0243 17.769 11.1909 18.0015 12.3688 18C14.7478 18 17.0294 17.0518 18.7116 15.364C20.3939 13.6761 21.3389 11.3869 21.3389 9C21.3389 6.61305 20.3939 4.32387 18.7116 2.63604C17.0294 0.948211 14.7478 3.55683e-08 12.3688 0ZM11.3721 5V10L15.608 12.52L16.3755 11.24L12.8672 9.15V5H11.3721Z"/>
    </symbol>

    <symbol id="icon-point" viewBox="0 0 12 15">
        <path d="M5.6543 0C2.53152 0 0 2.53151 0 5.6543C0 6.69864 0.204412 7.77726 0.791012 8.55469L5.6543 15L10.5176 8.55469C11.0504 7.84856 11.3086 6.60024 11.3086 5.6543C11.3086 2.53151 8.77707 0 5.6543 0ZM5.6543 3.27484C6.96825 3.27484 8.03375 4.34035 8.03375 5.65429C8.03375 6.96825 6.96825 8.03375 5.6543 8.03375C4.34035 8.03375 3.27485 6.96825 3.27485 5.6543C3.27485 4.34035 4.34035 3.27484 5.6543 3.27484Z"/>

    </symbol>

    <symbol id="icon-close" viewBox="0 0 12 11">
        <path d="M12 1.2925L7.67341 5.5L12 9.7075L10.668 11L5 5.5L10.668 0L12 1.2925Z"/>
        <path d="M0 1.2925L4.32659 5.5L0 9.7075L1.33198 11L7 5.5L1.33198 0L0 1.2925Z"/>
    </symbol>

    <symbol id="icon-share" viewBox="0 0 18 18">
        <path d="M15 12.4898C14.2875 12.4898 13.63 12.7194 13.115 13.1028L7.935 9.66122C8.02174 9.22401 8.02174 8.77599 7.935 8.33878L13.115 4.89719C13.63 5.28061 14.2875 5.5102 15 5.5102C16.655 5.5102 18 4.275 18 2.7551C18 1.2352 16.655 0 15 0C13.345 0 12 1.2352 12 2.7551C12 3.02143 12.04 3.27628 12.1175 3.51964L7.1975 6.79133C6.4675 5.90281 5.3075 5.32653 4 5.32653C1.79 5.32653 0 6.97041 0 9C0 11.0296 1.79 12.6735 4 12.6735C5.3075 12.6735 6.4675 12.0972 7.1975 11.2087L12.1175 14.4804C12.04 14.7237 12 14.9809 12 15.2449C12 16.7648 13.345 18 15 18C16.655 18 18 16.7648 18 15.2449C18 13.725 16.655 12.4898 15 12.4898ZM15 1.56122C15.7175 1.56122 16.3 2.09617 16.3 2.7551C16.3 3.41403 15.7175 3.94898 15 3.94898C14.2825 3.94898 13.7 3.41403 13.7 2.7551C13.7 2.09617 14.2825 1.56122 15 1.56122ZM4 11.0204C2.7875 11.0204 1.8 10.1135 1.8 9C1.8 7.88648 2.7875 6.97959 4 6.97959C5.2125 6.97959 6.2 7.88648 6.2 9C6.2 10.1135 5.2125 11.0204 4 11.0204ZM15 16.4388C14.2825 16.4388 13.7 15.9038 13.7 15.2449C13.7 14.586 14.2825 14.051 15 14.051C15.7175 14.051 16.3 14.586 16.3 15.2449C16.3 15.9038 15.7175 16.4388 15 16.4388Z"/>
    </symbol>

    <symbol id="icon-trash-bin" viewBox="0 0 15 18">
        <path d="M4.53125 1.62H4.375C4.46094 1.62 4.53125 1.539 4.53125 1.44V1.62H10.4688V1.44C10.4688 1.539 10.5391 1.62 10.625 1.62H10.4688V3.24H11.875V1.44C11.875 0.64575 11.3145 0 10.625 0H4.375C3.68555 0 3.125 0.64575 3.125 1.44V3.24H4.53125V1.62ZM14.375 3.24H0.625C0.279297 3.24 0 3.56175 0 3.96V4.68C0 4.779 0.0703125 4.86 0.15625 4.86H1.33594L1.81836 16.6275C1.84961 17.3948 2.40039 18 3.06641 18H11.9336C12.6016 18 13.1504 17.397 13.1816 16.6275L13.6641 4.86H14.8438C14.9297 4.86 15 4.779 15 4.68V3.96C15 3.56175 14.7207 3.24 14.375 3.24ZM11.7832 16.38H3.2168L2.74414 4.86H12.2559L11.7832 16.38Z"/>
    </symbol>

    <symbol id="icon-card" viewBox="0 0 16 12">
        <path d="M14.25 0H1.58333C0.704583 0 0.00791666 0.6675 0.00791666 1.5L0 10.5C0 11.3325 0.704583 12 1.58333 12H14.25C15.1288 12 15.8333 11.3325 15.8333 10.5V1.5C15.8333 0.6675 15.1288 0 14.25 0ZM14.25 10.5H1.58333V6H14.25V10.5ZM14.25 3H1.58333V1.5H14.25V3Z"/>
    </symbol>

    <symbol id="icon-pencil" viewBox="0 0 21 17">
        <path d="M20,17h-9c-0.6,0-1-0.4-1-1s0.4-1,1-1h9c0.6,0,1,0.4,1,1S20.6,17,20,17z"/>
        <path d="M1,17c-0.3,0-0.5-0.1-0.7-0.3c-0.3-0.2-0.4-0.6-0.3-0.9l0.8-3.5c0-0.2,0.1-0.3,0.2-0.5l10.2-11
		c0.8-0.8,2-1.1,3-0.6c0.3,0.1,0.6,0.4,0.9,0.6c0.2,0.3,0.4,0.6,0.6,0.9C15.9,2.1,16,2.5,16,2.9s-0.1,0.7-0.2,1.1
		c-0.1,0.3-0.3,0.7-0.6,0.9L5,15.8c-0.1,0.1-0.3,0.2-0.5,0.3L1.3,17C1.2,17,1.1,17,1,17z M2.7,13l-0.4,1.6l1.4-0.4l10-10.7
		c0.1-0.1,0.1-0.2,0.2-0.3C14,3.1,14,3,14,2.9s0-0.2-0.1-0.4c0-0.1-0.1-0.2-0.2-0.3c-0.1-0.1-0.2-0.1-0.2-0.2
		c-0.3-0.1-0.6,0-0.8,0.2l0,0L2.7,13z M12,1.5L12,1.5L12,1.5z"/>

    </symbol>

    <symbol id="icon-point-outline" viewBox="0 0 16 19">
        <path d="M8,19c-0.2,0-0.4-0.1-0.6-0.2C7.1,18.6,0,13.8,0,8c0-2.1,0.8-4.1,2.3-5.6S5.8,0,8,0c2.1,0,4.1,0.8,5.6,2.3
		c1.5,1.5,2.3,3.5,2.3,5.6c0,5.9-7.1,10.7-7.4,10.9C8.3,18.9,8.1,19,8,19z M8,2C6.4,2,4.9,2.6,3.7,3.7C2.6,4.9,2,6.4,2,8
		c0,4,4.4,7.6,6,8.8c1.6-1.2,6-4.9,6-8.8c0-1.6-0.6-3.1-1.7-4.2C11.1,2.6,9.5,2,8,2z"/>
        <path d="M8,11.3c-1.8,0-3.3-1.5-3.3-3.3S6.1,4.6,8,4.6s3.3,1.5,3.3,3.3S9.8,11.3,8,11.3z M8,6.6C7.2,6.6,6.6,7.2,6.6,8
		c0,0.7,0.6,1.3,1.3,1.3c0.7,0,1.3-0.6,1.3-1.3C9.3,7.2,8.7,6.6,8,6.6z"/>

    </symbol>

    <symbol id="icon-exit" viewBox="0 0 18 18">
        <path d="M7.79 13.29C8.18 13.68 8.81 13.68 9.2 13.29L12.79 9.7C12.8827 9.60749 12.9563 9.4976 13.0064 9.37662C13.0566 9.25565 13.0824 9.12597 13.0824 8.995C13.0824 8.86403 13.0566 8.73435 13.0064 8.61338C12.9563 8.4924 12.8827 8.38251 12.79 8.29L9.2 4.7C9.01302 4.51302 8.75943 4.40798 8.495 4.40798C8.23057 4.40798 7.97698 4.51302 7.79 4.7C7.60302 4.88698 7.49798 5.14057 7.49798 5.405C7.49798 5.66943 7.60302 5.92302 7.79 6.11L9.67 8H1C0.45 8 0 8.45 0 9C0 9.55 0.45 10 1 10H9.67L7.79 11.88C7.4 12.27 7.41 12.91 7.79 13.29ZM16 0H2C1.46957 0 0.960859 0.210714 0.585786 0.585786C0.210714 0.960859 0 1.46957 0 2V5C0 5.55 0.45 6 1 6C1.55 6 2 5.55 2 5V3C2 2.45 2.45 2 3 2H15C15.55 2 16 2.45 16 3V15C16 15.55 15.55 16 15 16H3C2.45 16 2 15.55 2 15V13C2 12.45 1.55 12 1 12C0.45 12 0 12.45 0 13V16C0 17.1 0.9 18 2 18H16C17.1 18 18 17.1 18 16V2C18 0.9 17.1 0 16 0Z"/>

    </symbol>


    <symbol id="icon-small-car" viewBox="0 0 20 15">
        <path d="M17 5.00001H16.68L15.43 1.88001C15.2068 1.32527 14.8228 0.849898 14.3275 0.514916C13.8321 0.179935 13.248 0.000628704 12.65 1.22978e-05H6.65C5.95529 -0.00197605 5.28142 0.237203 4.74342 0.676725C4.20541 1.11625 3.83662 1.72886 3.7 2.41001L3.18 5.00001H3C2.20435 5.00001 1.44129 5.31608 0.87868 5.87869C0.316071 6.4413 0 7.20436 0 8.00001V11C0 11.2652 0.105357 11.5196 0.292893 11.7071C0.48043 11.8947 0.734784 12 1 12H2C2 12.7957 2.31607 13.5587 2.87868 14.1213C3.44129 14.6839 4.20435 15 5 15C5.79565 15 6.55871 14.6839 7.12132 14.1213C7.68393 13.5587 8 12.7957 8 12H12C12 12.7957 12.3161 13.5587 12.8787 14.1213C13.4413 14.6839 14.2044 15 15 15C15.7956 15 16.5587 14.6839 17.1213 14.1213C17.6839 13.5587 18 12.7957 18 12H19C19.2652 12 19.5196 11.8947 19.7071 11.7071C19.8946 11.5196 20 11.2652 20 11V8.00001C20 7.20436 19.6839 6.4413 19.1213 5.87869C18.5587 5.31608 17.7956 5.00001 17 5.00001ZM11 2.00001H12.65C12.8486 2.00181 13.0421 2.06269 13.206 2.17488C13.3698 2.28708 13.4965 2.44552 13.57 2.63001L14.52 5.00001H11V2.00001ZM5.66 2.80001C5.70675 2.57074 5.83242 2.36511 6.01514 2.21894C6.19786 2.07277 6.42605 1.99529 6.66 2.00001H9V5.00001H5.22L5.66 2.80001ZM5 13C4.80222 13 4.60888 12.9414 4.44443 12.8315C4.27998 12.7216 4.15181 12.5654 4.07612 12.3827C4.00043 12.2 3.98063 11.9989 4.01921 11.8049C4.0578 11.6109 4.15304 11.4328 4.29289 11.2929C4.43275 11.1531 4.61093 11.0578 4.80491 11.0192C4.99889 10.9806 5.19996 11.0004 5.38268 11.0761C5.56541 11.1518 5.72159 11.28 5.83147 11.4444C5.94135 11.6089 6 11.8022 6 12C6 12.2652 5.89464 12.5196 5.70711 12.7071C5.51957 12.8947 5.26522 13 5 13ZM15 13C14.8022 13 14.6089 12.9414 14.4444 12.8315C14.28 12.7216 14.1518 12.5654 14.0761 12.3827C14.0004 12.2 13.9806 11.9989 14.0192 11.8049C14.0578 11.6109 14.153 11.4328 14.2929 11.2929C14.4327 11.1531 14.6109 11.0578 14.8049 11.0192C14.9989 10.9806 15.2 11.0004 15.3827 11.0761C15.5654 11.1518 15.7216 11.28 15.8315 11.4444C15.9414 11.6089 16 11.8022 16 12C16 12.2652 15.8946 12.5196 15.7071 12.7071C15.5196 12.8947 15.2652 13 15 13ZM18 10H17.22C16.9388 9.69066 16.5961 9.44348 16.2138 9.27434C15.8315 9.1052 15.418 9.01783 15 9.01783C14.582 9.01783 14.1685 9.1052 13.7862 9.27434C13.4039 9.44348 13.0612 9.69066 12.78 10H7.22C6.93882 9.69066 6.59609 9.44348 6.21378 9.27434C5.83148 9.1052 5.41805 9.01783 5 9.01783C4.58195 9.01783 4.16852 9.1052 3.78622 9.27434C3.40391 9.44348 3.06118 9.69066 2.78 10H2V8.00001C2 7.7348 2.10536 7.48044 2.29289 7.29291C2.48043 7.10537 2.73478 7.00001 3 7.00001H17C17.2652 7.00001 17.5196 7.10537 17.7071 7.29291C17.8946 7.48044 18 7.7348 18 8.00001V10Z"/>
    </symbol>

    <symbol id="icon-big-car" viewBox="0 0 512 371.4">
        <path d="M507.6,141l-80.3-80.3c-2.8-2.8-6.6-4.4-10.6-4.4h-65.3v-1.1c0-30.4-24.7-55.2-55.2-55.2h-241C24.7,0,0,24.7,0,55.2V256
	c0,30.4,24.7,55.2,55.2,55.2h10.6c7,34.3,37.4,60.3,73.7,60.3c36.4,0,66.8-25.9,73.7-60.3h85.5c7,34.3,37.4,60.3,73.7,60.3
	s66.8-25.9,73.7-60.3H497c8.3,0,15-6.7,15-15V151.6C512,147.6,510.4,143.8,507.6,141z M410.5,86.2l50.3,50.3H351.3V86.2H410.5z
	 M30,256V55.2C30,41.3,41.3,30,55.2,30h241c13.9,0,25.2,11.3,25.2,25.2V241c-11.3,10.5-19.4,24.4-22.6,40.1h-85.5
	c-7-34.3-37.4-60.3-73.7-60.3s-66.8,25.9-73.7,60.3H55.2C41.3,281.2,30,269.9,30,256z M139.5,341.4c-24.9,0-45.2-20.3-45.2-45.3
	c0-24.9,20.3-45.3,45.2-45.3c25,0,45.3,20.3,45.3,45.3C184.8,321.1,164.5,341.4,139.5,341.4z M372.5,341.4
	c-25,0-45.3-20.3-45.3-45.3c0-24.9,20.3-45.3,45.3-45.3c24.9,0,45.3,20.3,45.3,45.3C417.7,321.1,397.4,341.4,372.5,341.4z
	 M446.2,281.2c-7-34.3-37.4-60.3-73.7-60.3c-7.3,0-14.4,1.1-21.2,3.1v-57.4H482v114.6L446.2,281.2L446.2,281.2z"/>

    </symbol>


    <symbol id="icon-rouble" viewBox="0 0 9 13">
        <path d="M1.86207 12.6985H3.10345V10.4576H6.82759V8.96364H3.10345V7.4697H5.89655C7.60779 7.4697 9 5.79424 9 3.73485C9 1.67545 7.60779 0 5.89655 0H2.48276C2.31814 0 2.16027 0.0786985 2.04386 0.218783C1.92746 0.358867 1.86207 0.548861 1.86207 0.74697V5.97576H0V7.4697H1.86207V8.96364H0V10.4576H1.86207V12.6985ZM3.10345 1.49394H5.89655C6.92317 1.49394 7.75862 2.49936 7.75862 3.73485C7.75862 4.97034 6.92317 5.97576 5.89655 5.97576H3.10345V1.49394Z"/>
    </symbol>

    <symbol id="icon-undo" viewBox="0 0 512 512">
        <path d="M361.5,140.1H50.7l43.5-43.7c5.8-5.9,5.8-15.4,0-21.2c-5.9-5.8-15.4-5.8-21.2,0L4.4,144.1c-3,3-4.4,6.9-4.4,10.8c0,0.1,0,0.1,0,0.2c0,5.2,2.6,9.8,6.7,12.5L73,234.2c5.8,5.9,15.3,5.9,21.2,0c5.9-5.8,5.9-15.3,0-21.2l-42.7-42.9h310c66.4,0,120.5,54.1,120.5,120.5s-54.1,120.5-120.5,120.5H115c-8.3,0-15,6.7-15,15s6.7,15,15,15h246.5c83,0,150.5-67.5,150.5-150.5S444.5,140.1,361.5,140.1z"/>
    </symbol>

    <symbol id="icon-laptop" viewBox="0 0 512 384">
        <path d="M511.79,329.6a9.19,9.19,0,0,0-.39-1.86,10.81,10.81,0,0,0-.89-2.19c-.15-.26-.17-.56-.32-.79l-40.86-61.29V42.67A42.71,42.71,0,0,0,426.67,0H85.33A42.71,42.71,0,0,0,42.67,42.67V263.45L1.79,324.76a7.25,7.25,0,0,0-.36.87,9.3,9.3,0,0,0-.83,2,9.55,9.55,0,0,0-.41,2c0,.34-.19.62-.19,1v10.66A42.72,42.72,0,0,0,42.67,384H469.33A42.72,42.72,0,0,0,512,341.33V330.67a8.81,8.81,0,0,0-.21-1.07M64,42.67A21.37,21.37,0,0,1,85.33,21.33H426.67A21.37,21.37,0,0,1,448,42.67V256H64ZM59,277.33h393.9L481.36,320h-172a10.58,10.58,0,0,0-7.51,3.12l-7.55,7.55h-76.5l-7.55-7.55a10.74,10.74,0,0,0-7.55-3.12H30.59Zm410.3,85.34H42.67a21.37,21.37,0,0,1-21.34-21.34H198.25l7.51,7.56a10.77,10.77,0,0,0,7.55,3.11h85.33a10.69,10.69,0,0,0,7.56-3.11l7.55-7.56H490.67a21.37,21.37,0,0,1-21.34,21.34"/>
    </symbol>
    <symbol id="icon-filter" viewBox="0 0 24 20">
        <path d="M23.6666 3.33333H20.2499C19.8333 1.41667 18.1666 0 16.1666 0C14.1666 0 12.4999 1.41667 12.0833 3.33333H0.333252V5H12.0833C12.4999 6.91667 14.1666 8.33333 16.1666 8.33333C18.1666 8.33333 19.8333 6.91667 20.2499 5H23.6666V3.33333ZM16.1666 6.66667C14.7499 6.66667 13.6666 5.58333 13.6666 4.16667C13.6666 2.75 14.7499 1.66667 16.1666 1.66667C17.5833 1.66667 18.6666 2.75 18.6666 4.16667C18.6666 5.58333 17.5833 6.66667 16.1666 6.66667Z"/>
        <path d="M0.333252 16.6667H3.74992C4.16659 18.5833 5.83325 20 7.83325 20C9.83325 20 11.4999 18.5833 11.9166 16.6667H23.6666V15H11.9166C11.4999 13.0833 9.83325 11.6667 7.83325 11.6667C5.83325 11.6667 4.16659 13.0833 3.74992 15H0.333252V16.6667ZM7.83325 13.3333C9.24992 13.3333 10.3333 14.4167 10.3333 15.8333C10.3333 17.25 9.24992 18.3333 7.83325 18.3333C6.41659 18.3333 5.33325 17.25 5.33325 15.8333C5.33325 14.4167 6.41659 13.3333 7.83325 13.3333Z"/>
    </symbol>
</svg>