<svg xmlns="http://www.w3.org/2000/svg" viewBox="0 0 270.24 539.38"><defs><style>.a{fill:#5dd782;}.b{fill:#2c2c2c;}.c{fill:#81e3a5;}.d{fill:#ecf1f9;}</style></defs><title>Ресурс 2</title><path class="a" d="M255.26,120.12c1.35,9.87.59,20.62-1.75,31.85-15.43,74.44-100,170-100,170S11.64,230,1.37,154.75C-6.39,97.83,19.44,44.62,62.81,17.92A120,120,0,0,1,109.73,1.11C179.84-8.45,245,44.83,255.26,120.12Z"/><path class="a" d="M153.48,321.92s-.11,20.78,7.81,21.08,18.58-8.76,17.33-13.43S153.48,321.92,153.48,321.92Z"/><path class="b" d="M156,322.75l-4.14.56a1.63,1.63,0,0,1-1.83-1.39h0a1.63,1.63,0,0,1,1.39-1.83l4.14-.57a1.64,1.64,0,0,1,1.83,1.4h0A1.63,1.63,0,0,1,156,322.75Z"/><path class="b" d="M210.09,539.38a17.84,17.84,0,0,0-1.57-7.72,4.83,4.83,0,0,0-3.43-2.82c.55-.46,55.12-45.89,58.25-75.7,1.7-16.17-39.82-22.77-73.18-28.08-29.43-4.68-54.76-4.51-57.37-16.83-2.42-11.43,18-25.84,33-38.06,8.86-7.2,18.91-15.36,18-18.45-1.08-3.77-11.39-3.44-19.68-3.16-10.36.34-19.31.63-21-4.45-3-9.12,8.85-21.46,9.36-22l.59.58c-.11.12-9.81,13-7.33,20.54,1,3.12,10.59,2.81,18.28,2.55,10.67-.35,23.69-1.35,25.35,4.5,1.32,4.62-8.9,11.47-21.88,22-13.74,11.16-30.83,25-29,34.92,1.31,7,27.11,11.14,52.06,15.11,38.08,6.06,81.55,11.43,79.58,30.2-1.37,13-12.13,30.66-30,53.85C227.41,522.84,210.23,539.27,210.09,539.38Z"/><path class="c" d="M255.26,120.12c1.35,9.87.59,20.62-1.75,31.85-23.58,45.2-77.7,61.89-151.53,30.55C-50.89,117.62,62.81,17.93,62.81,17.93h0A120,120,0,0,1,109.73,1.11C179.84-8.45,245,44.83,255.26,120.12Z"/><path class="d" d="M205,65.94c-4.34,6.29-30.85,5.94-45.84-4.4s-16.91-26.46-13.43-33.26c6.69-13,27.2-5.92,42.19,4.42S209.37,59.65,205,65.94Z"/></svg>