<svg xmlns="http://www.w3.org/2000/svg" viewBox="0 0 100 100"><defs><style>.a{fill:#33b59c;}</style></defs><title>Ресурс 1</title><path class="a" d="M50,0a50,50,0,1,0,50,50A50,50,0,0,0,50,0ZM35.28,33.16a6.14,6.14,0,1,1-6.15,6.14A6.14,6.14,0,0,1,35.28,33.16Zm33.08,29c-6.21,6.21-12.7,9.35-19.3,9.35l-1.05,0c-10.68-.54-17.7-9-18-9.37a.49.49,0,0,1,.07-.7.5.5,0,0,1,.7.07c.07.09,7.05,8.49,17.28,9,6.66.34,13.26-2.71,19.58-9a.51.51,0,0,1,.71,0A.5.5,0,0,1,68.36,62.11ZM62.5,45.44a6.14,6.14,0,1,1,6.14-6.14A6.14,6.14,0,0,1,62.5,45.44Z"/></svg>