<svg xmlns="http://www.w3.org/2000/svg" viewBox="0 0 206.97 289.62"><defs><style>.a{fill:#ff2948;}.b{fill:#2c2c2c;}.c{fill:#ff4d67;}.d{fill:#ecf1f9;}</style></defs><title>Ресурс 1</title><path class="a" d="M191,124.75A56.73,56.73,0,0,1,177.18,138C140,164.2,64.05,171.42,64.05,171.42S39.55,73.32,65.8,36.21C85.65,8.15,118.67-4.56,148.54,1.47a71.9,71.9,0,0,1,27.38,11.81C210.48,37.73,217.21,87.63,191,124.75Z"/><path class="a" d="M64.05,171.42s-8.54,9-5.2,12.41,11.71,3.75,13.06,1.2S64.05,171.42,64.05,171.42Z"/><path class="b" d="M64.83,172.83l-2-1.45a1,1,0,0,1-.23-1.35h0a1,1,0,0,1,1.35-.24l2,1.45a1,1,0,0,1,.23,1.35h0A1,1,0,0,1,64.83,172.83Z"/><path class="b" d="M0,289.62a10.75,10.75,0,0,0,2.47-4A2.9,2.9,0,0,0,2.12,283c.42,0,42.84,2.45,56.38-9.31,7.35-6.38-8.11-26.22-20.53-42.16-11-14.07-22.1-24.34-18.21-30.79,3.61-6,18.39-4,30-3.17,6.82.48,14.54,1,15.42-.7,1.07-2.09-3.57-6.15-7.31-9.42-4.67-4.08-8.7-7.61-7.36-10.51,2.41-5.22,12.63-5.77,13.07-5.79l0,.49c-.1,0-9.6,1.68-11.59,6-.83,1.78,3.48,5.55,7,8.58,4.81,4.2,10.91,9.08,9.25,12.32-1.32,2.55-8.58,1.38-18.56.69-10.56-.73-23.71-1.64-26.94,3.43-2.3,3.61,7.31,15.94,16.6,27.86,14.18,18.2,31,38.3,22.46,45.7-5.92,5.15-17.82,8.46-35.13,11.28A205.42,205.42,0,0,1,0,289.62Z"/><path class="c" d="M191,124.75A56.73,56.73,0,0,1,177.18,138c-28.76,10.13-59.24-4.67-78.73-48.52-40.34-90.8,50.09-88,50.09-88h0a71.9,71.9,0,0,1,27.38,11.81C210.48,37.73,217.21,87.63,191,124.75Z"/><path class="d" d="M191.12,80.54c-4.47,1-15.92-10-18.25-20.64s3.41-18.48,7.71-20c8.24-3,14.31,8.51,16.64,19.16S195.58,79.57,191.12,80.54Z"/></svg>