<svg xmlns="http://www.w3.org/2000/svg" viewBox="0 0 100 100"><defs><style>.a{fill:#de2d42;}</style></defs><title>Ресурс 1</title><path class="a" d="M50,0a50,50,0,1,0,50,50A50,50,0,0,0,50,0ZM35.28,33.16a6.14,6.14,0,1,1-6.15,6.14A6.14,6.14,0,0,1,35.28,33.16Zm33,38.19a.5.5,0,0,1-.7-.07c-.07-.09-7.05-8.48-17.27-9-6.67-.33-13.27,2.71-19.59,9a.54.54,0,0,1-.36.14.52.52,0,0,1-.35-.14.5.5,0,0,1,0-.71c6.54-6.54,13.4-9.68,20.36-9.33,10.67.54,17.69,9,18,9.37A.5.5,0,0,1,68.32,71.35ZM62.5,45.44a6.14,6.14,0,1,1,6.14-6.14A6.14,6.14,0,0,1,62.5,45.44Z"/></svg>