<svg xmlns="http://www.w3.org/2000/svg" xmlns:xlink="http://www.w3.org/1999/xlink" viewBox="0 0 896.63 434.33"><defs><style>.a{isolation:isolate;}.b{fill:#cfe4ff;}.c{fill:#5e3c69;}.d{fill:#69b78b;}.e,.h{fill:#f7b9b9;}.e,.q,.t{opacity:0.32;mix-blend-mode:multiply;}.f{fill:#cd4b76;}.g{fill:#5b89c2;}.i{fill:#fff;}.j{fill:url(#a);}.k{fill:url(#b);}.l,.t{fill:#ab777d;}.m{fill:url(#c);}.n{fill:url(#d);}.o{fill:url(#e);}.p,.q{fill:#e29ea6;}.aj,.ao,.r{fill:none;}.r{stroke:#fff;stroke-width:0.69px;}.ao,.r{stroke-miterlimit:10;}.s{fill:url(#f);}.u{fill:url(#g);}.v{fill:url(#h);}.w{fill:url(#i);}.x{fill:url(#j);}.y{fill:url(#k);}.z{fill:url(#l);}.aa{fill:url(#m);}.ab{fill:url(#n);}.ac{fill:#c4edb9;}.ad{opacity:0.6;}.ad,.ag{mix-blend-mode:overlay;}.ae{fill:#428e60;}.af{fill:#459b00;}.ah{fill:url(#o);}.ai{fill:url(#p);}.ak{fill:url(#q);}.al{fill:url(#r);}.am{fill:#c7857c;}.an{fill:url(#s);}.ao{stroke:#cd4b76;stroke-width:3.7px;}.ap{fill:#f9fbfc;}.aq{fill:url(#t);}.ar{font-size:36.03px;font-family:Roboto-Bold, Roboto;font-weight:700;}.as{letter-spacing:-0.01em;}.at{letter-spacing:0em;}</style><linearGradient id="a" x1="177.19" y1="71.29" x2="253.67" y2="71.29" gradientTransform="matrix(0.1, -0.99, -0.99, -0.1, 441.78, 366.56)" gradientUnits="userSpaceOnUse"><stop offset="0.2" stop-color="#ffd584"/><stop offset="0.92" stop-color="#fcd271"/></linearGradient><linearGradient id="b" x1="300.54" y1="157.39" x2="382.9" y2="157.39" gradientTransform="matrix(1, 0, 0, 1, 0, 0)" xlink:href="#a"/><linearGradient id="c" x1="454.83" y1="86.21" x2="549.39" y2="86.21" gradientTransform="translate(555.54 -293.49) rotate(108.63)" xlink:href="#a"/><linearGradient id="d" x1="317.58" y1="102.89" x2="337.76" y2="102.89" gradientTransform="matrix(1, 0, 0, 1, 0, 0)" xlink:href="#a"/><linearGradient id="e" x1="335.2" y1="102.89" x2="355.38" y2="102.89" gradientTransform="matrix(1, 0, 0, 1, 0, 0)" xlink:href="#a"/><linearGradient id="f" x1="513.07" y1="78.51" x2="583.24" y2="78.51" gradientTransform="matrix(1, 0, 0, 1, 0, 0)" xlink:href="#a"/><linearGradient id="g" x1="537.97" y1="77.78" x2="546.79" y2="77.78" gradientTransform="matrix(1, 0, 0, 1, 0, 0)" xlink:href="#a"/><linearGradient id="h" x1="520.32" y1="75.51" x2="568.37" y2="75.51" gradientTransform="matrix(1, 0, 0, 1, 0, 0)" xlink:href="#a"/><linearGradient id="i" x1="1118.53" y1="48.62" x2="1131.34" y2="48.62" gradientTransform="matrix(-1, 0, 0, 1, 1414.53, 0)" xlink:href="#a"/><linearGradient id="j" x1="1120.67" y1="20.38" x2="1129.34" y2="20.38" gradientTransform="matrix(-1, 0, 0, 1, 1414.53, 0)" xlink:href="#a"/><linearGradient id="k" x1="1141.07" y1="30.97" x2="1159.91" y2="30.97" gradientTransform="matrix(-1, 0, 0, 1, 1414.53, 0)" xlink:href="#a"/><linearGradient id="l" x1="689.67" y1="56.84" x2="702.48" y2="56.84" gradientTransform="matrix(1, 0, 0, 1, 0, 0)" xlink:href="#a"/><linearGradient id="m" x1="691.81" y1="28.59" x2="700.48" y2="28.59" gradientTransform="matrix(1, 0, 0, 1, 0, 0)" xlink:href="#a"/><linearGradient id="n" x1="712.21" y1="39.19" x2="731.05" y2="39.19" gradientTransform="matrix(1, 0, 0, 1, 0, 0)" xlink:href="#a"/><linearGradient id="o" x1="720.95" y1="91.32" x2="768.1" y2="91.32" gradientTransform="matrix(1, 0, 0, 1, 0, 0)" xlink:href="#a"/><linearGradient id="p" x1="710.57" y1="74.59" x2="759.66" y2="74.59" gradientTransform="matrix(1, 0, 0, 1, 0, 0)" xlink:href="#a"/><linearGradient id="q" x1="148.69" y1="177" x2="178.34" y2="177" gradientTransform="matrix(1, 0, 0, 1, 0, 0)" xlink:href="#a"/><linearGradient id="r" x1="142.15" y1="111.45" x2="195.5" y2="111.45" gradientTransform="matrix(1, 0, 0, 1, 0, 0)" xlink:href="#a"/><linearGradient id="s" x1="109.02" y1="179.16" x2="147.03" y2="179.16" gradientTransform="matrix(1, 0, 0, 1, 0, 0)" xlink:href="#a"/><linearGradient id="t" x1="103.73" y1="175.69" x2="173.85" y2="175.69" gradientTransform="matrix(1, 0, 0, 1, 0, 0)" xlink:href="#a"/></defs><title>Ресурс 1</title><g class="a"><path class="b" d="M162.63,122c-13.09,5.16-27.35,11.35-32.34,22.61-10.76,24.27,29.26,46.79,25.08,72.41-3.58,21.91-35.46,30.93-53.22,47.47-14.1,13.13-19.1,32.52-12.71,49.27s24,30.25,44.62,34.3c32.52,6.37,70.17-9,98.53,5.65,20.82,10.73,28.8,34.5,51,43.06,23.9,9.2,51.25-3.47,72.6-16.26s46.71-27,71.92-20.58c24.32,6.15,39.73,30,65.13,31s43.11-21.52,67.59-27.47c24.88-6,50.38,6.06,76,9.2,37.18,4.56,76.8-12,94.35-39.53,4.62-7.24,7.79-15,10.93-22.81q7.66-18.9,15.34-37.81c7.06-17.44,14.21-35.21,14.58-53.6.5-24.59-11.85-49.18-33.26-66.24s-51.58-26.36-81.27-25c-13.17.58-28.69,2.46-37.46-5.69-12.56-11.67,1.88-30.36-2.8-45.5-3.7-12-19.37-19.33-34.32-19.84s-29.34,4.31-43.06,9.26-27.75,10.21-42.7,10.68c-24.48.75-46.47-11.28-69.6-18s-54.55-5.39-65.19,12.87C355.74,83,358,99.78,344.1,105.31c-13.58,5.39-27.78-5.93-36.65-16C301,82,290.19,70.82,277.79,72.88,269,74.34,257.73,84.3,249.4,87.75,220.77,99.62,191.54,110.58,162.63,122Z"/><path class="c" d="M624.61,391.32c-6.31,2-8.49,1.81-15.13,1.38l-11,8.92s-12.59,9.64-11.31,13.12S623.16,407,623.16,407a5.82,5.82,0,0,0,3.57-8C625.36,395.26,624.19,394.63,624.61,391.32Z"/><path class="c" d="M653.49,393c6.47,1.39,8.63,1,15.2,0l11.73,7.89s13.43,8.43,12.47,12-36.52-4.45-36.52-4.45a5.82,5.82,0,0,1-4.28-7.63C653.11,397,654.22,396.23,653.49,393Z"/><path class="d" d="M613.12,211.05,605,393.92s20.48,3.17,22.6-2.47,17.65-171.23,17.65-171.23Z"/><path class="e" d="M613.48,216.34,605,393.92s20.48,3.17,22.6-2.47S645.25,222.7,645.25,222.7Z"/><path class="d" d="M680.2,219.87l-4.59,174.75s-22.59,3.89-24.71,0-7.77-144.74-7.77-144.74l-7.76-12.36L615.6,211.4Z"/><path class="f" d="M676.06,196.33c-1.19,9.16-2.78,18.41-1.59,27.57a68.5,68.5,0,0,1-44.75.41c-4.85-1.64-9.76-4-12.61-8.3-4.15-6.21-2.83-14.43-1.29-21.73q6.76-32.13,15.08-63.9c1.18-4.53,2.55-11,5.52-14.65,4.93-6,13.11-5.82,20.49-5.23,4.75.38,12-4,15.88-.77,5.14,4.21,5,18.82,5.36,24.69q.9,14.51.5,29.06A325.45,325.45,0,0,1,676.06,196.33Z"/><polygon class="g" points="698.21 125.26 714.8 188.1 682.67 216.34 698.21 125.26"/><polygon class="c" points="698.21 125.26 714.8 188.1 682.67 216.34 698.21 125.26"/><polygon class="c" points="623.78 112.94 583.08 178.93 639.32 204.02 623.78 112.94"/><path class="h" d="M683.34,72c1.43.64,2.07,2.34,2.21,3.9a10.65,10.65,0,0,1-7.13,10.75c-1.33.42-3,.48-3.9-.58s-.54-2.74,0-4.07C675.5,79.42,679.44,70.22,683.34,72Z"/><path class="c" d="M684.08,75.77a3.29,3.29,0,0,0-1.73.55,8,8,0,0,0-3,3.15A13.23,13.23,0,0,0,678,83.6a5.25,5.25,0,0,0-.14,1.8,9.42,9.42,0,0,0,.47-1.73,16.84,16.84,0,0,1,1.46-4,8.59,8.59,0,0,1,2.79-3.08C683.43,76,684.1,75.85,684.08,75.77Z"/><path class="c" d="M679.3,84.59c.06,0,.29-.24.62-.72a7.35,7.35,0,0,0,1-2.06,3.93,3.93,0,0,0,0-2.32c-.2-.57-.48-.84-.53-.8s.11.35.21.89a4.88,4.88,0,0,1-.11,2.11,12.72,12.72,0,0,1-.82,2C679.38,84.22,679.24,84.56,679.3,84.59Z"/><path class="h" d="M635.33,72c-1.43.64-2.08,2.34-2.21,3.9a10.65,10.65,0,0,0,7.13,10.75c1.33.42,3,.48,3.9-.58s.54-2.74,0-4.07C643.17,79.42,639.23,70.22,635.33,72Z"/><path class="c" d="M634.59,75.77a3.25,3.25,0,0,1,1.72.55,8,8,0,0,1,3,3.15,13.18,13.18,0,0,1,1.36,4.13,5.45,5.45,0,0,1,.15,1.8,8.52,8.52,0,0,1-.47-1.73,16.84,16.84,0,0,0-1.46-4,8.59,8.59,0,0,0-2.79-3.08C635.24,76,634.57,75.85,634.59,75.77Z"/><path class="c" d="M639.37,84.59c-.06,0-.29-.24-.62-.72a7.34,7.34,0,0,1-1-2.06,4,4,0,0,1,0-2.32c.2-.57.48-.84.52-.8s-.1.35-.2.89a4.73,4.73,0,0,0,.11,2.11,12.79,12.79,0,0,0,.81,2C639.29,84.22,639.42,84.56,639.37,84.59Z"/><path class="h" d="M650.66,95.27l-.81,12.7a6.16,6.16,0,0,0,6.14,6.55h3a6.16,6.16,0,0,0,6.11-5.42l2.26-18.8Z"/><path class="e" d="M665.5,105.74l1.86-15.44-16.7,5-.77,12.07A33.52,33.52,0,0,0,665.5,105.74Z"/><path class="h" d="M640.53,85.43a18.77,18.77,0,0,0,5.59,11.64c5.85,5.67,13,5.88,20.19,2.85,6-2.52,8.87-5.66,9.72-12.1.88-6.69,2.74-13.32.24-19.82a18.32,18.32,0,0,0-6.55-8.4A38.64,38.64,0,0,0,661,55.26c-5.11-2-12.72-4.51-16.92,1.54-4.84,7-4.19,20.28-3.57,28.33Z"/><path class="c" d="M670,84.7c2.58-1.56,2.18-8.7,4.42-9.64a1.56,1.56,0,0,1,1.88,1,4.55,4.55,0,0,1,.08,2.35c-.65,4.61,2.05,9.92.8,14.46-1.36,5-8.71,9-13.19,10.41A24.41,24.41,0,0,1,646.37,102a14.54,14.54,0,0,1-6.18-5.07c-1.58-2.48-3-9.25.07-11.17a6.35,6.35,0,0,1,1-6.75,6.67,6.67,0,0,1,0-6.4c2.09,2.61,1.22,7.41,2.95,10.17,2.16,3.46,9,4.06,12.68,4S666.86,86.59,670,84.7Z"/><path class="c" d="M670.21,70.74c.16-.08,0-.52-.61-1.07a7.51,7.51,0,0,0-3.09-1.52,9.34,9.34,0,0,0-3.68-.19c-.93.16-1.41.43-1.35.57.14.3,2.22,0,4.56.67S669.86,70.92,670.21,70.74Z"/><path class="c" d="M654.08,68.87c0-.15-.68-.25-1.72-.2a14.42,14.42,0,0,0-3.79.73A7.49,7.49,0,0,0,645.75,71c-.51.52-.37.91-.09.94s.67-.21,1.32-.49,1.63-.7,2.74-1.08C652,69.55,654.13,69.18,654.08,68.87Z"/><path class="c" d="M650.52,78.37c-.71,0-1.39-.93-1.29-2.08s.94-2.06,1.65-2,1,.95.93,2.07S651.23,78.37,650.52,78.37Z"/><path class="c" d="M657.83,74.2c-.21,1.14-.34,2.26-.46,3.38L657,80.93l-.08.84,0,.41a.9.9,0,0,1-.06.22.73.73,0,0,1-.34.36,1,1,0,0,1-.27.1,1.44,1.44,0,0,0-.59.3,1.5,1.5,0,0,0-.46,1.07,2,2,0,0,0,.26,1,3.43,3.43,0,0,0,1.38,1.15A4.74,4.74,0,0,1,656,85a1,1,0,0,1,.25-1.1.53.53,0,0,1,.19,0,2.08,2.08,0,0,0,.53-.14,1.86,1.86,0,0,0,.89-.78,1.54,1.54,0,0,0,.2-.58l.07-.44.1-.85a23.22,23.22,0,0,0,.1-3.44A17.16,17.16,0,0,0,657.83,74.2Z"/><path class="i" d="M654,91.52c.1-.06.4.19,1,.49a6.29,6.29,0,0,0,2.41.74,8,8,0,0,0,2.72-.24c.7-.18,1.13-.36,1.2-.29s-.27.38-1,.69a6.61,6.61,0,0,1-3.11.46,4.84,4.84,0,0,1-2.65-1C654.06,91.92,653.94,91.56,654,91.52Z"/><path class="c" d="M661.82,77.8a4.06,4.06,0,0,1,1.78-1.18,4.6,4.6,0,0,1,2-.13,7,7,0,0,1,2,.58,6.37,6.37,0,0,1,1.77,1.16l.08.06a.2.2,0,0,0,.26,0c.28-.24.09-.56-.26-.44l.34.07a4.66,4.66,0,0,0-1.67-1.8,5.37,5.37,0,0,0-2.36-.81,4.06,4.06,0,0,0-2.48.51A3,3,0,0,0,661.82,77.8Z"/><path class="c" d="M670.59,63.66l-.52.07c-11.4,1.37-21.78,1-31.12-6.76-1.61-1.34-3.17-3-3.45-5.06s1.44-4.45,3.5-4.1a4.68,4.68,0,0,1,1.28-5.54l13.3-.23a5.51,5.51,0,0,1,3.65-6.51c-.15,3.57,3.18,6.36,6.55,7.54s7.06,1.39,10.26,3a9.28,9.28,0,0,1,4.69,10.77C677.57,61.5,674.79,63.07,670.59,63.66Z"/><path class="c" d="M674.09,50.24c3.41.45,5.84,3.62,7,6.85a19.78,19.78,0,0,1-.85,15.28c-.5,1-1.09,2-1.69,3-1,1.73-3.24,6.91-5,3.43-.54-1.06.24-4.28.22-5.55a33.27,33.27,0,0,0-.48-5.55c-.83-4.6-3.06-9.14-6.93-11.76a13.91,13.91,0,0,0-12-1.59,15,15,0,0,0-8.88,8.28c-2.64,6.21-1,13.57-3.5,19.84,1.2-3-2.77-6.69-4.23-8.93a16.14,16.14,0,0,1-2.39-9.17c.1-4.66,1.37-10.62,4.38-14.29,2.73-3.33,11.12-1.93,13.82,1"/><path class="c" d="M672.79,109.73l25.42,15.53-13.42,132s-15.18-5.65-16.59-10.59S672.79,109.73,672.79,109.73Z"/><path class="c" d="M643.37,111.49,619.48,232.93s-3.88,11.3-11.3,12.36S624,112.59,624,112.59Z"/><path class="e" d="M653.68,205.14a45.26,45.26,0,0,1,7,.82c2.14.59,3.81,2.07,2.76,3.27s-3.73,1.36-6,1.37c-2.57,0-5.13,0-7.69-.16-6.05-.26-12.61-1-16.44-3.69-2.39-1.67-3.36-4-2.54-6.07a6.67,6.67,0,0,1,4.58-4c3.51-.62,3.71.93,5,2.33C643.12,202.06,647.53,204.49,653.68,205.14Z"/><polygon class="c" points="649.85 107.97 635.26 110.67 629.2 181.43 649.85 107.97"/><polygon class="e" points="649.85 107.97 635.26 110.67 629.2 181.43 649.85 107.97"/><polygon class="c" points="665.1 109.1 669.34 194.14 682.05 115.29 671.94 108.07 665.1 109.1"/><polygon class="e" points="665.1 109.1 669.34 194.14 682.92 115.29 671.94 108.07 665.1 109.1"/><path class="c" d="M368.49,384.64c6.42,2,8.64,1.84,15.41,1.4l11.15,9.09s12.82,9.8,11.52,13.35S370,400.55,370,400.55a5.93,5.93,0,0,1-3.63-8.13C367.72,388.64,368.92,388,368.49,384.64Z"/><path class="c" d="M338.29,385.63c-6.58,1.41-8.77,1-15.47,0l-11.94,8s-13.67,8.58-12.7,12.24,37.18-4.53,37.18-4.53a5.93,5.93,0,0,0,4.37-7.77C338.69,389.69,337.56,388.94,338.29,385.63Z"/><path class="h" d="M465.34,181.91a17.44,17.44,0,0,1,1.68.69c.87.41,2.88.92,3.32,1.84,0,.07.68,2.29,0,2,4.57,2.07-.92,4.5-3.14,5-4.81,1-12.38.83-17.14-.76-4.09-1.38-12.19-4.46-10.21-10.24,2.68-7.79,15.74-5.76,21.88-5.37-.74,2.54-3,3-4.95,4.31C458.51,180.22,463.52,181.24,465.34,181.91Z"/><path class="j" d="M367.81,103.74l6.23,7.79,23.83,34.65,51.69,27.46s-3.47,15.9-7.33,14.77-63.82-25.47-63.82-25.47L338,107.28Z"/><polygon class="e" points="339.32 108.58 355.05 108.19 384.46 153.45 442.23 188.41 378.41 162.94 339.32 108.58"/><path class="g" d="M379.39,200.42l8.27,186.17s-20.85,3.23-23-2.52-18-174.31-18-174.31Z"/><path class="e" d="M379.39,200.42l8.27,186.17s-20.85,3.23-23-2.52-18-174.31-18-174.31Z"/><path class="g" d="M311.11,209.4l4.67,177.9s23,4,25.15,0S348.84,240,348.84,240l7.91-12.58,20.12-26.59Z"/><path class="k" d="M367.81,103.74c-3.55-.68-5.78-3.55-9.53-4.24a64.81,64.81,0,0,0-13.71-.59c-8.49,0-15.26,2.79-23.84,2.23-1.33-.09-5.93,2.24-7.22,2.6-4.07,1.12-3.53,4.41-6.3,7.56-1.51,1.79-6.75,18.3-6.67,20.45.83,26.16-.85,52.91,3.06,78.75.19,1.24,7.79,3.15,9,3.49a49.85,49.85,0,0,0,10.13,1.75c6.38.45,13,.07,19.45-.05,13.72-.28,27.68-1.71,40.74-6.13-.72-7.71-.34-15.78-1.16-23.64-.6-5.75-1.26-11.51-2.09-17.23-2.88-20.05-6.31-40-10-59.94C369.37,107,368.09,105.46,367.81,103.74Z"/><path class="h" d="M311.8,63.07c-1.45.65-2.11,2.38-2.25,4A10.84,10.84,0,0,0,316.82,78c1.35.43,3.05.49,4-.59s.56-2.79,0-4.14C319.79,70.64,315.78,61.28,311.8,63.07Z"/><path class="c" d="M311.05,66.93a3.34,3.34,0,0,1,1.76.56,8.06,8.06,0,0,1,3.08,3.2,13.4,13.4,0,0,1,1.4,4.21,6,6,0,0,1,.15,1.83A8.63,8.63,0,0,1,317,75a16.67,16.67,0,0,0-1.48-4,8.93,8.93,0,0,0-2.84-3.14C311.71,67.18,311,67,311.05,66.93Z"/><path class="c" d="M315.92,75.91c-.06,0-.3-.24-.63-.73a7.63,7.63,0,0,1-1-2.1,4.14,4.14,0,0,1,0-2.36c.2-.59.49-.86.53-.82s-.1.36-.2.91a4.86,4.86,0,0,0,.11,2.14,12,12,0,0,0,.83,2.06C315.83,75.53,316,75.87,315.92,75.91Z"/><path class="h" d="M360.68,63.07c1.46.65,2.11,2.38,2.25,4A10.83,10.83,0,0,1,355.67,78c-1.35.43-3.05.49-4-.59s-.55-2.79,0-4.14C352.7,70.64,356.71,61.28,360.68,63.07Z"/><path class="c" d="M361.43,66.93a3.32,3.32,0,0,0-1.75.56,8.08,8.08,0,0,0-3.09,3.2,13.61,13.61,0,0,0-1.39,4.21,5.3,5.3,0,0,0-.15,1.83,9.11,9.11,0,0,0,.48-1.76,17.1,17.1,0,0,1,1.48-4,8.93,8.93,0,0,1,2.84-3.14C360.77,67.18,361.46,67,361.43,66.93Z"/><path class="c" d="M356.57,75.91c.05,0,.3-.24.62-.73a7.35,7.35,0,0,0,1-2.1,4.06,4.06,0,0,0,0-2.36c-.21-.59-.49-.86-.54-.82s.11.36.21.91a4.74,4.74,0,0,1-.12,2.14A12.94,12.94,0,0,1,356.9,75C356.65,75.53,356.51,75.87,356.57,75.91Z"/><path class="h" d="M345.07,85.36l-17-3.64,1.39,15.59c.38,2.27,3.89,5.62,7.06,5.62h3.05c3.62,0,7.45-3,7.22-5.62Z"/><path class="e" d="M330,97.44l-1.89-15.72,17,5.06.79,12.29A34.21,34.21,0,0,1,330,97.44Z"/><path class="h" d="M355.39,76.76a19.27,19.27,0,0,1-5.69,11.86c-6,5.77-13.23,6-20.56,2.89-6.09-2.56-9-5.76-9.89-12.32-.9-6.81-2.8-13.56-.25-20.18a18.59,18.59,0,0,1,6.67-8.54,39,39,0,0,1,8.88-4.42c5.21-2,12.95-4.6,17.23,1.56,4.93,7.11,4.27,20.65,3.63,28.84C355.4,76.56,355.4,76.66,355.39,76.76Z"/><path class="l" d="M325.17,61.81c-.17-.09,0-.53.62-1.09a7.67,7.67,0,0,1,3.15-1.55,9.31,9.31,0,0,1,3.75-.19c.94.16,1.43.44,1.37.58-.14.31-2.26,0-4.65.68S325.52,62,325.17,61.81Z"/><path class="l" d="M341.59,59.9c0-.15.69-.25,1.75-.2a14.66,14.66,0,0,1,3.86.75A7.47,7.47,0,0,1,350.07,62c.51.53.38.93.09.95s-.68-.2-1.34-.49-1.66-.71-2.79-1.1C343.75,60.6,341.54,60.22,341.59,59.9Z"/><path class="c" d="M345.22,69.57c.72,0,1.41-.95,1.3-2.11s-.95-2.1-1.67-2.07-1,1-1,2.11S344.49,69.57,345.22,69.57Z"/><path class="c" d="M329.22,70.49c.7.13,1.55-.68,1.66-1.85s-.56-2.23-1.27-2.34-1.2.77-1.31,1.91S328.5,70.36,329.22,70.49Z"/><path class="c" d="M337.77,65.32c.22,1.17.34,2.31.47,3.45l.37,3.41.08.85,0,.42a.78.78,0,0,0,.4.59,1.17,1.17,0,0,0,.28.11,1.33,1.33,0,0,1,.6.31,1.47,1.47,0,0,1,.47,1.08,1.87,1.87,0,0,1-.27,1,3.46,3.46,0,0,1-1.39,1.18,4.78,4.78,0,0,0,.86-1.42,1,1,0,0,0-.26-1.11.38.38,0,0,0-.19,0,2.72,2.72,0,0,1-.54-.15,1.92,1.92,0,0,1-.91-.79,1.79,1.79,0,0,1-.21-.6l-.06-.44-.1-.87a24,24,0,0,1-.1-3.5A17.21,17.21,0,0,1,337.77,65.32Z"/><path class="c" d="M341.64,83c-.11-.06-.42.2-1,.5a6.28,6.28,0,0,1-2.45.75,8.36,8.36,0,0,1-2.77-.24c-.71-.19-1.15-.37-1.22-.29s.28.38,1,.69a6.72,6.72,0,0,0,3.17.47,5,5,0,0,0,2.69-1C341.61,83.37,341.73,83,341.64,83Z"/><path class="c" d="M345.74,80.9l-14,.59s-.78,5.59,4.92,6.14C344.51,88.39,345.74,80.9,345.74,80.9Z"/><path class="f" d="M338,84.38a7.12,7.12,0,0,0-5.77.23l0,0a4.92,4.92,0,0,0,4.49,3,8.76,8.76,0,0,0,4.47-.61A6.63,6.63,0,0,0,338,84.38Z"/><path class="l" d="M324.64,55.56a9.2,9.2,0,0,0,4.3-.14c-1.05-1.13.29-3.34,1.77-2.93a12.9,12.9,0,0,0,12.91,4A2.29,2.29,0,0,1,345.7,53c.91,1.85,1.81,3.7,2.72,5.54a11.79,11.79,0,0,0,10.43-11.33c0-13.76-19.45-13.48-28.83-12.48-6.68.71-15,4.12-13.79,12.39C316.83,51.37,320.52,54.75,324.64,55.56Z"/><path class="l" d="M321.22,40.94c-3.47.46-5.94,3.68-7.13,7A20.14,20.14,0,0,0,315,63.46c.51,1.05,1.11,2,1.72,3,1.07,1.77,3.3,7,5.11,3.5.55-1.08-.25-4.36-.23-5.66a34.59,34.59,0,0,1,.5-5.65c.84-4.68,3.11-9.3,7.05-12a14.13,14.13,0,0,1,12.19-1.61,15.17,15.17,0,0,1,9.05,8.42c2.69,6.32,1,13.82,3.55,20.2-1.22-3.07,2.83-6.81,4.31-9.09a16.4,16.4,0,0,0,2.44-9.33c-.11-4.76-1.4-10.82-4.46-14.55-2.78-3.39-11.32-2-14.07,1"/><path class="f" d="M310.91,104,319,214.93l11.26,1.16L320.15,100.27S313.8,101.43,310.91,104Z"/><path class="f" d="M367.13,100.58l8.65,110.87-11,2.77-6-114.47S363.9,98.51,367.13,100.58Z"/><path class="e" d="M337.87,170.56l-15.69-39.09c-3.06-7.35-11.36-6.22-19-8.48l-.65-.19,21.23,51.36C328.47,173,333.18,171.8,337.87,170.56Z"/><path class="m" d="M312.81,186.06c7.55-4.27,16.42-6.58,23.77-11.08l-1.07-.91-15.67-39-8.93-31s-19.13,5.47-17.62,30.9C292.66,134.92,311.92,183.78,312.81,186.06Z"/><path class="e" d="M352.23,98.53c-5.86-3.3-11.23,2-16,5.55-4.8-3.56-10.17-8.85-16-5.55a5.17,5.17,0,0,0-2.86,4.53c.11,1.93,1.64,3.46,3.19,4.63a29.59,29.59,0,0,0,11.13,5.23,11.86,11.86,0,0,1,4.57-7.1,11.81,11.81,0,0,1,4.57,7.1,29.56,29.56,0,0,0,11.14-5.23c1.54-1.17,3.07-2.7,3.19-4.63A5.17,5.17,0,0,0,352.23,98.53Z"/><path class="n" d="M320.45,96.22a5.17,5.17,0,0,0-2.86,4.53c.11,1.93,1.64,3.46,3.18,4.63a29.71,29.71,0,0,0,11.14,5.23,11.82,11.82,0,0,1,5.85-7.93C332.64,99.24,326.84,92.62,320.45,96.22Z"/><path class="o" d="M352.51,96.22a5.17,5.17,0,0,1,2.87,4.53c-.12,1.93-1.65,3.46-3.19,4.63a29.56,29.56,0,0,1-11.14,5.23,11.82,11.82,0,0,0-5.85-7.93C340.32,99.24,346.13,92.62,352.51,96.22Z"/><path class="c" d="M421.75,73.7c.18-6.23,4.26-11.9,9.54-14.86s11.56-3.52,17.51-2.71c4.56.62,9.13,2.06,12.71,5,6.12,5.09,8.37,14.25,6.41,22.14s-7.63,14.44-14.47,18.43c-2.7,1.58-5.79,2.83-8.84,2.25s-5.82-3.57-5.27-6.74"/><path class="p" d="M443.79,98.74c2.26,5.62,2.89,12.3,8.75,14.35,8.67,3.46,19.86,6.78,12.56,9.31-.89.31-3.82,8.38-4.62,7.87-.47-.3-23.57,16.53-23.82,16-1.08-2.07-15.54-11.33-16.18-13.57-.43-1.51-8-7.71-7.65-9.24.43-2.11,20.82-9.58,21.05-11.29s-1.9-4-2.59-5.41l-3.55-7.6Z"/><path class="q" d="M433.81,112.18l-6.07-13,16.05-.45,4.15,10.35A31,31,0,0,1,433.81,112.18Z"/><path class="p" d="M417.74,94.63a19.62,19.62,0,0,0,3.27,8.54c1.65,2.49,3.72,3.31,6.24,4.22,8,2.89,19.5,1.73,23-8.71,1.42.94,3.27-.35,3.89-2.11s.17-3.15.21-4.83c0-1.39.21-2.71.17-4.12a28.34,28.34,0,0,0-1.67-10.1A16.8,16.8,0,0,0,446.47,70a36.87,36.87,0,0,0-8.41-3.75c-4.91-1.7-12.21-3.82-16.08,1.78-2.24,3.25-1.52,9.67-2.41,13.65C418.62,85.9,417.27,90.18,417.74,94.63Z"/><path class="p" d="M458.81,86.22c1.3.81,1.71,2.53,1.64,4.07a10.39,10.39,0,0,1-8.29,9.49c-1.34.25-3,.09-3.7-1.06s-.17-2.72.5-3.94C450.26,92.42,455.25,84,458.81,86.22Z"/><path class="c" d="M459,90a3.2,3.2,0,0,0-1.74.31A7.75,7.75,0,0,0,454,93a12.91,12.91,0,0,0-1.86,3.84,5.6,5.6,0,0,0-.37,1.71,8.69,8.69,0,0,0,.68-1.61,16.51,16.51,0,0,1,1.92-3.66,8.48,8.48,0,0,1,3.1-2.64C458.38,90.14,459.05,90.07,459,90Z"/><path class="c" d="M453.28,97.92c.05,0,.31-.19.69-.61a7.1,7.1,0,0,0,1.21-1.88,3.94,3.94,0,0,0,.28-2.24c-.13-.59-.37-.88-.41-.85s.05.36.08.89a4.51,4.51,0,0,1-.38,2,11.33,11.33,0,0,1-1,1.86C453.4,97.58,453.23,97.88,453.28,97.92Z"/><path class="c" d="M444.46,86.34c.16-.07,0-.5-.54-1.08A7.42,7.42,0,0,0,441,83.59a9.24,9.24,0,0,0-3.58-.4c-.92.1-1.4.34-1.35.47.11.31,2.16.18,4.41.93S444.1,86.5,444.46,86.34Z"/><path class="c" d="M437.57,97.92c-.13-.06-.46.27-1.08.68a7.51,7.51,0,0,1-2.79,1.11,9.51,9.51,0,0,1-3.26,0c-.85-.14-1.37-.31-1.45-.21s.36.41,1.26.71a7.9,7.9,0,0,0,3.74.24A5.7,5.7,0,0,0,437,99C437.58,98.4,437.69,98,437.57,97.92Z"/><path class="c" d="M427.61,82.36c0-.15-.38-.37-1.07-.54a7,7,0,0,0-2.68-.09,4.83,4.83,0,0,0-2.27.86c-.48.39-.5.78-.32.86s.49,0,1-.18a16.76,16.76,0,0,1,2.09-.44C426,82.56,427.55,82.66,427.61,82.36Z"/><path class="c" d="M430.18,84.48a17.11,17.11,0,0,1,.23,3.35,23.45,23.45,0,0,1-.32,3.34l-.15.82-.05.22c0,.09-.05.17-.07.26a2.3,2.3,0,0,1-.26.49,2,2,0,0,1-.86.71,1.83,1.83,0,0,1-.55.13.24.24,0,0,0-.17,0,1,1,0,0,0-.32,1,4.53,4.53,0,0,0,.74,1.4,3.23,3.23,0,0,1-1.27-1.2,1.9,1.9,0,0,1-.19-1,1.44,1.44,0,0,1,.51-1,1.32,1.32,0,0,1,.58-.26.62.62,0,0,0,.25-.09.88.88,0,0,0,.36-.38.8.8,0,0,0,.11-.25.7.7,0,0,0,0-.14l0-.19L429,91l.56-3.24C429.7,86.66,429.9,85.57,430.18,84.48Z"/><path class="c" d="M437.79,91.61c.58.12,1.3-.52,1.42-1.48s-.41-1.85-1-1.95-1,.59-1.12,1.53S437.21,91.48,437.79,91.61Z"/><path class="c" d="M438.29,89a2.29,2.29,0,0,0,1.45-1,1.34,1.34,0,0,1-1,1.64,2.07,2.07,0,0,0,2-.24,2.2,2.2,0,0,1-2.56.67"/><path class="c" d="M425.16,90.75c-.58,0-1.21-.69-1.2-1.66s.65-1.78,1.24-1.8.92.73.91,1.67S425.76,90.7,425.16,90.75Z"/><path class="c" d="M425,88.12a2.28,2.28,0,0,1-1.3-1.23,1.34,1.34,0,0,0,.77,1.76,2.11,2.11,0,0,1-2-.52,2.19,2.19,0,0,0,2.46,1"/><path class="c" d="M427.43,99.13l11.3-1.71s1.49,4.35-3,5.68C429.59,104.94,427.43,99.13,427.43,99.13Z"/><path class="f" d="M434.18,100.71a5.79,5.79,0,0,1,4.65-.72h0a4,4,0,0,1-3.13,3.1,7.11,7.11,0,0,1-3.66.21A5.36,5.36,0,0,1,434.18,100.71Z"/><path class="r" d="M428,88.4a7.68,7.68,0,1,1-7.26-8.07A7.67,7.67,0,0,1,428,88.4Z"/><path class="r" d="M446.87,90.65a7.68,7.68,0,1,1-7.27-8.07A7.68,7.68,0,0,1,446.87,90.65Z"/><path class="r" d="M426.68,90.3a6.49,6.49,0,0,1,6-.13"/><path class="r" d="M446.5,89.72a41.51,41.51,0,0,1,11.06-4c.68-.14,1.63-.09,1.76.59"/><path class="c" d="M428.93,80.27C433.68,80,438.2,78,442.57,76c-1.3.58,9.29,10.33,10.93,10.83,5.55,1.71,6.51-5.85,6.31-10-.24-4.8-1-9.4-5-12.22a28.66,28.66,0,0,0-31.61-.73c-3.14,2-9,6.51-6.93,10.86,1.85,3.83,7.55,5.55,11.44,5.53C428.1,80.31,428.52,80.3,428.93,80.27Z"/><path class="c" d="M443.14,67.71a30.38,30.38,0,0,1,60.2,7.75c-.78,9.62-6,18.29-8.15,27.71a43.68,43.68,0,0,0,16,43.31,38.87,38.87,0,0,1-33.64-40.87c.37-6,2.13-11.87,2.83-17.86s.21-12.5-3.42-17.31-11.14-7-15.92-3.33c-1.24,1-2.21,2.2-3.38,3.23A5.63,5.63,0,0,1,453.39,72c-1.55-.19-2.95-1.77-2.48-3.26"/><path class="g" d="M390.8,166.38a11.06,11.06,0,0,0,5,5.56c2.63,1.41,5.94,3,9,2.24s5.24-3.34,7-5.91a75.05,75.05,0,0,0,10.89-23.5c1.26-4.73,2.05-9.81.52-14.46-1.16-3.54-5.27-8.29-9.33-8.22a3.81,3.81,0,0,0-3.82,4.25c.32,3.06-.15,6-2.57,8.18-1.48,1.35-3.39,2.12-5,3.31s-3,3.09-2.62,5S402,146.1,402,148a4.28,4.28,0,0,1-2.28,3.42c-1.22.74-2.63,1.13-3.9,1.79a10.89,10.89,0,0,0-5.57,11.55A9.75,9.75,0,0,0,390.8,166.38Z"/><path class="q" d="M390.8,166.38a11.06,11.06,0,0,0,5,5.56c2.63,1.41,5.94,3,9,2.24s5.24-3.34,7-5.91a75.05,75.05,0,0,0,10.89-23.5c1.26-4.73,2.05-9.81.52-14.46-1.16-3.54-5.27-8.29-9.33-8.22a3.81,3.81,0,0,0-3.82,4.25c.32,3.06-.15,6-2.57,8.18-1.48,1.35-3.39,2.12-5,3.31s-3,3.09-2.62,5S402,146.1,402,148a4.28,4.28,0,0,1-2.28,3.42c-1.22.74-2.63,1.13-3.9,1.79a10.89,10.89,0,0,0-5.57,11.55A9.75,9.75,0,0,0,390.8,166.38Z"/><path class="d" d="M442.3,407c1.26,3.43,2.65,6.08,3.9,7.13,2.2,1.84,5.52,2.5,8,1.05,2.3-1.35,3.4-4.18,3.38-6.85,0-4.19-2.15-6.54-3.86-10-2.39-4.83-3.64-10.64-5.37-15.75-.69-2-1.58-4.27-3.55-5.09C435,373.31,437.87,394.92,442.3,407Z"/><path class="q" d="M442.3,407c1.26,3.43,2.65,6.08,3.9,7.13,2.2,1.84,5.52,2.5,8,1.05,2.3-1.35,3.4-4.18,3.38-6.85,0-4.19-2.15-6.54-3.86-10-2.39-4.83-3.64-10.64-5.37-15.75-.69-2-1.58-4.27-3.55-5.09C435,373.31,437.87,394.92,442.3,407Z"/><path class="c" d="M462.13,202s11.57,16.38,8.9,79.28c-2.08,49.08-21.5,101.07-21.5,101.07s-13,.84-15.85-3.29,9-99.19,7.76-107-5.65-54.33-5.65-54.33l1.67-21Z"/><path class="q" d="M462.13,202s11.57,16.38,8.9,79.28c-2.08,49.08-21.5,101.07-21.5,101.07s-13,.84-15.85-3.29,9-99.19,7.76-107-5.65-54.33-5.65-54.33l1.67-21Z"/><path class="p" d="M413.71,201.16c14.48,7.18,33.63,1.94,48.77,0-3.62.45-8.12-41.07-8.76-45.28-.2-1.32-31.24,3.16-35,3.65a193.38,193.38,0,0,1,0,24.55C418.66,186.05,416.39,202.49,413.71,201.16Z"/><path class="p" d="M416.86,313.1s1.65,15.61,21,79.37c-.48,2.75-.8,7.25,1.32,9.64s15.9-7.26,12.17-11.45c-11.75-13.23-7.56-52.78-9.4-67.3l-7.69-14.89Z"/><path class="d" d="M449.18,385.22c-4.43,3.56-6.24,4.11-11.69,5.85l-6,10.59s-7.07,11.67-4.95,14,26.35-17.52,26.35-17.52a5,5,0,0,0,.36-7.52C451,388.13,449.88,388,449.18,385.22Z"/><path class="g" d="M463.18,131.17c1,3.06,1.62,6.24,2.6,9.29s2.58,5.13.9,8.27c-.93,1.73-2.64,3.22-2.58,5.17.07,2.74,3.5,4.27,4.11,6.94.74,3.28-3.08,6.37-2.2,9.61.62,2.28,3.22,3.33,5.53,3.81a22.91,22.91,0,0,0,9.68.15,13.6,13.6,0,0,0,8.09-5.07,9.73,9.73,0,0,0,1.32-9.24c-.86-2.08-2.56-3.85-2.82-6.08-.21-1.82.59-3.6.82-5.41a11.86,11.86,0,0,0-1.86-7.5c-1.74-2.9-5-5-5.62-8.39a45.39,45.39,0,0,0-.84-5.09c-.65-2.09-3-5.68-4.81-6.89s-3.13,0-5.3-.29"/><path class="c" d="M413.43,201.21C404.88,224,402.9,246.54,407,270.55c.46,2.68,1,7.71,1.53,10.32.63,3.21.93,6.52,1.45,9.76,1,6.46,2.24,12.91,3.55,19.32,2.43,11.87,5.25,23.65,8.36,35.35,3.18,12,7.69,28,11.64,39.73,0,0,11.94-1,14.66-5.23s-11.44-101.39-10.35-109.25c2.12-15.4,2.79-31.08,4.06-46.58,2-.55,25.58-7.17,25.57-7.19l-6.33-20.89A103,103,0,0,1,415.07,197C414.5,198.41,414,199.8,413.43,201.21Z"/><path class="q" d="M450.46,182a11.88,11.88,0,0,0,5.47-3c1.42-1.55,2-4,.94-5.79,0,.07-17.91,4-19.68,4.14-6.49.63-12.91-.26-19.32,0,2,3.6,9.29,5,13.05,5.69A41.44,41.44,0,0,0,450.46,182Z"/><path class="g" d="M474.93,120.87c-.69-.88-3.59-1.4-8.81-3.16l-6.93,5.47a33.32,33.32,0,0,1-43.62-2h0c-1.3.57-5.08,2-3.75,1.87,4.55,3,5.14,9,3.92,14.3s-3.61,10.53-2.91,15.92c.53,4,2.74,7.64,3.83,11.55,1,3.48-2.56,9.22-1.76,11.25,1.32,3.36,11.23,3.59,14.49,3.85,6.89.55,30.78.66,34.09-7.38,1.15-2.8-1.84-8-1.82-11.18,0-6.61,2.52-14.05,4.63-20.25a102.44,102.44,0,0,1,7.17-16.26C474.2,123.48,476,122.18,474.93,120.87Z"/><path class="q" d="M430.63,166.29c-.92.27-2,.82-1.95,1.77s1.09,1.23,1.93,1.39a25.18,25.18,0,0,0,22.81-7.59C449,158.11,435.6,164.84,430.63,166.29Z"/><path class="s" d="M513.24,76.4a29.24,29.24,0,0,0,15.16,28.54l-2.08-5.53a97,97,0,0,0,31.1,6c3.61.09,7.33,0,10.65-1.45s6.2-4.37,6.59-8l6.62,4.48a37.4,37.4,0,0,0-8.07-37.34C556.07,45.18,516.6,47.2,513.24,76.4Z"/><path class="d" d="M504.12,187.52A27.09,27.09,0,0,1,519.49,183a57.07,57.07,0,0,1-2.13-18.33c.23-7.19,2.73-14.63,8.22-19.29,3.8-3.23,8.07-8.5,9-13.4,1.09-5.52-4.87-11.65-10.13-12.45-5.7-.85-7.72,3-10.18,7.08-6.55,10.88-11.94,27.12-12.45,39.81A72.12,72.12,0,0,0,504.12,187.52Z"/><path class="l" d="M563.81,310.82s-.08,14.43-25,79.52c.3,2.91.5,9.06-1.89,11.4s-14.83-7.79-11.85-12.85c11.7-19.93,14.63-63.08,17.62-78.1l6.26-6.38Z"/><path class="l" d="M583,227.11s.4,3.7.37,12.41c0,14-4.3,33.46-6.09,39.53-2.93,9.86-33.8,98.78-33.8,98.78s-11.56,2.09-10.39-5.2c3.46-21.66,19.62-137.12,19.62-137.12Z"/><path class="p" d="M583,227.11l-34.34,14.13s-8.13,104.07-17.17,132.19c-1.12,3.49-4.35,11.34-4.36,11.6-2.3,6.52.78.45-2.71,3.86-4.2,4.1,9.46,15.18,11.85,12.85s2.39-7.06,2.09-10c7.73-20.2,13-35.66,16.7-47.37,9.09-26.34,20.5-59.54,22.22-65.35,1.79-6.07,6-25.55,6.09-39.53C583.4,230.81,583,227.11,583,227.11Z"/><path class="l" d="M526.08,208.88c7.64,5.82,13.25,7.25,20.06,6.92,8.52-.42,27.73,0,28.83-9.49-4.38-14.24-3.26-31.57-3.44-47.52l-21.22,6c-4.55,1.28-14.66,2-16.08,6.66-.81,2.61.14,6.85-.08,9.67a71,71,0,0,1-1.41,9.6C532.27,192.88,528.45,208.88,526.08,208.88Z"/><path class="t" d="M554.73,181.09c3.8-.08,7.71-.54,11.07-2.33s6.09-5.16,6.2-9l-34.34,4.93c-7.52,1.08-2.2,3.93,2.06,5A57.3,57.3,0,0,0,554.73,181.09Z"/><path class="p" d="M565.9,315s5.28,15.54,14.91,84.55c1.67,2.4,4,6.54,3,9.74s-18.28.09-16.58-5.53c5.35-17.72-14.48-53.5-19.11-68.1l-.75-17.42Z"/><path class="g" d="M566.89,397.64c5.77,1.44,7.72,1.17,13.66.42l10.32,7.43s11.83,8,10.87,11.17S569,411.6,569,411.6a5.24,5.24,0,0,1-3.64-7C566.42,401.22,567.44,400.59,566.89,397.64Z"/><path class="g" d="M527.09,383.38c4.36,4,6.2,4.75,11.76,7l5.45,11.49s6.52,12.69,4.13,15-26.21-20.22-26.21-20.22a5.24,5.24,0,0,1,.19-7.87C525,386.28,526.15,386.22,527.09,383.38Z"/><path class="p" d="M542,121.36A79.84,79.84,0,0,0,586.1,94.45c10.56-12.81,15.79-27.81,18.42-43.85a13.42,13.42,0,0,0,.17-5c-.16-.76-3.35-12.11.92-7.05A15.59,15.59,0,0,0,607.4,41c-1-.79,0-10,.13-11.51a3.34,3.34,0,0,1,.45-1.73,1.26,1.26,0,0,1,1.61-.43,1.72,1.72,0,0,1,.56.72l2.13,4.07a3.56,3.56,0,0,1,3.55.83,7.32,7.32,0,0,1,1.88,3.24c3.27,9.91-4,15.33-6.27,24.34-1,3.65-2.73,6.9-3.24,10.64-4.79,35.25-30.33,58.9-63.83,71.14-.93.34-1,2.62-.61,1.74"/><path class="d" d="M558,113.15c8.8-1.54,16.4-7,22-13.76s9.45-14.63,13.15-22.5c4.15-8.82,8.22-17.74,10.52-27.19l9.43,4a140.41,140.41,0,0,1-7,32.48,86.71,86.71,0,0,1-11,22.32c-6.29,8.82-14.77,15.91-23.15,22.89-6.79,5.67-13.68,11.4-21.8,15.1"/><path class="p" d="M527.88,204.48s-9.49,9.86-10.58,30.66C515.93,261.07,564.86,379,564.86,379s12.46,22.86,15,18.48-23.15-159-23.15-159L579,230.24s2.9-16.63-4-23.93C570.22,213.63,527.88,204.48,527.88,204.48Z"/><path class="c" d="M527.88,204.48l2.07-7s31.53,5.38,45.19,2.11c1.53-1.73-.17,6.75-.17,6.75s1.32,4-17,2.87S527.88,204.48,527.88,204.48Z"/><path class="c" d="M520.61,212.41c-2.35,9.48-3.53,19.29-4.89,29q-3.62,26-8.91,51.7A183.91,183.91,0,0,0,594,283.2c-11.17-37.62-10-76.89-22.74-116.23-13.4,2.29-26.91,4.15-40.24,6.91,6,4.34-.22,11.63-2.55,16.49A114.15,114.15,0,0,0,520.61,212.41Z"/><path class="d" d="M536.62,177.73l44.19-6.1c.05,0-.28-16.59-.25-17.77a58.78,58.78,0,0,1,1.62-12.32c.72-3.21-.56-6.58-2.46-9.27-2.38-3.39-5.63-6.06-8.06-9.41-1.75-2.4-4.44-7.53-6.54-9.64-2.78-2.78-10.93,2.29-14.7.71.61-.84,1.23-2.59-.27-1.81-4.34,2.28-1,2.15-5.2-.42-1.42-.88-2.88.57-6.15,1.34-3.68.87-17,3.67-18.84,6.73-4.38,7.37,1,16.08,1.73,24.17,1,10.59,2.62,24.77,3.63,35.35Z"/><path class="p" d="M538.6,97.47c.24,6-2.09,12.62,1.59,17.85,3.1,4.39,7.6,7.71,12.14,10.49,1.06.64,5,3.69,6.3,2.74,1.74-1.3-1.87-8-2.62-9.73-2.16-5.06-2.61-8.9-2.53-14.44q.1-6.6.2-13.19Z"/><path class="q" d="M553.46,105.78l.22-14.59L538.6,97.47l.46,11.33A31.37,31.37,0,0,0,553.46,105.78Z"/><path class="p" d="M566.07,92.67a19.89,19.89,0,0,1-4.19,8.31c-1.93,2.36-4.1,3-6.75,3.63-8.41,2.1-19.91-.26-22.42-11.18-1.53.8-3.28-.7-3.71-2.54s.14-3.2.28-4.91c.11-1.4.06-2.76.24-4.19.46-3.46,1.09-7,2.74-10a17,17,0,0,1,7.26-6.92,37.78,37.78,0,0,1,8.9-2.94c5.14-1.21,12.75-2.61,16.09,3.46,1.93,3.52.54,9.94,1,14.06C566.07,83.75,567,88.22,566.07,92.67Z"/><path class="p" d="M525.37,79.94c-1.4.69-2,2.39-2.08,4a10.59,10.59,0,0,0,7.41,10.46c1.33.38,3,.39,3.86-.69s.45-2.74-.1-4C533.39,87.1,529.19,78.08,525.37,79.94Z"/><path class="c" d="M524.75,83.73a3.23,3.23,0,0,1,1.73.5,7.86,7.86,0,0,1,3.11,3,13.31,13.31,0,0,1,1.48,4.07,5.74,5.74,0,0,1,.2,1.78,8.41,8.41,0,0,1-.52-1.7,16.8,16.8,0,0,0-1.57-3.91,8.65,8.65,0,0,0-2.86-3C525.4,84,524.73,83.81,524.75,83.73Z"/><path class="c" d="M529.76,92.35s-.3-.22-.63-.69a7,7,0,0,1-1-2,3.94,3.94,0,0,1-.05-2.3c.18-.58.45-.85.5-.82s-.09.36-.18.89a4.64,4.64,0,0,0,.18,2.09,12.53,12.53,0,0,0,.86,2C529.67,92,529.82,92.32,529.76,92.35Z"/><path class="u" d="M538,79.09c-.15-.09,0-.51.66-1a7.39,7.39,0,0,1,3.13-1.39,9.21,9.21,0,0,1,3.66,0c.92.2,1.38.49,1.32.62-.15.3-2.21,0-4.56.48S538.37,79.28,538,79.09Z"/><path class="c" d="M545.66,94c.14,0,.44.32,1,.8a7.68,7.68,0,0,0,2.72,1.42,9.67,9.67,0,0,0,3.29.31c.87,0,1.43-.17,1.49-.07s-.4.39-1.35.6a7.94,7.94,0,0,1-3.8-.15,5.83,5.83,0,0,1-2.93-1.8C545.6,94.45,545.54,94,545.66,94Z"/><path class="c" d="M557.09,77.18c0-.15.42-.34,1.13-.44a7.59,7.59,0,0,1,2.73.19A5,5,0,0,1,563.16,78c.44.44.42.84.23.9s-.49-.11-1-.29a18.46,18.46,0,0,0-2.07-.66C558.67,77.55,557.11,77.49,557.09,77.18Z"/><path class="c" d="M554.52,81.12a17.72,17.72,0,0,0-.57,3.37,24.27,24.27,0,0,0,0,3.41l.07.85,0,.22a2.21,2.21,0,0,0,.25.8,1.93,1.93,0,0,0,1.34,1,.32.32,0,0,1,.18,0A1,1,0,0,1,556,91.9a4.5,4.5,0,0,1-.89,1.35,3.34,3.34,0,0,0,1.41-1.09,2.09,2.09,0,0,0,.3-1,1.48,1.48,0,0,0-.42-1.07,1.32,1.32,0,0,0-.56-.32.89.89,0,0,1-.24-.12.88.88,0,0,1-.33-.42,1.43,1.43,0,0,1-.09-.27s0-.09,0-.14l0-.19,0-.84-.24-3.33C554.78,83.38,554.69,82.26,554.52,81.12Z"/><path class="c" d="M548.71,86.7a4.3,4.3,0,0,0-1.87-1.34,5,5,0,0,0-2.13-.21,7.48,7.48,0,0,0-2.15.55,6.92,6.92,0,0,0-1.95,1.18l-.07.07a.23.23,0,0,1-.29,0,11.09,11.09,0,0,1-.84-.84,8.82,8.82,0,0,1,1.13.38l-.36.06A5,5,0,0,1,542,84.67a5.67,5.67,0,0,1,2.57-.78,4.28,4.28,0,0,1,2.65.64A3.18,3.18,0,0,1,548.71,86.7Z"/><path class="c" d="M540.71,86.27l-.48-.7.83.17a.35.35,0,0,1,.27.41.34.34,0,0,1-.41.27A.33.33,0,0,1,540.71,86.27Z"/><path class="c" d="M557.1,86.8a3.73,3.73,0,0,1,1.36-1.57,4,4,0,0,1,1.83-.49,6.2,6.2,0,0,1,2,.24,6.68,6.68,0,0,1,2,.89l.08,0a.16.16,0,0,0,.24,0,9.86,9.86,0,0,0,.58-.94,9.18,9.18,0,0,0-.92.53h.33a5.09,5.09,0,0,0-2-1.57,4.93,4.93,0,0,0-2.41-.42,3.46,3.46,0,0,0-2.19,1A3,3,0,0,0,557.1,86.8Z"/><path class="c" d="M564,85.29l.28-.75-.69.28a.31.31,0,0,0-.15.43.33.33,0,0,0,.41.21A.26.26,0,0,0,564,85.29Z"/><path class="v" d="M554,53.1a21.93,21.93,0,0,1,7.57,5.39c2.85,3.18,4,7.33,4.78,11.43.39,2,.66,4.11,1,6.16.3,1.65,1.47,4.22.8,5.79a2.77,2.77,0,0,1-2.35,1.72,2.7,2.7,0,0,0-1.34-4.42,26.63,26.63,0,0,0-6.5-.66A21.83,21.83,0,0,1,540.87,70a13.52,13.52,0,0,1-5.74,8.41,4.72,4.72,0,0,0-1.85,1.68c-.45,1,0,2.1.4,3.12a17.75,17.75,0,0,1-2.65,17,20.92,20.92,0,0,0-1.58-14.72,5.47,5.47,0,0,0-3-3c-1.45-.45-3.4.62-3.08,2-2.22-5.93-3.86-12.28-2.6-18.4C523.63,52.1,541.43,47.59,554,53.1Z"/><path class="t" d="M564.3,162.22a72.92,72.92,0,0,0,13.29-4.74,8.2,8.2,0,0,1-4.1,5.66c-2,1.13-4.19,1.4-6.33,1.88-24.52,5.51-35.86,7.82-33.17-25.25.44-5.46,9.65,23.4,12.11,24.22C551.63,165.84,558.68,163.62,564.3,162.22Z"/><path class="f" d="M400.39,0C389,.09,379.8,8.84,379.88,19.55a18.46,18.46,0,0,0,2,8.23l-6.21,8.71,11.45-2.33a21.34,21.34,0,0,0,13.55,4.63c11.4-.09,20.58-8.84,20.5-19.55S411.8-.09,400.39,0Z"/><path class="i" d="M411.12,17.53a5.81,5.81,0,0,0-10.69-2.7,5.81,5.81,0,0,0-10.18,4.24c.3,4.14,6.61,7.48,9.69,9.9a1.73,1.73,0,0,0,2.29-.14C405.19,25.85,411.47,22.33,411.12,17.53Z"/><path class="g" d="M499.84,7.11l26.74.26c3.22,0,5.83,2.24,5.8,4.91l-.19,19.59c0,2.66-2.67,4.82-5.89,4.79l-3.56,0a10.29,10.29,0,0,0,2.36,5.68,21.67,21.67,0,0,1-7.14-2,7.68,7.68,0,0,1-3.51-3.77l-14.89-.15c-3.22,0-5.83-2.24-5.81-4.91l.19-19.58C494,9.24,496.62,7.08,499.84,7.11Z"/><path class="i" d="M519.82,22a3.31,3.31,0,1,0,3.34-3.27A3.32,3.32,0,0,0,519.82,22Z"/><path class="i" d="M509.67,21.85A3.31,3.31,0,1,0,513,18.58,3.31,3.31,0,0,0,509.67,21.85Z"/><path class="i" d="M499.52,21.75a3.31,3.31,0,1,0,3.33-3.27A3.3,3.3,0,0,0,499.52,21.75Z"/><polygon class="w" points="289.59 55.02 291.86 50.88 296 48.62 291.86 46.35 289.59 42.21 287.33 46.35 283.19 48.62 287.33 50.88 289.59 55.02"/><polygon class="x" points="289.52 24.71 291.05 21.91 293.86 20.38 291.05 18.84 289.52 16.04 287.99 18.84 285.19 20.38 287.99 21.91 289.52 24.71"/><polygon class="y" points="264.04 40.39 267.37 34.3 273.46 30.97 267.37 27.64 264.04 21.55 260.71 27.64 254.62 30.97 260.71 34.3 264.04 40.39"/><polygon class="z" points="696.07 63.24 693.81 59.1 689.67 56.84 693.81 54.57 696.07 50.43 698.34 54.57 702.48 56.84 698.34 59.1 696.07 63.24"/><polygon class="aa" points="696.14 32.93 694.61 30.13 691.81 28.59 694.61 27.06 696.14 24.26 697.67 27.06 700.48 28.59 697.67 30.13 696.14 32.93"/><polygon class="ab" points="721.63 48.61 718.3 42.52 712.21 39.19 718.3 35.86 721.63 29.77 724.96 35.86 731.05 39.19 724.96 42.52 721.63 48.61"/><path class="d" d="M742.74,230.45s20,1,28.5-18.57S742.74,230.45,742.74,230.45Z"/><path class="d" d="M742.31,219.08s-17.26-6.47-20.1-21.06C718.34,178.18,742.31,219.08,742.31,219.08Z"/><path class="d" d="M742.51,205.67s23-2,27.49-18.7S742.51,205.67,742.51,205.67Z"/><path class="d" d="M742.87,195.23s-18-14.47-13.78-31.72S742.87,195.23,742.87,195.23Z"/><path class="d" d="M745.88,185.47s21.23-7.05,26.25-18.93S757,171.81,745.88,185.47Z"/><path class="d" d="M748.92,173.73s-14.43-16.83-7.61-32S748.92,173.73,748.92,173.73Z"/><path class="d" d="M752.39,162.71s22.48-7.57,28.73-24.9S752.39,162.71,752.39,162.71Z"/><path class="d" d="M759.37,144.91s-10.81-16.33-2.48-29.07S759.37,144.91,759.37,144.91Z"/><path class="d" d="M764,135.12s23-4.89,30.71-18.18S764,135.12,764,135.12Z"/><path class="d" d="M769.63,124.93s-9.22-19.26,2-31.7S769.63,124.93,769.63,124.93Z"/><path class="d" d="M778.48,111.6s14,2.53,25.67-12.47C815.36,84.7,778.48,111.6,778.48,111.6Z"/><path class="d" d="M787.55,101.24S790.27,72.38,801,71.76C814.28,71,787.55,101.24,787.55,101.24Z"/><path class="d" d="M737.62,250.66a19,19,0,0,0,3-4.44,35.21,35.21,0,0,0,2-4.94,51.09,51.09,0,0,0,2-10.46c.13-1.77.3-3.55.27-5.32v-2.66l-.11-2.66-.06-1.33,0-1.23,0-2.45a20.88,20.88,0,0,1,.09-2.49l.15-2.49.07-1.25.14-1.26.28-2.51.26-2.51.38-2.51c.27-1.68.43-3.36.74-5l.87-5c.24-1.68.63-3.34,1-5s.67-3.35,1-5l1.26-5c.42-1.66.83-3.32,1.34-4.95a214.54,214.54,0,0,1,15-38.18A144.49,144.49,0,0,1,790.49,98.1l-.38-.38c-10.12,9.5-18.31,20.92-25.22,33a217.74,217.74,0,0,0-16.75,38.18c-.6,1.64-1.1,3.31-1.6,5l-1.51,5-1.35,5.06c-.44,1.69-.93,3.37-1.28,5.09l-1.09,5.14c-.34,1.72-.57,3.47-.84,5.2l-.38,2.61q-.14,1.32-.24,2.64l-.21,2.65-.1,1.32,0,1.34v2.68a24.35,24.35,0,0,0,.07,2.69l.21,2.71.11,1.36.15,1.25a88.93,88.93,0,0,1,.78,10,60.28,60.28,0,0,1-.66,10,38,38,0,0,1-1.08,4.93,22.18,22.18,0,0,1-1.87,4.69Z"/><path class="ac" d="M721.63,250.71s7.07-72.59,27-102.62c2.75-4.16,5.78-8.28,9.9-11.09,5.38-3.67,13.76-4.24,17.6,1s1.15,12.52,2.62,18.76c3-7.9,6.41-15.84,11.89-22.29s13.45-11.26,21.91-11.1a8.54,8.54,0,0,1,4.29,1c3.43,2.06,3.41,7.16,1.84,10.84s-4.26,7-4.88,10.93c5.66-8.7,14.92-14.65,24.83-17.75s20.46-3.56,30.83-3c9.29.51,19.35,1.63,27.22-3.34-8.29,14-10.62,30.95-19,44.94a60.39,60.39,0,0,1-41.34,28.23c5.87,1.07,12.78,3,14.56,8.71,1.71,5.46-2.53,11-7.1,14.42-12.72,9.56-29.38,11.87-45.27,12.49,5.44,1.89,11.85,5,12.09,10.78.21,5.24-5,9-9.9,10.89C787.81,257.62,721.63,250.71,721.63,250.71Z"/><g class="ad"><path class="i" d="M721.32,250.59a105.74,105.74,0,0,1,4.78-13.21l.4-1.62q2.71-11.22,5.93-22.27t6.8-22c2.47-7.27,5-14.52,7.92-21.64.67-1.79,1.47-3.55,2.22-5.31s1.51-3.53,2.34-5.27,1.58-3.5,2.45-5.21l2.65-5.11c-3.07,7-5.78,14.19-8.31,21.41s-4.86,14.51-7.11,21.82-4.36,14.67-6.45,22q-1.71,6.13-3.35,12.28a124.73,124.73,0,0,1,14.28-20c.25-.28.51-.56.76-.85,1.1-3.09,2.21-6.16,3.39-9.22,1.85-4.86,3.75-9.71,5.76-14.51s4.06-9.59,6.22-14.32,4.41-9.43,6.81-14.05c-1.88,4.86-3.86,9.66-5.67,14.53s-3.68,9.71-5.49,14.57l-5.31,14.63c-.42,1.2-.85,2.39-1.27,3.59a140.78,140.78,0,0,1,13.2-11.95,110.38,110.38,0,0,1,9.71-6.85c.81-1,1.6-2.1,2.36-3.18,3.29-4.7,6.43-9.56,9.5-14.44s6-9.86,8.86-14.89,5.78-10.07,9.18-14.78c-2.91,5-5.51,10.17-8.07,15.37s-5.3,10.33-8.22,15.35c-2.62,4.54-5.37,9-8.27,13.37q3.28-1.86,6.63-3.55t7-3.3c2.19-1.84,4.35-3.79,6.46-5.76,3.33-3.07,6.6-6.21,9.87-9.35L828.9,138c-2.83,3.57-5.85,7-8.83,10.42s-6.11,6.75-9.26,10-6.34,6.54-9.63,9.7c-.28.27-.57.53-.86.79,7.06-2.78,14.24-5.14,21.47-7.27l8.16-4.84q5-2.94,9.7-6.25c3.14-2.23,6.17-4.61,9.13-7.11s5.87-5.06,8.83-7.6c-2.51,3-5.19,5.8-7.92,8.6a100.05,100.05,0,0,1-8.76,7.81A111.39,111.39,0,0,1,831.3,159l2.14-.57c8-2.14,16.06-4.26,23.6-7.57l.43-.21,0-.34.86,0c7-3.24,13.61-7.72,18.34-14a.34.34,0,0,1,.45-.08.35.35,0,0,1,.09.47,41.58,41.58,0,0,1-8.53,9.29,53.51,53.51,0,0,1-6.23,4.31h.3a32.42,32.42,0,0,1,5.2.75,25.81,25.81,0,0,1,5,1.69,16,16,0,0,1,4.29,2.86,15.76,15.76,0,0,0-4.54-2.24,24.39,24.39,0,0,0-4.92-1,30.69,30.69,0,0,0-5-.07c-.83.05-1.66.17-2.48.25l-2.46.41v-.12c-7.51,3.75-15.49,6.35-23.37,8.87l-5.61,1.77q1.4.18,2.79.39c3.6.53,7.19,1.14,10.75,1.95a98.35,98.35,0,0,1,10.53,2.93,73.86,73.86,0,0,1,10,4.27A102.88,102.88,0,0,0,852.49,170c-3.49-.86-7-1.55-10.56-2.15s-7.11-1.08-10.68-1.48c-2.8-.31-5.61-.61-8.42-.88a230.44,230.44,0,0,0-25.54,10.22c1.58.22,3.15.45,4.72.72,4,.65,7.9,1.4,11.81,2.29s7.81,1.85,11.66,3,7.67,2.3,11.43,3.68c-3.91-.84-7.8-1.74-11.72-2.49s-7.83-1.5-11.75-2.19-7.86-1.27-11.8-1.82c-2.84-.37-5.69-.73-8.54-1.05q-2.31,1.19-4.57,2.44A118,118,0,0,0,773.67,190a83.84,83.84,0,0,1,10.54.86c6.25.94,12.42,2.13,18.55,3.57s12.2,3.1,18.19,5,11.91,4,17.69,6.47c-6-1.84-12-3.66-18.06-5.18s-12.15-3-18.27-4.21-12.29-2.31-18.45-3.11a73.58,73.58,0,0,0-13.56-.69l-1.71,1.44c-5.79,5-11.38,10.1-16.7,15.52a108,108,0,0,1,11.52,0,151.74,151.74,0,0,1,17.43,2c5.75,1,11.45,2.26,17.09,3.73s11.2,3.16,16.69,5.1c-5.66-1.33-11.3-2.68-17-3.77s-11.39-2.15-17.11-2.94-11.47-1.39-17.22-1.6a104.78,104.78,0,0,0-14.18.31,172.92,172.92,0,0,0-14.17,17.15c-1,1.4-2,2.82-2.91,4.24a106,106,0,0,1,12.3-1.11,146.16,146.16,0,0,1,16.88.44c5.6.46,11.18,1.13,16.71,2.06s11,2,16.47,3.28c-5.54-.81-11.07-1.6-16.62-2.17s-11.11-1.06-16.67-1.29-11.13-.26-16.66,0a104.44,104.44,0,0,0-14.37,1.75c-.66,1-1.31,2-1.93,3.08-2.16,3.53-4.19,7.16-6.2,10.83a.34.34,0,0,1-.62-.25Z"/><path class="i" d="M776.32,244.82a23.27,23.27,0,0,1-5.13-1.55,32.24,32.24,0,0,1,5.3-.52c1.75-.05,3.48,0,5.2.05s3.45.23,5.17.39,3.43.39,5.23.65a15.75,15.75,0,0,1-5.2,1.43,30.62,30.62,0,0,1-5.32.19A34.22,34.22,0,0,1,776.32,244.82Z"/><path class="i" d="M775.2,246a48.74,48.74,0,0,1,4.91,1,27,27,0,0,1,4.83,1.7,22.84,22.84,0,0,1-5.13.35,36.73,36.73,0,0,1-5-.46,38.07,38.07,0,0,1-4.92-1.13,23.54,23.54,0,0,1-4.77-1.94,26.78,26.78,0,0,1,5.13-.11A48.29,48.29,0,0,1,775.2,246Z"/><path class="i" d="M826.48,214.58a12.8,12.8,0,0,1-4-1.93,40.39,40.39,0,0,1,4.35-.14c1.4,0,2.78.05,4.16.09l4.15.19a42.45,42.45,0,0,1,4.33.42,12.9,12.9,0,0,1-4.15,1.66,18.09,18.09,0,0,1-8.81-.29Z"/><path class="i" d="M825.31,217.27c1.39.18,2.78.38,4.18.6a40.61,40.61,0,0,1,4.32.9,13.3,13.3,0,0,1-4.36,1.19,19,19,0,0,1-8.83-1.13,13.25,13.25,0,0,1-3.91-2.26,38.92,38.92,0,0,1,4.4.22C822.53,216.93,823.92,217.09,825.31,217.27Z"/></g><path class="ae" d="M733.9,249.13c2.63,0,5.39,1,8,.71,4.84-.49,7.85-5.05,11.57-8.05,1.49-1.2,3.9-2,5.34-.15a4.48,4.48,0,0,1,.83,2.54c.2,4.21-3.21,6.81-6.62,7.88s-7.32,1.31-11,2-7.29,1.9-9.77,4.7a11.17,11.17,0,0,0-1.73,11.64c4.55,10.36,8.57,20.67,17.21,27.14-5-14.31-1-30.26,9.24-37.11a6.88,6.88,0,0,1,5-1.49,5,5,0,0,1,3.91,4.28c.07,2.46-2.28,3.51-4.23,4.28-5.49,2.19-10.4,6.26-12.47,12.38a20.68,20.68,0,0,0,4.12,19.74c5.49,5.93,16.08,6.11,19.79,13.46a54,54,0,0,1,6.46-26.74c.77-1.37,1.75-2.79,3.28-2.91,1.81-.15,3.73,1.74,4.37,3.82a8.55,8.55,0,0,1-.53,5.95c-1.53,3.41-4.35,5.66-6.73,8.31s-4.41,6.16-3.84,10.3c.53,3.87,3.28,7.41,6.41,9.59s6.61,3.22,10,4.24L803,328.74a76.21,76.21,0,0,1-3.61-26.57,13.61,13.61,0,0,1,1.17-5.68,3.94,3.94,0,0,1,4.38-2.23c2.12.57,3.76,3.09,4.18,5.49a14.65,14.65,0,0,1-.77,6.78c-2.15,7.17-5.42,14.65-2.83,22.59,6.12,2.79,12.36,3.39,17.92,1.26-.08.11.18.49.33.33s0-.58-.24-.79c-4.2-3.9-7.37-10-6.56-15.35.28-1.86,1.46-3.77,3.21-3.29a4.73,4.73,0,0,1,2.49,2.41c2.08,3.69,2.29,8,2.43,12a6.49,6.49,0,0,0,3.76,5.19,9.85,9.85,0,0,0,5.8.48c3.05-.49,6-1.46,9.17-1.27a10.6,10.6,0,0,1,6.31,2,16.54,16.54,0,0,1-2.41-9.49c.18-4.08,3.58-16.66,4.49-18.93-7.39-4.84-16-2-23.76-5.63a6,6,0,0,1-2.93-2.48c1.51-2.73,4.74-3.49,7.79-3.55a32.68,32.68,0,0,1,18.77,5.78c1-5.24,1.79-11.45-1.57-16.23-3.6-5.13-10.06-5.75-15-4.44s-9.61,4-15,3.32c-2.4-.29-5.46-2.09-5.55-4.78a4.21,4.21,0,0,1,.44-1.92c1.11-2.37,3.35-3.66,5.59-4.63a28,28,0,0,1,15.08-2.44,23.94,23.94,0,0,1,14.84,8.23,64.8,64.8,0,0,1-9.17-24.15c-10.24-2.56-18.48,5.31-28.17,7.1a5.64,5.64,0,0,1-3.72-.29c-2.45-1.26-3.39-5.07-2.43-7.5s3.2-3.73,5.43-4.64c8.29-3.38,18.18-3.09,27.44.79q-2.55-8.35-5.78-16.53c-1.1-2.79-2.35-5.7-4.5-7.67-4.93-4.51-11.49-1.66-15.25,2.6-1.57,1.78-3,3.79-4.88,5.12a6.41,6.41,0,0,1-6.85.55c1.68-11.15,11.19-18.74,21.65-17.28-3.91-6.62-10.45-11-17-13.22-5-1.71-10.75-2.12-14.2,1.36-4.78,4.82-3.07,14.43-5.66,21.22-1.09,2.86-3.81,5.38-6.66,3.84s-3.51-5.47-3.25-8.54c.93-11,9.16-17.85,16.83-23.66-16-.69-29.41,12.71-30.46,30.4a26.76,26.76,0,0,0-23.9,6.15c-5.83,5.25-9.65,12.92-11.62,21.38C729.67,250.07,731.83,249.14,733.9,249.13Zm99.31,58.4a2.29,2.29,0,0,1,2.47-1.43,8.93,8.93,0,0,1,3.13,1.14,7.73,7.73,0,0,1,3.73,3.12l.15.52c-.55,2.8-4.07,3-6.6,1.56C834.38,311.47,832.64,309.31,833.21,307.53Zm-29.32-35c-1.42,1.2-3.64.89-5.52-.08a6.4,6.4,0,0,1-2.19-1.74,4.57,4.57,0,0,1,0-5.58,4.14,4.14,0,0,1,5.1-.28,6.78,6.78,0,0,1,3.26,3.23,3.2,3.2,0,0,1,.17.43l.09.23,0,0A3.81,3.81,0,0,1,803.89,272.57ZM783.94,239.2c1.95-4.37,7.59-5.08,12.11-2.72,9.52,4.94,1.62,9.36-3.67,10.32a11.24,11.24,0,0,1-4.59.17,5.43,5.43,0,0,1-3.85-7.77Zm8.21,67.53a9.15,9.15,0,0,1-3.22,5.38c-1.28,1-3.29,1.46-4.65,0s-1.14-3.64-.56-5.26c.83-2.32,2.44-4.42,4.77-4.53A3.55,3.55,0,0,1,792.15,306.73Zm-21-33.65a1.86,1.86,0,0,1,.47,0,3.38,3.38,0,0,1,2.53,3.69c-.23,1.86-1.14,4.77-4.68,2.74a2.47,2.47,0,0,1-1.16-1.36,4.23,4.23,0,0,1,.19-2.73A3.38,3.38,0,0,1,771.16,273.08Z"/><path class="af" d="M728.83,251.92a4.1,4.1,0,0,0-.37,1.68C728.58,253,728.7,252.48,728.83,251.92Z"/><g class="ag"><path class="i" d="M796.94,294.46c.19-2.16.27-4.35.28-6.56s-.07-4.43-.26-6.67l-.12-1.38c2.73,3.34,5.57,6.59,8.52,9.7a122.7,122.7,0,0,0,9.25,8.88c1.65,1.33,3.27,2.68,5,3.89.84.62,1.72,1.16,2.57,1.74a29.35,29.35,0,0,0,2.67,1.48,61.82,61.82,0,0,1-4.67-4.21c-.74-.77-1.5-1.47-2.23-2.24l-2.17-2.3q-4.29-4.67-8.32-9.58c-1.91-2.34-3.78-4.71-5.64-7.1l.38.22a58.75,58.75,0,0,0,8,3.72,37,37,0,0,0,8.21,2.06,22.09,22.09,0,0,0,8-.32,41.71,41.71,0,0,1-15.79-4,81.7,81.7,0,0,1-7.61-3.91c-1.26-.72-2.5-1.47-3.74-2.24-.51-.31-1-.64-1.51-.95-1.94-2.59-3.85-5.19-5.72-7.84l-1.89-2.6c-.62-.86-1.21-1.76-1.82-2.64l-3.67-5.27c-2.16-3.16-4.28-6.36-6.45-9.52a42.84,42.84,0,0,0,8,4.67,35,35,0,0,0,8.43,2.56,26.44,26.44,0,0,0,8.27.11,39.78,39.78,0,0,1-8.24-1.5,43.8,43.8,0,0,1-8-3.21,49.52,49.52,0,0,1-14.08-11.12h0c-.78-1.14-1.55-2.29-2.31-3.46-2.36-3.61-4.72-7.24-7.24-10.79,1.76,4,3.68,7.89,5.6,11.81,1.19,2.29,2.42,4.57,3.66,6.84a36.78,36.78,0,0,1,1.49,4.93c.7,2.83,1.29,5.68,1.81,8.53s1,5.73,1.28,8.6.6,5.74.83,8.63A72.31,72.31,0,0,0,778,265a85.7,85.7,0,0,0-.59-8.71c-.21-2-.52-3.91-.88-5.88.53.9,1.07,1.79,1.61,2.68,1.13,1.86,2.24,3.74,3.44,5.56,2.41,3.63,4.75,7.32,7.34,10.82q2.52,3.56,5.19,7c.24,1.55.47,3.1.66,4.66.25,2.19.51,4.38.68,6.57s.32,4.39.43,6.58.16,4.39.21,6.6A62.4,62.4,0,0,0,796.94,294.46Z"/><path class="i" d="M829.79,230.57a11.57,11.57,0,0,0-1.38-1.42,11.87,11.87,0,0,0-3.23-2,9.37,9.37,0,0,0-3.46-.75,6,6,0,0,0-3.19.72c1.15.23,2.21.45,3.26.73a26.47,26.47,0,0,1,3.07,1,26,26,0,0,1,3,1.47q.75.42,1.5.9a3.21,3.21,0,0,1,1.3,1.19A3,3,0,0,0,829.79,230.57Z"/><path class="i" d="M823.24,229.7a10.3,10.3,0,0,0-3.38-.57,6.6,6.6,0,0,0-3.14.73l3.23.73c1,.26,2.07.56,3.08.9s2,.73,3.05,1.17,2,.93,3.15,1.43a11.19,11.19,0,0,0-2.74-2.71A12.41,12.41,0,0,0,823.24,229.7Z"/><path class="i" d="M801.82,208a9.12,9.12,0,0,1,4.12-.36,13.65,13.65,0,0,1,4.47,1.45,9.49,9.49,0,0,0-4.44-2.88,7.87,7.87,0,0,0-4.87,0,7.13,7.13,0,0,0-3.69,2.94,8.24,8.24,0,0,0-1.32,4.85,11.92,11.92,0,0,1,2.36-3.78A8.46,8.46,0,0,1,801.82,208Z"/><path class="i" d="M802.55,212.57a9.59,9.59,0,0,1,1.88-.9,16.27,16.27,0,0,1,2.23-.6,4.73,4.73,0,0,0-2.62-.86,4.47,4.47,0,0,0-2.48.69,4.61,4.61,0,0,0-1.73,2,4.92,4.92,0,0,0-.44,2.79,18.78,18.78,0,0,1,1.53-1.77A10.48,10.48,0,0,1,802.55,212.57Z"/></g><path class="d" d="M153.89,230.45s-20,1-28.51-18.57S153.89,230.45,153.89,230.45Z"/><path class="d" d="M154.32,219.08s17.25-6.47,20.1-21.06C178.28,178.18,154.32,219.08,154.32,219.08Z"/><path class="d" d="M154.12,205.67s-23-2-27.5-18.7S154.12,205.67,154.12,205.67Z"/><path class="d" d="M153.76,195.23s18-14.47,13.78-31.72S153.76,195.23,153.76,195.23Z"/><path class="d" d="M150.74,185.47s-21.23-7.05-26.25-18.93S139.66,171.81,150.74,185.47Z"/><path class="d" d="M147.71,173.73s14.42-16.83,7.61-32S147.71,173.73,147.71,173.73Z"/><path class="d" d="M144.24,162.71s-22.48-7.57-28.73-24.9S144.24,162.71,144.24,162.71Z"/><path class="d" d="M137.26,144.91s10.81-16.33,2.48-29.07S137.26,144.91,137.26,144.91Z"/><path class="d" d="M132.6,135.12s-23-4.89-30.71-18.18S132.6,135.12,132.6,135.12Z"/><path class="d" d="M127,124.93s9.22-19.26-2-31.7S127,124.93,127,124.93Z"/><path class="d" d="M118.15,111.6s-14,2.53-25.68-12.47C81.27,84.7,118.15,111.6,118.15,111.6Z"/><path class="d" d="M109.07,101.24s-2.71-28.86-13.45-29.48C82.34,71,109.07,101.24,109.07,101.24Z"/><path class="d" d="M159,250.66a19,19,0,0,1-2.95-4.44,35.21,35.21,0,0,1-2-4.94A51.09,51.09,0,0,1,152,230.82c-.13-1.77-.31-3.55-.28-5.32v-2.66l.1-2.66.06-1.33,0-1.23,0-2.45a20.88,20.88,0,0,0-.09-2.49l-.16-2.49-.06-1.25-.14-1.26-.29-2.51-.26-2.51-.38-2.51c-.26-1.68-.43-3.36-.73-5l-.87-5c-.25-1.68-.63-3.34-1-5s-.67-3.35-1.06-5l-1.25-5c-.42-1.66-.83-3.32-1.34-4.95a215.31,215.31,0,0,0-15-38.18A144.79,144.79,0,0,0,106.14,98.1l.38-.38c10.11,9.5,18.3,20.92,25.22,33a217.74,217.74,0,0,1,16.75,38.18c.6,1.64,1.09,3.31,1.59,5l1.52,5,1.35,5.06c.44,1.69.92,3.37,1.27,5.09l1.1,5.14c.33,1.72.57,3.47.84,5.2l.37,2.61c.09.88.18,1.76.25,2.64l.2,2.65.11,1.32,0,1.34,0,2.68c0,.89,0,1.77-.07,2.69l-.21,2.71-.11,1.36-.15,1.25a88.93,88.93,0,0,0-.78,10,60.28,60.28,0,0,0,.65,10,36.48,36.48,0,0,0,1.09,4.93,22.18,22.18,0,0,0,1.87,4.69Z"/><path class="ac" d="M175,250.71s-7.07-72.59-26.94-102.62c-2.76-4.16-5.79-8.28-9.91-11.09-5.37-3.67-13.75-4.24-17.6,1s-1.14,12.52-2.61,18.76c-3-7.9-6.41-15.84-11.89-22.29s-13.45-11.26-21.91-11.1a8.54,8.54,0,0,0-4.29,1c-3.44,2.06-3.41,7.16-1.84,10.84s4.26,7,4.88,10.93C77.22,137.45,68,131.5,58.05,128.4s-20.46-3.56-30.83-3C17.93,125.91,7.87,127,0,122.06,8.29,136.08,10.62,153,19,167a60.37,60.37,0,0,0,41.33,28.23c-5.86,1.07-12.77,3-14.56,8.71-1.71,5.46,2.54,11,7.11,14.42,12.71,9.56,29.38,11.87,45.27,12.49-5.44,1.89-11.86,5-12.09,10.78-.22,5.24,5,9,9.89,10.89C108.82,257.62,175,250.71,175,250.71Z"/><g class="ad"><path class="i" d="M175.3,250.59a104.11,104.11,0,0,0-4.77-13.21l-.4-1.62q-2.72-11.22-5.93-22.27t-6.8-22c-2.48-7.27-5-14.52-7.92-21.64-.68-1.79-1.47-3.55-2.22-5.31s-1.52-3.53-2.34-5.27-1.58-3.5-2.45-5.21L139.82,149c3.06,7,5.78,14.19,8.3,21.41s4.86,14.51,7.12,21.82,4.36,14.67,6.45,22q1.69,6.13,3.34,12.28a123.49,123.49,0,0,0-14.28-20c-.25-.28-.51-.56-.76-.85q-1.63-4.64-3.38-9.22c-1.85-4.86-3.76-9.71-5.76-14.51s-4.07-9.59-6.22-14.32-4.42-9.43-6.81-14.05c1.88,4.86,3.86,9.66,5.66,14.53s3.69,9.71,5.49,14.57l5.32,14.63c.42,1.2.85,2.39,1.27,3.59a142,142,0,0,0-13.2-11.95,109.06,109.06,0,0,0-9.72-6.85c-.81-1-1.59-2.1-2.35-3.18-3.29-4.7-6.43-9.56-9.51-14.44s-6-9.86-8.85-14.89-5.78-10.07-9.18-14.78c2.91,5,5.51,10.17,8.07,15.37s5.3,10.33,8.22,15.35c2.61,4.54,5.37,9,8.26,13.37q-3.27-1.86-6.62-3.55c-2.31-1.16-4.65-2.26-7-3.3-2.19-1.84-4.35-3.79-6.47-5.76-3.32-3.07-6.59-6.21-9.86-9.35L67.73,138c2.83,3.57,5.84,7,8.83,10.42s6.11,6.75,9.25,10,6.35,6.54,9.64,9.7l.85.79c-7-2.78-14.23-5.14-21.46-7.27l-8.16-4.84q-5-2.94-9.7-6.25c-3.14-2.23-6.17-4.61-9.14-7.11S42,138.4,39,135.86c2.51,3,5.19,5.8,7.92,8.6a100.05,100.05,0,0,0,8.76,7.81A111.24,111.24,0,0,0,65.32,159l-2.13-.57c-8-2.14-16.06-4.26-23.6-7.57l-.44-.21.05-.34-.86,0c-7-3.24-13.61-7.72-18.34-14a.34.34,0,0,0-.55.39A42.06,42.06,0,0,0,28,146a54.49,54.49,0,0,0,6.24,4.31h-.3a32.54,32.54,0,0,0-5.21.75,25.71,25.71,0,0,0-4.94,1.69,15.84,15.84,0,0,0-4.29,2.86A15.51,15.51,0,0,1,24,153.35a24.43,24.43,0,0,1,4.91-1,30.82,30.82,0,0,1,5-.07c.83.05,1.66.17,2.48.25l2.45.41,0-.12c7.51,3.75,15.48,6.35,23.36,8.87q2.82.87,5.62,1.77-1.39.18-2.79.39c-3.6.53-7.19,1.14-10.75,1.95a98.35,98.35,0,0,0-10.53,2.93,73.33,73.33,0,0,0-10,4.27A103.47,103.47,0,0,1,44.13,170c3.5-.86,7-1.55,10.57-2.15s7.1-1.08,10.68-1.48c2.8-.31,5.61-.61,8.42-.88a229.5,229.5,0,0,1,25.53,10.22c-1.57.22-3.14.45-4.71.72-4,.65-7.9,1.4-11.82,2.29s-7.8,1.85-11.65,3-7.68,2.3-11.43,3.68c3.91-.84,7.8-1.74,11.72-2.49s7.83-1.5,11.75-2.19S91,179.35,95,178.8c2.85-.37,5.7-.73,8.55-1.05,1.53.79,3.06,1.6,4.56,2.44A118.06,118.06,0,0,1,123,190a83.69,83.69,0,0,0-10.54.86c-6.25.94-12.42,2.13-18.55,3.57s-12.2,3.1-18.2,5-11.9,4-17.69,6.47c6-1.84,12-3.66,18.07-5.18s12.14-3,18.27-4.21,12.28-2.31,18.45-3.11a73.54,73.54,0,0,1,13.56-.69l1.71,1.44c5.78,5,11.38,10.1,16.7,15.52a108.15,108.15,0,0,0-11.53,0,151.57,151.57,0,0,0-17.42,2c-5.76,1-11.45,2.26-17.09,3.73s-11.21,3.16-16.69,5.1c5.66-1.33,11.3-2.68,17-3.77s11.38-2.15,17.11-2.94,11.47-1.39,17.22-1.6a104.78,104.78,0,0,1,14.18.31,172.83,172.83,0,0,1,14.16,17.15c1,1.4,2,2.82,2.92,4.24a106.21,106.21,0,0,0-12.31-1.11,146,146,0,0,0-16.87.44c-5.6.46-11.18,1.13-16.71,2.06s-11,2-16.48,3.28c5.54-.81,11.07-1.6,16.63-2.17s11.11-1.06,16.67-1.29,11.13-.26,16.66,0a104.44,104.44,0,0,1,14.37,1.75c.66,1,1.3,2,1.93,3.08,2.16,3.53,4.18,7.16,6.19,10.83a.36.36,0,0,0,.39.16A.33.33,0,0,0,175.3,250.59Z"/><path class="i" d="M120.31,244.82a23.27,23.27,0,0,0,5.13-1.55,32.24,32.24,0,0,0-5.3-.52c-1.75-.05-3.48,0-5.21.05s-3.44.23-5.16.39-3.43.39-5.24.65a15.81,15.81,0,0,0,5.21,1.43,30.58,30.58,0,0,0,5.32.19A34.38,34.38,0,0,0,120.31,244.82Z"/><path class="i" d="M121.42,246a49.15,49.15,0,0,0-4.9,1,27,27,0,0,0-4.83,1.7,22.79,22.79,0,0,0,5.12.35,36.74,36.74,0,0,0,5-.46,38.07,38.07,0,0,0,4.92-1.13,23.69,23.69,0,0,0,4.76-1.94,26.68,26.68,0,0,0-5.12-.11A48.78,48.78,0,0,0,121.42,246Z"/><path class="i" d="M70.14,214.58a12.85,12.85,0,0,0,4-1.93,40.55,40.55,0,0,0-4.35-.14c-1.41,0-2.78.05-4.16.09l-4.15.19a42.64,42.64,0,0,0-4.34.42,12.87,12.87,0,0,0,4.16,1.66,17.76,17.76,0,0,0,4.42.4A17.55,17.55,0,0,0,70.14,214.58Z"/><path class="i" d="M71.32,217.27c-1.39.18-2.78.38-4.18.6a40.61,40.61,0,0,0-4.32.9A13.23,13.23,0,0,0,67.18,220,18.93,18.93,0,0,0,76,218.83a13.3,13.3,0,0,0,3.92-2.26,39.22,39.22,0,0,0-4.41.22C74.1,216.93,72.71,217.09,71.32,217.27Z"/></g><path class="ae" d="M167.8,251.92c-2-8.46-5.79-16.13-11.62-21.38a26.78,26.78,0,0,0-23.91-6.15c-1-17.69-14.46-31.09-30.45-30.4,7.67,5.81,15.9,12.65,16.83,23.66.26,3.07-.55,7.07-3.25,8.54-2.85,1.54-5.57-1-6.66-3.84-2.59-6.79-.88-16.4-5.67-21.22-3.44-3.48-9.15-3.07-14.2-1.36-6.5,2.21-13,6.6-17,13.22,10.46-1.46,20,6.13,21.64,17.28a6.39,6.39,0,0,1-6.84-.55c-1.91-1.33-3.32-3.34-4.89-5.12-3.75-4.26-10.31-7.11-15.24-2.6-2.15,2-3.41,4.88-4.51,7.67q-3.21,8.18-5.77,16.53c9.26-3.88,19.15-4.17,27.43-.79,2.24.91,4.48,2.21,5.44,4.64s0,6.24-2.43,7.5a5.64,5.64,0,0,1-3.72.29c-9.69-1.79-17.93-9.66-28.17-7.1a65,65,0,0,1-9.17,24.15,23.94,23.94,0,0,1,14.84-8.23,28.06,28.06,0,0,1,15.08,2.44c2.24,1,4.48,2.26,5.59,4.63a4.34,4.34,0,0,1,.44,1.92c-.1,2.69-3.15,4.49-5.56,4.78-5.35.65-10-2-14.95-3.32s-11.42-.69-15,4.44c-3.36,4.78-2.57,11-1.57,16.23A32.67,32.67,0,0,1,63.31,292c3.06.06,6.29.82,7.8,3.55A6,6,0,0,1,68.18,298c-7.77,3.61-16.37.79-23.77,5.63.92,2.27,4.32,14.85,4.5,18.93a16.54,16.54,0,0,1-2.41,9.49,10.6,10.6,0,0,1,6.3-2c3.18-.19,6.13.78,9.18,1.27a9.81,9.81,0,0,0,5.79-.48,6.45,6.45,0,0,0,3.76-5.19c.15-4,.36-8.33,2.44-12a4.73,4.73,0,0,1,2.49-2.41c1.74-.48,2.92,1.43,3.21,3.29.8,5.35-2.37,11.45-6.57,15.35-.22.21-.41.6-.23.79s.41-.22.33-.33c5.56,2.13,11.8,1.53,17.92-1.26,2.59-7.94-.68-15.42-2.83-22.59a14.65,14.65,0,0,1-.77-6.78c.41-2.4,2.06-4.92,4.17-5.49a4,4,0,0,1,4.39,2.23,13.61,13.61,0,0,1,1.17,5.68,76,76,0,0,1-3.62,26.57l10.46-3.12c3.42-1,6.9-2.07,10-4.24s5.88-5.72,6.41-9.59c.57-4.14-1.48-7.65-3.85-10.3s-5.2-4.9-6.72-8.31a8.55,8.55,0,0,1-.53-5.95c.63-2.08,2.55-4,4.37-3.82,1.52.12,2.5,1.54,3.27,2.91a53.79,53.79,0,0,1,6.46,26.74c3.72-7.35,14.31-7.53,19.8-13.46a20.68,20.68,0,0,0,4.12-19.74c-2.08-6.12-7-10.19-12.48-12.38-1.94-.77-4.29-1.82-4.22-4.28a5,5,0,0,1,3.91-4.28,6.88,6.88,0,0,1,5,1.49c10.22,6.85,14.19,22.8,9.23,37.11,8.65-6.47,12.67-16.78,17.21-27.14a11.18,11.18,0,0,0-1.72-11.64c-2.48-2.8-6.12-4-9.77-4.7s-7.46-.87-11-2-6.83-3.67-6.62-7.88a4.48,4.48,0,0,1,.83-2.54c1.44-1.84,3.84-1,5.33.15,3.72,3,6.74,7.56,11.58,8.05,2.58.26,5.33-.71,8-.71C164.8,249.14,167,250.07,167.8,251.92ZM60.53,312.44c-2.53,1.44-6,1.24-6.59-1.56l.15-.52a7.71,7.71,0,0,1,3.72-3.12,9.07,9.07,0,0,1,3.13-1.14,2.28,2.28,0,0,1,2.47,1.43C64,309.31,62.24,311.47,60.53,312.44Zm31.33-43.71,0,0a2.18,2.18,0,0,1,.09-.23c0-.15.1-.29.16-.43a6.84,6.84,0,0,1,3.27-3.23,4.13,4.13,0,0,1,5.09.28,4.57,4.57,0,0,1,0,5.58,6.34,6.34,0,0,1-2.2,1.74c-1.87,1-4.09,1.28-5.52.08A3.81,3.81,0,0,1,91.86,268.73Zm21-24.92a5.82,5.82,0,0,1-4,3.16,11.24,11.24,0,0,1-4.59-.17c-5.29-1-13.19-5.38-3.67-10.32,4.52-2.36,10.16-1.65,12.11,2.72A5.8,5.8,0,0,1,112.81,243.81Zm-4.67,58.54c2.33.11,3.94,2.21,4.77,4.53.58,1.62.76,3.86-.57,5.26s-3.36,1-4.65,0a9.18,9.18,0,0,1-3.21-5.38A3.55,3.55,0,0,1,108.14,302.35Zm20-26.92a4.23,4.23,0,0,1,.19,2.73,2.47,2.47,0,0,1-1.16,1.36c-3.55,2-4.45-.88-4.68-2.74a3.36,3.36,0,0,1,2.53-3.69,1.85,1.85,0,0,1,.47,0A3.39,3.39,0,0,1,128.12,275.43Z"/><path class="af" d="M167.8,251.92a4.1,4.1,0,0,1,.36,1.68Q168,252.76,167.8,251.92Z"/><g class="ag"><path class="i" d="M99.69,294.46c-.19-2.16-.27-4.35-.28-6.56s.07-4.43.26-6.67l.12-1.38c-2.73,3.34-5.57,6.59-8.52,9.7A121,121,0,0,1,82,298.43c-1.64,1.33-3.26,2.68-5,3.89-.84.62-1.72,1.16-2.58,1.74a27.92,27.92,0,0,1-2.66,1.48,61.82,61.82,0,0,0,4.67-4.21c.73-.77,1.5-1.47,2.22-2.24l2.18-2.3q4.29-4.67,8.32-9.58c1.91-2.34,3.78-4.71,5.64-7.1l-.38.22a58.75,58.75,0,0,1-8,3.72,37.14,37.14,0,0,1-8.21,2.06,22.08,22.08,0,0,1-8-.32,41.71,41.71,0,0,0,15.79-4,81.7,81.7,0,0,0,7.61-3.91c1.25-.72,2.5-1.47,3.74-2.24l1.51-.95c1.94-2.59,3.85-5.19,5.72-7.84l1.88-2.6c.63-.86,1.22-1.76,1.83-2.64l3.67-5.27c2.16-3.16,4.28-6.36,6.45-9.52a42.84,42.84,0,0,1-8,4.67,35,35,0,0,1-8.43,2.56,26.44,26.44,0,0,1-8.27.11,39.78,39.78,0,0,0,8.24-1.5,43.71,43.71,0,0,0,8-3.21,49.38,49.38,0,0,0,14.09-11.12h0c.77-1.14,1.55-2.29,2.3-3.46,2.37-3.61,4.73-7.24,7.25-10.79-1.76,4-3.68,7.89-5.6,11.81-1.19,2.29-2.42,4.57-3.66,6.84a38.31,38.31,0,0,0-1.5,4.93c-.69,2.83-1.28,5.68-1.81,8.53s-1,5.73-1.28,8.6-.59,5.74-.82,8.63a70.21,70.21,0,0,1-.36-8.5,82.92,82.92,0,0,1,.59-8.71c.21-2,.52-3.91.88-5.88L118.49,253c-1.14,1.86-2.25,3.74-3.44,5.56-2.41,3.63-4.75,7.32-7.34,10.82q-2.52,3.56-5.19,7c-.24,1.55-.47,3.1-.66,4.66-.26,2.19-.52,4.38-.68,6.57s-.32,4.39-.43,6.58-.16,4.39-.21,6.6A59.71,59.71,0,0,1,99.69,294.46Z"/><path class="i" d="M66.83,230.57a12.44,12.44,0,0,1,1.39-1.42,11.87,11.87,0,0,1,3.23-2,9.37,9.37,0,0,1,3.46-.75,6,6,0,0,1,3.19.72c-1.15.23-2.21.45-3.26.73a26,26,0,0,0-3.08,1,26.64,26.64,0,0,0-3,1.47q-.75.42-1.5.9a3.21,3.21,0,0,0-1.3,1.19A3.06,3.06,0,0,1,66.83,230.57Z"/><path class="i" d="M73.39,229.7a10.3,10.3,0,0,1,3.38-.57,6.53,6.53,0,0,1,3.13.73l-3.23.73c-1,.26-2.06.56-3.08.9s-2,.73-3,1.17-2,.93-3.15,1.43a11.15,11.15,0,0,1,2.73-2.71A12.63,12.63,0,0,1,73.39,229.7Z"/><path class="i" d="M94.8,208a9.1,9.1,0,0,0-4.12-.36,13.67,13.67,0,0,0-4.46,1.45,9.52,9.52,0,0,1,4.43-2.88,7.9,7.9,0,0,1,4.88,0,7.17,7.17,0,0,1,3.69,2.94,8.16,8.16,0,0,1,1.31,4.85,11.73,11.73,0,0,0-2.35-3.78A8.42,8.42,0,0,0,94.8,208Z"/><path class="i" d="M94.08,212.57a9.59,9.59,0,0,0-1.88-.9,16.67,16.67,0,0,0-2.23-.6,4.72,4.72,0,0,1,2.61-.86,4.5,4.5,0,0,1,2.49.69,4.68,4.68,0,0,1,1.73,2,5,5,0,0,1,.44,2.79,18.78,18.78,0,0,0-1.53-1.77A10.48,10.48,0,0,0,94.08,212.57Z"/></g><path class="g" d="M784.2,134.64c-4.94,13.54-12.62,18-11.71,32.36,1.07,16.8-5,34.3-3.88,51.1.32,5.1,2.18,10.64,1.57,15.75-.7,5.76-8.43,6.22-13.38,7.38a81.17,81.17,0,0,1-47.15-3c-1.27-.48.2-20.55.24-22.53q.3-14.92.77-29.84c.55-16.63-.06-35.42,1.18-46.57.92-8.35,11.08-14.55,12.56-14.92,8-2,13.9-4,22.18-4.43C766.6,118.76,784.08,135,784.2,134.64Z"/><path class="g" d="M717.61,130.5s-10.4,9.82-11.56,11.55-17.33,65.28-17.33,65.28l28.89,17.33Z"/><path class="ah" d="M751.28,66.88a5.33,5.33,0,0,1,8,2,51.79,51.79,0,0,1,6.59,9.85c1.16,2.08,2.36,4.29,2.24,6.67a12.54,12.54,0,0,1-1.36,4.42l-2.14,4.8c-1.06,2.36-2.42,5-4.92,5.65,1.63.2,2.17,2.54,1.27,3.91s-2.58,2-4.13,2.48a25.18,25.18,0,0,0-10.35,5.72,18.73,18.73,0,0,1-11.93,4.41A15.72,15.72,0,0,1,724,112.44c-3.52-3.27-3-8-3-12.52q.11-8.42.22-16.83a16.7,16.7,0,0,1,.88-6.33c1.39-3.17,4.35-3.56,6.89-3.64l25.34-.74"/><path class="p" d="M743.2,105.78,752.61,125l-4.31,3.45a10,10,0,0,1-15.69-4.71l-5.46-16.93Z"/><path class="q" d="M733.15,123.12l-6.88-16.06L743,105.78l4.77,12.82A28,28,0,0,1,733.15,123.12Z"/><path class="p" d="M716.14,102.36a19.91,19.91,0,0,0,3.22,8.71c1.65,2.55,3.74,3.4,6.29,4.35,7.25,2.71,20.79,1.64,24.62-6.54a14.2,14.2,0,0,0,1-3.7c1.61-9.82,3.9-21.06-5.63-27.43a37.4,37.4,0,0,0-8.49-3.91c-5-1.77-12.36-4-16.35,1.62-2.32,3.27-1.66,9.79-2.62,13.82C717.14,93.52,715.71,97.84,716.14,102.36Z"/><path class="c" d="M744.05,91.49c.16,0,.09-.47-.36-1.07a7,7,0,0,0-2.52-2,8.6,8.6,0,0,0-3.31-.84c-.86,0-1.35.14-1.32.28.07.3,2,.44,4,1.43S743.7,91.59,744.05,91.49Z"/><path class="c" d="M727.61,85.28c0-.13-.33-.37-1-.57a6.94,6.94,0,0,0-2.53-.26,4.63,4.63,0,0,0-2.19.68c-.47.34-.52.71-.36.79s.47,0,1-.11a18.51,18.51,0,0,1,2-.29C726.11,85.38,727.54,85.56,727.61,85.28Z"/><path class="c" d="M730,91.1c-.4,1-.72,2-1,3L728,97l-.23.74-.12.37a.66.66,0,0,1-.09.19.73.73,0,0,1-.37.26,1.17,1.17,0,0,1-.27.05,1.16,1.16,0,0,0-.59.16,1.34,1.34,0,0,0-.61.87,1.79,1.79,0,0,0,0,.95,3.1,3.1,0,0,0,1,1.29,4.2,4.2,0,0,1-.5-1.41.9.9,0,0,1,.43-.94.31.31,0,0,1,.17,0,1.48,1.48,0,0,0,.51,0,1.72,1.72,0,0,0,1-.53,1.49,1.49,0,0,0,.29-.5l.14-.38.25-.75a22,22,0,0,0,.73-3.09A15.38,15.38,0,0,0,730,91.1Z"/><path class="c" d="M723.81,103,739.07,105s.34,6.19-6,6.27C724.47,111.33,723.81,103,723.81,103Z"/><path class="f" d="M732,107.54a7.83,7.83,0,0,1,6.29.78l0,0c-.75,1.45-2.24,2.83-5.19,2.87a9.68,9.68,0,0,1-4.83-1.08A7.33,7.33,0,0,1,732,107.54Z"/><path class="c" d="M734.51,94.93a4,4,0,0,1,1.93-.9,4.63,4.63,0,0,1,2,.17,7,7,0,0,1,1.86.88,6.59,6.59,0,0,1,1.58,1.41l.06.08a.18.18,0,0,0,.25,0c.32-.19.18-.54-.18-.47l.32.12a4.56,4.56,0,0,0-1.38-2,5.31,5.31,0,0,0-2.2-1.16,4.1,4.1,0,0,0-2.54.13A2.94,2.94,0,0,0,734.51,94.93Z"/><path class="c" d="M726.52,94.31a4.05,4.05,0,0,0-1.31-1.69,4.74,4.74,0,0,0-1.85-.74,7.15,7.15,0,0,0-4.1.47l-.09.05a.21.21,0,0,1-.25-.08c-.19-.31.09-.56.38-.34L719,92a4.58,4.58,0,0,1,2.15-1.19,5.24,5.24,0,0,1,2.49,0A4,4,0,0,1,725.8,92,2.93,2.93,0,0,1,726.52,94.31Z"/><path class="p" d="M757,89c1.33.58,1.94,2.14,2.09,3.59a9.84,9.84,0,0,1-6.47,10c-1.22.41-2.76.48-3.6-.49s-.54-2.52-.07-3.75C749.81,96,753.35,87.46,757,89Z"/><path class="c" d="M757.7,92.53a3,3,0,0,0-1.59.53A7.26,7.26,0,0,0,753.35,96a12.25,12.25,0,0,0-1.22,3.83,5.36,5.36,0,0,0-.12,1.66,7.31,7.31,0,0,0,.42-1.6,15.84,15.84,0,0,1,1.3-3.69,8.07,8.07,0,0,1,2.54-2.88C757.1,92.76,757.72,92.6,757.7,92.53Z"/><path class="c" d="M753.38,100.73c.06,0,.27-.22.56-.67a6.52,6.52,0,0,0,.88-1.92,3.72,3.72,0,0,0,0-2.14c-.2-.52-.46-.76-.5-.73s.1.32.2.82A4.5,4.5,0,0,1,754.4,98a11.58,11.58,0,0,1-.73,1.88C753.45,100.39,753.33,100.7,753.38,100.73Z"/><path class="ai" d="M759.34,70.73c.81,3.13,0,6.28-1.19,9.2-.86,2.17-1.56,5.33-2.71,7.31-3.76,6.54-9.9-3.27-9.43-3.54-3.79,2.22-6.94-.26-10.62-1.09-3.17-.7-6.76-.36-9.95,0-1.38.13-5.48,1.39-6.71.63-1.47-.9-.21-2,1.57-2.41-3.91.81-10.37-.79-9.67-6,.29-2.23,2.8-4,4.9-3.23a6.09,6.09,0,0,1,2.2-11.13c3.59-.65,6.95,1.93,10.57,2.34,4.05.45,7.86-1.85,11.86-2.69a17.49,17.49,0,0,1,15.64,4.9A12.64,12.64,0,0,1,759.34,70.73Z"/><path class="aj" d="M729.74,64.94h.57"/><path class="f" d="M756.71,427.85c-5.81,5.19-20.36,9.87-23.43,3.16-1.24-2.7.47-5.87,2.12-8.35,4.88-7.35,9.66-12.57,7.91-22.13l14.16,1.88c-.74-.1.29,7.93.48,8.81,1,4.74,3,9.11.87,14A8.23,8.23,0,0,1,756.71,427.85Z"/><path class="f" d="M710,400.54c-6.44,1.45-8.61,1.09-15.18.11l-11.65,8s-13.34,8.54-12.35,12.12S707.26,416,707.26,416a5.81,5.81,0,0,0,4.21-7.65C710.42,404.52,709.3,403.8,710,400.54Z"/><path class="c" d="M768.25,237.68s.76,26.44-.23,33.51c-2.29,16.22-9.4,139.05-9,137.62,0,0-9.85,2.55-15.88-1.27s-12.77-128.26-12.77-128.26l-6.53-.65L711,326.35s3.84,75.44,1.37,75.81-19.37,3.35-20.46-.87-7.41-80.7-7.41-80.7l26.75-85.23Z"/><path class="q" d="M703,261.71c5.42,10.35,20.82,16.92,20.82,16.92L711,326.35s3.84,75.44,1.37,75.81-19.37,3.35-20.46-.87-7.41-80.7-7.41-80.7Z"/><path class="q" d="M758.46,160.34c-1.09,5.63,2.95,37.54-1.3,39.7-13.37,6.8-24.87,15.82-28,18.89A4.18,4.18,0,0,0,733,226c9.68-1.94,20.42-7.78,26.25-13.26,8.28-7.79,12.81-19.07,13.66-30.41.63-8.36-.29-17.87-3.36-25.74C765.68,146.74,760,152.27,758.46,160.34Z"/><path class="r" d="M728.84,92.47a7.68,7.68,0,1,1-6-9A7.68,7.68,0,0,1,728.84,92.47Z"/><path class="r" d="M747.23,97.42a7.68,7.68,0,1,1-6-9A7.68,7.68,0,0,1,747.23,97.42Z"/><path class="r" d="M727.31,94.17a6.47,6.47,0,0,1,6,.74"/><path class="c" d="M258.37,62.2c9.9,5.79,12.8,15.69,15.27,26.14,1.32,5.6,2,9.16.81,14.68-.27,1.2-5.4,15.2-6.13,14.34l-2.76-3.29c-.44.78-.88,1.57-1.33,2.35a59.66,59.66,0,0,1-33.49-2.86c.35,1.29.69,2.58,1,3.87a29,29,0,0,1-19.09-19.79C205.92,72.6,235.76,49,258.37,62.2Z"/><path class="p" d="M240.08,105.67c-2.25,5.62-2.88,12.3-8.75,14.35-8.66,3.47-19.86,6.78-12.56,9.31.89.31,3.82,8.38,4.62,7.87.47-.3,23.57,16.53,23.83,16,1.08-2.07,15.53-11.33,16.17-13.57.43-1.51,8-7.71,7.66-9.24-.44-2.11-20.83-9.58-21.06-11.28s1.91-4,2.59-5.42c1.19-2.53,2.37-5.07,3.55-7.6Z"/><path class="e" d="M250.06,119.11l6.07-13-16-.45L235.93,116A31,31,0,0,0,250.06,119.11Z"/><path class="p" d="M266.13,101.56a19.73,19.73,0,0,1-3.26,8.54c-1.66,2.5-3.73,3.31-6.25,4.22-8,2.89-19.5,1.73-23-8.71-1.41.94-3.27-.35-3.88-2.11s-.18-3.15-.21-4.83c0-1.39-.22-2.71-.18-4.12A28.34,28.34,0,0,1,231,84.45,16.86,16.86,0,0,1,237.4,77a37.07,37.07,0,0,1,8.41-3.75c4.91-1.7,12.21-3.82,16.08,1.78,2.24,3.25,1.52,9.67,2.42,13.65C265.25,92.83,266.6,97.11,266.13,101.56Z"/><path class="p" d="M225.06,93.15c-1.3.81-1.71,2.54-1.64,4.07a10.4,10.4,0,0,0,8.29,9.49c1.34.25,3,.09,3.7-1.06s.18-2.72-.5-3.94C233.61,99.36,228.62,91,225.06,93.15Z"/><path class="c" d="M224.83,96.92a3.2,3.2,0,0,1,1.74.31,7.83,7.83,0,0,1,3.34,2.66,12.91,12.91,0,0,1,1.86,3.84,5.23,5.23,0,0,1,.37,1.72,9.56,9.56,0,0,1-.68-1.61,15.94,15.94,0,0,0-1.92-3.67,8.4,8.4,0,0,0-3.1-2.64C225.49,97.08,224.82,97,224.83,96.92Z"/><path class="c" d="M230.59,104.85c-.05,0-.31-.19-.69-.61a7.36,7.36,0,0,1-1.21-1.88,3.85,3.85,0,0,1-.27-2.24c.12-.59.36-.88.41-.85s-.06.36-.09.89a4.72,4.72,0,0,0,.38,2,12.41,12.41,0,0,0,1,1.85C230.47,104.51,230.64,104.81,230.59,104.85Z"/><path class="c" d="M239.41,93.27c-.15-.07,0-.5.54-1.07a7.3,7.3,0,0,1,2.92-1.68,9.28,9.28,0,0,1,3.59-.4c.91.1,1.39.34,1.34.48-.11.3-2.16.18-4.41.92S239.77,93.43,239.41,93.27Z"/><path class="c" d="M246.3,104.85c.13-.06.46.27,1.08.68a7.57,7.57,0,0,0,2.8,1.11,9.75,9.75,0,0,0,3.25,0c.85-.15,1.38-.32,1.45-.22s-.36.41-1.26.71a7.89,7.89,0,0,1-3.74.24,5.7,5.7,0,0,1-3-1.47C246.29,105.33,246.18,104.89,246.3,104.85Z"/><path class="c" d="M256.27,89.29c0-.14.37-.37,1.06-.54a7.48,7.48,0,0,1,2.68-.09,4.83,4.83,0,0,1,2.27.86c.48.39.5.78.32.86s-.49,0-1-.18a17.39,17.39,0,0,0-2.1-.44C257.84,89.49,256.32,89.59,256.27,89.29Z"/><path class="c" d="M253.7,91.41a15.7,15.7,0,0,0-.23,3.35,23.3,23.3,0,0,0,.31,3.34l.15.82,0,.22a2,2,0,0,0,.08.26,1.89,1.89,0,0,0,.25.49,2,2,0,0,0,.86.71,1.83,1.83,0,0,0,.55.13.34.34,0,0,1,.18,0,1,1,0,0,1,.31,1,4.49,4.49,0,0,1-.73,1.4,3.28,3.28,0,0,0,1.26-1.2,1.9,1.9,0,0,0,.2-1,1.44,1.44,0,0,0-.51-1,1.27,1.27,0,0,0-.59-.27.62.62,0,0,1-.25-.09,1,1,0,0,1-.36-.37c0-.09-.08-.17-.11-.26l0-.13,0-.2-.14-.8-.56-3.24C254.17,93.59,254,92.51,253.7,91.41Z"/><path class="c" d="M246.08,98.54c-.58.12-1.3-.52-1.42-1.48s.41-1.85,1-2,1,.59,1.13,1.53S246.67,98.41,246.08,98.54Z"/><path class="c" d="M245.59,96a2.29,2.29,0,0,1-1.46-1,1.35,1.35,0,0,0,1,1.64,2.1,2.1,0,0,1-2-.24,2.22,2.22,0,0,0,2.57.67"/><path class="c" d="M258.71,97.68c.59,0,1.21-.69,1.2-1.66s-.65-1.77-1.24-1.8-.92.73-.91,1.67S258.11,97.63,258.71,97.68Z"/><path class="c" d="M258.85,95.05a2.28,2.28,0,0,0,1.3-1.23,1.34,1.34,0,0,1-.78,1.76,2.12,2.12,0,0,0,2-.51,2.19,2.19,0,0,1-2.45,1"/><path class="r" d="M255.92,95.33a7.68,7.68,0,1,0,7.26-8.07A7.67,7.67,0,0,0,255.92,95.33Z"/><path class="r" d="M237,97.58a7.68,7.68,0,1,0,7.26-8.07A7.67,7.67,0,0,0,237,97.58Z"/><path class="r" d="M257.19,97.23a6.47,6.47,0,0,0-6-.13"/><path class="r" d="M237.37,96.65a41.73,41.73,0,0,0-11.06-4c-.67-.14-1.62-.09-1.76.59"/><path class="c" d="M254.94,87.2c-4.75-.32-9.27-2.3-13.64-4.25,1.3.58-9.29,10.33-10.92,10.83-5.55,1.71-6.52-5.85-6.32-10,.24-4.81,1-9.41,5-12.23a28.71,28.71,0,0,1,31.61-.73c3.14,2,9,6.51,6.93,10.86-1.85,3.84-7.55,5.55-11.43,5.54C255.77,87.24,255.35,87.23,254.94,87.2Z"/><path class="d" d="M290.89,173a7.73,7.73,0,0,1-4.4,5.61,10.69,10.69,0,0,1-8.88-.36c-12-5.73-21.05-28.62-17-41,1-3,4.17-7.43,7.6-8,6.18-1,4.34,2.94,5.44,6.52,3.28,10.76,10.58,21.38,15.72,31.42a12.55,12.55,0,0,1,1.52,4.1A6.18,6.18,0,0,1,290.89,173Z"/><path class="f" d="M290.89,173a7.73,7.73,0,0,1-4.4,5.61,10.69,10.69,0,0,1-8.88-.36c-12-5.73-21.05-28.62-17-41,1-3,4.17-7.43,7.6-8,6.18-1,4.34,2.94,5.44,6.52,3.28,10.76,10.58,21.38,15.72,31.42a12.55,12.55,0,0,1,1.52,4.1A6.18,6.18,0,0,1,290.89,173Z"/><path class="t" d="M290.89,173a7.73,7.73,0,0,1-4.4,5.61,10.69,10.69,0,0,1-8.88-.36c-12-5.73-21.05-28.62-17-41,1-3,4.17-7.43,7.6-8,6.18-1,4.34,2.94,5.44,6.52,3.28,10.76,10.58,21.38,15.72,31.42a12.55,12.55,0,0,1,1.52,4.1A6.18,6.18,0,0,1,290.89,173Z"/><path class="f" d="M241.58,413.88c-1.27,3.43-2.66,6.08-3.91,7.13-2.19,1.84-5.52,2.5-8,1.05-2.31-1.34-3.4-4.18-3.39-6.84,0-4.2,2.15-6.55,3.87-10,2.39-4.83,3.63-10.64,5.37-15.75.68-2,1.57-4.27,3.54-5.09C248.92,380.24,246,401.85,241.58,413.88Z"/><path class="t" d="M241.58,413.88c-1.27,3.43-2.66,6.08-3.91,7.13-2.19,1.84-5.52,2.5-8,1.05-2.31-1.34-3.4-4.18-3.39-6.84,0-4.2,2.15-6.55,3.87-10,2.39-4.83,3.63-10.64,5.37-15.75.68-2,1.57-4.27,3.54-5.09C248.92,380.24,246,401.85,241.58,413.88Z"/><path class="l" d="M221.74,208.9s-11.57,16.38-8.9,79.28c2.08,49.09,24,99.86,24,99.86s7.38,2,10.2-2.12-5.93-99.15-4.65-107,5.65-54.33,5.65-54.33l-1.67-21Z"/><path class="p" d="M221.74,208.9s-11.57,16.38-8.9,79.28c2.08,49.09,24,99.86,24,99.86s7.38,2,10.2-2.12-5.93-99.15-4.65-107,5.65-54.33,5.65-54.33l-1.67-21Z"/><path class="l" d="M270.16,208.09c-14.48,7.18-33.62,1.94-48.77,0,3.63.45,8.13-41.07,8.76-45.28.2-1.32,31.25,3.16,35,3.65a191.53,191.53,0,0,0,0,24.55C265.21,193,267.49,209.42,270.16,208.09Z"/><path class="p" d="M263.21,320s-1.53,15.61-19.42,79.37c.44,2.75.74,7.25-1.22,9.64s-14.71-7.26-11.26-11.45c10.87-13.23,7-52.78,8.69-67.3l7.12-14.89Z"/><path class="f" d="M233.32,392.15c4.1,3.56,5.76,4.11,10.81,5.85l5.52,10.59s6.54,11.67,4.58,14.05-24.37-17.52-24.37-17.52a5.25,5.25,0,0,1-.33-7.51C231.62,395.06,232.67,394.93,233.32,392.15Z"/><path class="f" d="M220.7,138.1c-1.91,5.87-8.74,32.48-10,41-5.87-.52-6.75.67-12.63.15a8,8,0,0,1-4.09-1.14c-2-1.49-2.18-4.43-2-6.95a86.26,86.26,0,0,1,6.7-28.2c1.7-4,3.89-10.37,7.13-13.36,3.07-2.83,3.82-1.78,7.89-2.24"/><path class="p" d="M266.38,208.14a139.73,139.73,0,0,1,6,69.34c-.42,2.68-.93,7.72-1.41,10.32-.59,3.21-.86,6.52-1.34,9.76q-1.45,9.69-3.29,19.33c-2.24,11.86-4.85,23.64-7.72,35.34-2.95,12-9.77,29.44-13.42,41.2,0,0-6.73.53-9.25-3.66s8.92-104.43,7.92-112.29c-2-15.39-2.59-31.08-3.76-46.58-1.81-.55-23.66-7.17-23.65-7.19q2.93-10.44,5.86-20.89A88.18,88.18,0,0,0,264.86,204C265.39,205.34,265.9,206.74,266.38,208.14Z"/><path class="t" d="M233.41,189a11.85,11.85,0,0,1-5.46-3c-1.42-1.54-2-4-.95-5.79,0,.07,17.91,4,19.69,4.14,6.49.63,12.91-.26,19.31,0-2,3.59-9.29,5-13,5.68A41.47,41.47,0,0,1,233.41,189Z"/><path class="f" d="M209,127.8c.68-.88,17.16-6,22.38-7.78l14,14.62,4.64-15.5c1.3.57,23.39,11,22.07,10.84-4.56,3-5.15,9-3.92,14.31,1.48,6.42,4.16,12.39,2.29,19.06-1.53,5.43-3.26,8.29-3.13,14.34.34,15,2.76,30,5,44.8l6.33,41.76c1.14,7.54,2.11,15.91-2.2,22.21-5.54,8.12-15.42,6.23-23.86,6.93a131.9,131.9,0,0,1-29.38-1.26c-9.25-1.41-17.88-5.85-26.62-9.44l15.91-74.77c2.93-13.79,8.28-29.26,8.57-43.38.2-10.39-5.76-23.81-10.64-32.76C209.67,130.41,207.92,129.11,209,127.8Z"/><path class="t" d="M253.25,173.22c.91.27,2,.82,1.94,1.77s-1.09,1.23-1.93,1.39a25.2,25.2,0,0,1-22.81-7.58C234.85,165,248.27,171.77,253.25,173.22Z"/><path class="ak" d="M149.11,135.07l6.51-2.74s13.1,25.42,15.41,35.82,7.31,42,7.31,42L161.4,221.67,148.69,157Z"/><path class="p" d="M142.15,140.4c15.39-7.77,25.91-23.22,33.09-38.52,6.86-14.63,8.17-30,6.78-45.79a13.44,13.44,0,0,0-1-4.74c-.34-.67-6.09-10.6-.84-6.86a15,15,0,0,0,2.26,1.81c-1.11-.51-2.39-9.41-2.66-10.88a3.21,3.21,0,0,1,0-1.74,1.22,1.22,0,0,1,1.41-.8,1.79,1.79,0,0,1,.7.55c1,1.1,2,2.21,3,3.32a3.45,3.45,0,0,1,3.55-.07A7.07,7.07,0,0,1,191,39.27c5.48,8.56,0,15.41,0,24.47,0,3.67.8,7.29,1.22,10.94,4,34.4-14,64.8-42.62,84.43-.79.54-2.39.66-2.24-.27"/><path class="p" d="M182,56.09c0,.59.09,1.18.13,1.77,2.88,1.35,5.86,2.6,8.9,3.67.74-8,4.94-14.41-.08-22.26a7.07,7.07,0,0,0-2.56-2.59,3.45,3.45,0,0,0-3.55.07c-1-1.11-2-2.22-3-3.32a1.79,1.79,0,0,0-.7-.55,1.22,1.22,0,0,0-1.41.8,3.21,3.21,0,0,0,0,1.74c.27,1.47,1.55,10.37,2.66,10.88a15,15,0,0,1-2.26-1.81c-5.25-3.74.5,6.19.84,6.86A13.44,13.44,0,0,1,182,56.09Z"/><path class="al" d="M194.52,63.78c-2.94-1-9.4-2-12.19-3.3.78,14.22-.87,28.13-7.09,41.4-7.18,15.3-17.7,30.75-33.09,38.52l5.14,18.44c-.15.93,4.46,4.07,5.25,3.53,28.63-19.63,45.05-48.24,42.75-82.8C194.9,73.8,194.54,67.39,194.52,63.78Z"/><path class="p" d="M176.9,254.21s-19.38,76.14-43.59,139.49c.28,2.83.29,7.43-2,9.7s-15.63-8.51-11.54-12.5c12.89-12.59,12.33-64,15.24-78.59l9.95-71.42Z"/><path class="q" d="M174.76,262.74s-17.24,67.61-41.45,131c.28,2.83.29,7.43-2,9.7s-15.63-8.51-11.54-12.5c12.89-12.59,12.33-64,15.24-78.59l6.22-50.1Z"/><path class="c" d="M122.33,385.53c4.24,3.94,6,4.62,11.45,6.78l5.31,11.18s6.34,12.36,4,14.63-25.5-19.68-25.5-19.68a5.1,5.1,0,0,1,.18-7.66C120.25,388.36,121.42,388.3,122.33,385.53Z"/><path class="p" d="M157,322.23s5.14,15.12,14.52,82.3c1.61,2.34,3.84,6.36,2.9,9.48s-16.22.33-16.15-5.38c.24-17.74-16.58-57.9-21.08-72.1l1.75-11.14Z"/><path class="c" d="M157.93,402.68c5.62,1.39,7.52,1.13,13.3.4l10,7.23s11.52,7.76,10.58,10.88S160,416.26,160,416.26a5.09,5.09,0,0,1-3.53-6.8C157.48,406.15,158.47,405.54,157.93,402.68Z"/><path class="p" d="M120,214.65s-9.23,9.6-10.3,29.85c-1.33,25.23,45.62,138.22,45.62,138.22S167.71,407.24,170.2,403,148,247.7,148,247.7l25.59-10.31s-1.07-13.85-7.82-21C161.17,223.56,120,214.65,120,214.65Z"/><path class="g" d="M119.91,207.62a32.94,32.94,0,0,0,3.47-9.86c.77-5.09-.57-10.32-2.84-14.94-2.74-5.55-6.86-10-8.86-15.88-2.73-8.08-4.61-11.91-3.9-20.19.32-3.79,3.84-6.52,7.22-9.24,5.39-4.34,11.24-1.4,17.38-3a12.08,12.08,0,0,1,4.11-.32,24,24,0,0,0,5.06-.37,11.65,11.65,0,0,1,12.26,6.11c2.09,4.17,5.3,7.14,6.84,10.42.78,1.68,2.33,3.85,3.16,5.4a25.39,25.39,0,0,1,3.34,10.4,14.82,14.82,0,0,1-4,11.2,11.68,11.68,0,0,0-3,9.3,37.45,37.45,0,0,0,5.18,15.07,11.51,11.51,0,0,1,.89,1.75c1.95,4.83,10.53,27.3,10.53,48.29,0,23.69-55.52,95.89-56.28,89.53-2-16.53-6.55-32.52-9.64-48.84-4.35-23-3.92-47.16,2-69.71C114.32,217.33,117.41,212.57,119.91,207.62Z"/><path class="l" d="M114.15,106c-2.31-8.48,1.1-18.07,8.41-23.61a27.23,27.23,0,0,1,26.63-3c3.21,1.43,6.42,4.73,4.75,7.64-1.28,2.23-4.51,2.52-7.06,3.41-4.93,1.72-7.95,6.24-10.6,10.45-1.9,3-3.84,6.14-4.36,9.6-.63,4.21,1.09,8.06,3.9,11.26C127.31,127.11,115.86,112.32,114.15,106Z"/><path class="p" d="M136.18,123.84,134.41,131c-1.12,4.52-2.28,8.17,4.24,9.13,7,1,8.18-4.43,9.48-9.66.35-1.43,1.34-8.08,3.31-8.34Z"/><path class="q" d="M146.72,135.36l3.7-13.06L136,123.87l-2.34,10.32A26.73,26.73,0,0,0,146.72,135.36Z"/><path class="p" d="M160.29,119.32a18.71,18.71,0,0,1-3.7,7.93c-1.75,2.26-3.78,2.9-6.25,3.6-7.84,2.2-18.73.3-21.39-9.9-1.41.8-3.09-.56-3.56-2.28s0-3,.13-4.63c.07-1.32,0-2.59.12-3.94a27,27,0,0,1,2.29-9.52,16.09,16.09,0,0,1,6.64-6.71,35.77,35.77,0,0,1,8.28-3c4.8-1.28,11.91-2.8,15.22,2.81,1.92,3.25.79,9.33,1.37,13.19C160.05,110.93,161.05,115.11,160.29,119.32Z"/><path class="p" d="M121.68,108.48c-1.3.68-1.8,2.3-1.84,3.76a9.94,9.94,0,0,0,7.25,9.63c1.27.33,2.83.29,3.61-.76s.35-2.58-.21-3.79C129.42,115,125.23,106.62,121.68,108.48Z"/><path class="c" d="M121.2,112.06a3,3,0,0,1,1.64.41,7.42,7.42,0,0,1,3,2.77,12.48,12.48,0,0,1,1.51,3.79,5,5,0,0,1,.23,1.66,8.45,8.45,0,0,1-.54-1.58,15.65,15.65,0,0,0-1.58-3.63,8.09,8.09,0,0,0-2.77-2.73C121.82,112.25,121.19,112.13,121.2,112.06Z"/><path class="c" d="M126.15,120c-.05,0-.28-.2-.61-.63a7.07,7.07,0,0,1-1-1.87,3.83,3.83,0,0,1-.11-2.17c.16-.54.41-.81.45-.78s-.08.34-.14.85a4.42,4.42,0,0,0,.22,2,11.61,11.61,0,0,0,.87,1.85C126.06,119.68,126.21,120,126.15,120Z"/><path class="l" d="M133.55,107.32c-.14-.08,0-.48.59-1a7.11,7.11,0,0,1,2.9-1.39,8.61,8.61,0,0,1,3.45-.14c.86.16,1.31.42,1.25.55-.13.28-2.07,0-4.27.57S133.88,107.5,133.55,107.32Z"/><path class="am" d="M151.43,105c0-.14.38-.33,1-.44a6.87,6.87,0,0,1,2.56.1,4.61,4.61,0,0,1,2.11,1c.43.4.42.78.25.84s-.47-.08-.94-.24a17.46,17.46,0,0,0-2-.57C152.92,105.31,151.46,105.3,151.43,105Z"/><path class="c" d="M149.12,108.78a16.46,16.46,0,0,0-.45,3.18,21.52,21.52,0,0,0,.08,3.21l.08.8,0,.2.06.26a1.77,1.77,0,0,0,.21.49,1.94,1.94,0,0,0,.77.73,1.76,1.76,0,0,0,.51.16.39.39,0,0,1,.17,0,.94.94,0,0,1,.23,1,4.32,4.32,0,0,1-.8,1.3,3.13,3.13,0,0,0,1.29-1.07,1.78,1.78,0,0,0,.25-.91,1.41,1.41,0,0,0-.41-1,1.22,1.22,0,0,0-.55-.29.9.9,0,0,1-.22-.1,1,1,0,0,1-.33-.39,1.83,1.83,0,0,1-.08-.25.59.59,0,0,1,0-.13l0-.19-.07-.78-.32-3.12C149.42,110.89,149.31,109.85,149.12,108.78Z"/><path class="c" d="M143.81,114.19A4.14,4.14,0,0,0,142,113a4.91,4.91,0,0,0-2-.14,7.25,7.25,0,0,0-2,.58,6.83,6.83,0,0,0-1.8,1.16l-.07.07a.2.2,0,0,1-.26,0c-.28-.25-.56-.5-.82-.78.37.09.72.21,1.08.33l-.34.07a4.69,4.69,0,0,1,1.7-1.81,5.4,5.4,0,0,1,2.39-.81,4.17,4.17,0,0,1,2.51.53A3,3,0,0,1,143.81,114.19Z"/><path class="c" d="M136.27,114l-.46-.64.78.14a.32.32,0,0,1-.11.63A.3.3,0,0,1,136.27,114Z"/><path class="c" d="M151.7,114.05a3.45,3.45,0,0,1,1.24-1.51,3.6,3.6,0,0,1,1.7-.52,6.05,6.05,0,0,1,1.88.17,6.2,6.2,0,0,1,1.85.78l.08,0a.17.17,0,0,0,.23,0c.18-.29.36-.59.52-.9a6.66,6.66,0,0,0-.85.52h.31a4.72,4.72,0,0,0-1.94-1.42,4.56,4.56,0,0,0-2.27-.32,3.19,3.19,0,0,0-2,1A2.83,2.83,0,0,0,151.7,114.05Z"/><path class="c" d="M158.17,112.44l.24-.72-.65.29a.31.31,0,0,0-.13.41.31.31,0,0,0,.39.18A.29.29,0,0,0,158.17,112.44Z"/><path class="c" d="M153,122.52l-11.3-1.71s-1.5,4.35,3,5.69C150.82,128.33,153,122.52,153,122.52Z"/><path class="f" d="M146.22,124.1a5.78,5.78,0,0,0-4.65-.72h0a4.06,4.06,0,0,0,3.13,3.11,7.25,7.25,0,0,0,3.67.2A5.33,5.33,0,0,0,146.22,124.1Z"/><path class="l" d="M144.16,100.87c9.47,2.18,21.57,2.85,17.92-7.17C157.66,81.56,144,76,132.9,82.73a24,24,0,0,0-9.54,11.34c-1.63,3.63-4.89,6.29-3.44,10.32.36,1,7.09,9.26,7.83,7.81L134.94,98A55,55,0,0,0,144.16,100.87Z"/><path class="l" d="M141.06,81.8c3.28-.42,5.15-4.48,4.19-7.64s-3.93-5.34-7-6.51a20,20,0,0,0-7.46-1.27,17,17,0,0,0-11.1,4.23,13.27,13.27,0,0,0-4.37,10.87,10.87,10.87,0,0,0,7,9.12,9.24,9.24,0,0,0,10.62-3.67"/><path class="an" d="M115,137.51l-6,80.31L138.29,224s12.33-48.52,7.7-56.22-17.71-32.35-17.71-32.35S121,131.9,115,137.51Z"/><path class="q" d="M134.24,184.38c-.49-.91-.94-1.83-1.37-2.76-2.6-5.71-4.13-11.84-5.65-17.92-1-3.8-1.43-8.28-3-11.86-1.1-2.49-4.81-4-4.28,0l2.31,17.38,1.17,8.86c.26,1.93,0,4,.34,5.88.71,3.57,4,7.43,6.68,9.7A21.41,21.41,0,0,0,141,198.31a4.39,4.39,0,0,0,1.91,0c4.1-1.21-2.87-5.77-4.12-7.23A37.52,37.52,0,0,1,134.24,184.38Z"/><path class="f" d="M122.36,252l-13.93-.51a4.74,4.74,0,0,1-4.53-5.34l2-16a4.75,4.75,0,0,1,4.53-4.15l14.3-.51a4.75,4.75,0,0,1,4.87,5.39l-2.38,17A4.75,4.75,0,0,1,122.36,252Z"/><path class="ao" d="M124,231.69s33.51-88.38,29.46-93-6.93-2-6.93-2"/><path class="g" d="M134.45,130.29c4.32-.21,10.36,1.83,12.68,2.38a9,9,0,0,1,4.21,1.79,4.3,4.3,0,0,1,.77,5.22c-1.44,2.43-5.23,2.46-7.78,2.48a21.76,21.76,0,0,1-10.22-2.57c-1.79-1-4.31-1.94-4.43-5S131.65,130.43,134.45,130.29Z"/><path class="q" d="M152.76,138.2c-.23,2.28-2.26,3.28-4,3.61a22.91,22.91,0,0,1-14.42-2.22c-1.47-.74-3.39-1.53-4.23-3.29a5.32,5.32,0,0,0,0,.57c.12,3.09,2.77,4.08,4.66,5a22.9,22.9,0,0,0,14.42,2.22c1.8-.34,3.89-1.37,4.05-3.75A4.4,4.4,0,0,0,152.76,138.2Z"/><path class="ap" d="M231.33,120l14,14.62-13.86,4.62S221.94,123.3,231.33,120Z"/><path class="ap" d="M245.35,134.64l4.71-15.53s12.62,10.91,6.84,17.27Z"/><path class="ap" d="M159.39,333.43c94.83,29.94,191.84,43.07,288.55,39.05,54.66-2.28,109.16-10,163.62-17.71L730.7,337.88c-22.34-53.14-25.46-124.65-8-182l-244.12,3.38c-57.46.8-114.94,1.59-172.4-.17-29-.89-57.89-2.43-86.8-5-12.61-1.09-28.28-7-40.69-3.67-12.18,3.29-7.62,25.17-7.34,39.3A694.76,694.76,0,0,1,159.39,333.43Z"/><path class="p" d="M173,207c-1.87,2.19-2.78,4.83-.53,7.09s7,.63,9.45-.1l9.58-2.9c2.05-.62,4.54-1.83,4.41-4a4.28,4.28,0,0,0-2.26-3A15.8,15.8,0,0,0,173,207Z"/><path class="aq" d="M117.88,135.51l17,59.41,38.93,8.85s-.37,10.9-3.19,12-52.06-6.24-53.93-9.16c-1.37-2.14-8.79-31.24-12.66-46.66a15,15,0,0,1-.24-5.09,24.09,24.09,0,0,1,13-18.8Z"/><path class="p" d="M706.06,242.5v-.11c0-8.29,8.57-18.58,17.37-14.94a11.37,11.37,0,0,1,5.66,4.63c2,3.29.75,4-2.06,6.38C722.62,242.12,706.18,256.64,706.06,242.5Z"/><path class="g" d="M764,150.71l1.71,47.6-45,28s5.32,9.71,9.36,9.67S790,212.13,791,207.6s-6.53-73.22-6.53-73.22Z"/><path class="p" d="M194.73,144.94a7.36,7.36,0,0,0-5.88,1.94c-2.65,2.71-.63,7.05,1.11,9.21a22.83,22.83,0,0,0,4.17,4.49c2,1.36,4.53,2.28,6.67,3.42,1.22.59,2.59-1.85,2.77-2.69a10.07,10.07,0,0,0-.3-4.33c-.57-2.36-1.78-5.63-4-6.94.41-.09,5.27.38,5.64.21a42.93,42.93,0,0,0-3.86-3.4A13,13,0,0,0,194.73,144.94Z"/><path class="p" d="M281.79,149.94a7.32,7.32,0,0,1,5.62,2.59c2.32,3-.18,7.08-2.16,9a23.5,23.5,0,0,1-4.65,4c-2.11,1.12-4.76,1.74-7,2.63-1.28.45-2.37-2.13-2.45-3a10.13,10.13,0,0,1,.79-4.27c.84-2.28,2.41-5.38,4.77-6.44-.4-.13-5.28-.22-5.63-.43a45.85,45.85,0,0,1,4.22-2.94A13,13,0,0,1,281.79,149.94Z"/><path class="p" d="M382.29,151.88a7.34,7.34,0,0,0-5.75,2.3c-2.47,2.86-.19,7.07,1.68,9.12a23.08,23.08,0,0,0,4.44,4.23c2,1.23,4.66,2,6.86,3,1.26.51,2.48-2,2.61-2.86a10.15,10.15,0,0,0-.57-4.3c-.72-2.33-2.12-5.51-4.42-6.69.41-.11,5.28.06,5.64-.13a44.41,44.41,0,0,0-4.06-3.16A13,13,0,0,0,382.29,151.88Z"/><path class="p" d="M469.5,151.49a7.37,7.37,0,0,1,5.77,2.24c2.49,2.85.25,7.08-1.6,9.14a23.39,23.39,0,0,1-4.4,4.27c-2,1.24-4.64,2-6.84,3.06-1.25.53-2.49-2-2.63-2.84a10.15,10.15,0,0,1,.53-4.3c.7-2.33,2.07-5.53,4.36-6.73-.41-.11-5.28.11-5.64-.08a44.11,44.11,0,0,1,4-3.2A13,13,0,0,1,469.5,151.49Z"/><path class="p" d="M495.16,150.77a7.35,7.35,0,0,0-5.84,2c-2.59,2.77-.48,7.07,1.31,9.19a23.08,23.08,0,0,0,4.26,4.4c2,1.31,4.58,2.18,6.73,3.28,1.24.57,2.56-1.9,2.72-2.75a10,10,0,0,0-.39-4.32c-.62-2.35-1.89-5.59-4.14-6.86.41-.1,5.28.27,5.64.09a44.18,44.18,0,0,0-3.93-3.32A13,13,0,0,0,495.16,150.77Z"/><path class="h" d="M700.63,146.67c3,0,5.93.59,8.09,2.93,3.56,3.87.58,9.81-1.93,12.74-1.71,2-3.74,4.62-6,6.06-2.78,1.8-6.37,3-9.38,4.47-1.72.78-3.52-2.66-3.74-3.85a14,14,0,0,1,.59-6c.89-3.26,2.69-7.74,5.84-9.47-.58-.14-7.34.31-7.84.06a60.71,60.71,0,0,1,5.49-4.56A18,18,0,0,1,700.63,146.67Z"/><text class="ar" transform="translate(215.46 271.83)">СП<tspan class="as" x="49.06" y="0">А</tspan><tspan class="at" x="72.93" y="0">СИБО ЗА ВАШ ВЫБОР!</tspan></text></g></svg>